<?xml version="1.0" encoding="UTF-8" standalone="no"?>
<svg width="38px" height="37px" viewBox="0 0 38 37" version="1.1" xmlns="http://www.w3.org/2000/svg" xmlns:xlink="http://www.w3.org/1999/xlink">
    <!-- Generator: Sketch 3.6.1 (26313) - http://www.bohemiancoding.com/sketch -->
    <title>Facebook</title>
    <desc>Created with Sketch.</desc>
    <defs></defs>
    <g id="Page-1" stroke="none" stroke-width="1" fill="none" fill-rule="evenodd">
        <g id="SOCIAL-ICONS-SKETCH" transform="translate(-289.000000, -358.000000)" fill="#4D4D4D">
            <g id="SINGLE-COLOR" transform="translate(158.000000, 358.000000)">
                <path d="M168.145,34.923 C168.145,36.042 167.238,36.95 166.119,36.95 L156.764,36.95 L156.764,22.733 L161.536,22.733 L162.251,17.192 L156.764,17.192 L156.764,13.655 C156.764,12.051 157.21,10.958 159.51,10.958 L162.444,10.957 L162.444,6.001 C161.936,5.934 160.195,5.783 158.169,5.783 C153.939,5.783 151.043,8.365 151.043,13.107 L151.043,17.192 L146.259,17.192 L146.259,22.733 L151.043,22.733 L151.043,36.95 L133.46,36.95 C132.341,36.95 131.434,36.042 131.434,34.923 L131.434,2.265 C131.434,1.145 132.341,0.238 133.46,0.238 L166.119,0.238 C167.238,0.238 168.145,1.145 168.145,2.265 L168.145,34.923" id="Facebook"></path>
            </g>
        </g>
    </g>
</svg>