<?xml version="1.0" encoding="UTF-8" standalone="no"?>
<svg width="489px" height="78px" viewBox="0 0 489 78" version="1.1" xmlns="http://www.w3.org/2000/svg" xmlns:xlink="http://www.w3.org/1999/xlink" xmlns:sketch="http://www.bohemiancoding.com/sketch/ns">
    <!-- Generator: Sketch 3.4 (15575) - http://www.bohemiancoding.com/sketch -->
    <title>dog + Animal Collective</title>
    <desc>Created with Sketch.</desc>
    <defs></defs>
    <g id="Page-1" stroke="none" stroke-width="1" fill="none" fill-rule="evenodd" sketch:type="MSPage">
        <g id="dog-+-Animal-Collective" sketch:type="MSLayerGroup" transform="translate(0.000000, -1.000000)">
            <g id="dog" sketch:type="MSShapeGroup">
                <path d="M94.9673656,40.005039 C94.9673656,61.3603541 77.5613601,78.6726301 56.0904264,78.6726301 C34.618023,78.6726301 17.2120175,61.3603541 17.2120175,40.005039 C17.2120175,18.6497239 34.618023,1.33744787 56.0904264,1.33744787 C77.5613601,1.33744787 94.9673656,18.6497239 94.9673656,40.005039" id="Fill-63" fill="#EDD7A4"></path>
                <path d="M42.3216941,31.6733965 C42.3216941,33.8440086 40.5522893,35.6053471 38.3684558,35.6053471 C36.1846223,35.6053471 34.4137478,33.8440086 34.4137478,31.6733965 C34.4137478,29.499861 36.1846223,27.7399843 38.3684558,27.7399843 C40.5522893,27.7399843 42.3216941,29.499861 42.3216941,31.6733965" id="Fill-64" fill="#4A4A4A"></path>
                <path d="M77.908187,31.6733965 C77.908187,33.8440086 76.1387822,35.6053471 73.9549487,35.6053471 C71.7711152,35.6053471 70.0002407,33.8440086 70.0002407,31.6733965 C70.0002407,29.499861 71.7711152,27.7399843 73.9549487,27.7399843 C76.1387822,27.7399843 77.908187,29.499861 77.908187,31.6733965" id="Fill-65" fill="#4A4A4A"></path>
                <path d="M33.117556,8.81400069 L33.1190256,8.81107731 C19.7706004,8.81107731 0.196927113,28.1171007 0.196927113,41.393646 C0.196927113,54.6701914 8.7529693,58.7907002 22.1013945,58.7907002 L22.1043337,58.78193 C18.9917096,53.2216549 17.2120175,46.8209072 17.2120175,40.005039 C17.2120175,27.1976967 23.4754754,15.852046 33.117556,8.81400069" id="Fill-66" fill="#A38686"></path>
                <path d="M79.9788609,8.81107731 L80.1655008,9.65593509 C89.1771206,16.7378312 94.9673656,27.6961335 94.9673656,40.005039 C94.9673656,46.3283171 93.431628,52.292019 90.724615,57.5614175 L90.996492,58.7907002 C104.344917,58.7907002 112.902429,54.6701914 112.902429,41.393646 C112.902429,28.1171007 93.327286,8.81107731 79.9788609,8.81107731" id="Fill-67" fill="#A38686"></path>
                <path d="M64.1703164,53.2084997 L64.1703164,63.7896856 C64.1703164,68.1645288 60.571253,71.7456733 56.1727243,71.7456733 C51.7727259,71.7456733 48.1736625,68.1645288 48.1736625,63.7896856 L48.1736625,53.1778042 C52.6853508,52.9410101 56.1727243,51.296607 56.1727243,47.4932853 C56.1727243,51.2980687 59.6586281,52.9410101 64.1732556,53.1778042 L64.1703164,53.2084997" id="Fill-68" fill="#F27794"></path>
                <path d="M69.7033805,48.1700486 C69.03471,48.0238794 68.3689788,48.4492317 68.2234879,49.1157631 C67.8119984,51.002807 65.6325737,52.2700937 62.8006443,52.2700937 C60.7858154,52.2700937 57.4057231,51.8944389 57.4057231,49.3788676 L57.4057231,46.3780146 C57.4057231,46.30493 57.376331,46.2420773 57.3631046,46.1719161 C58.9561567,45.6632474 60.1156753,44.1971706 60.1156753,42.4446024 C60.1156753,40.2725285 58.3448009,38.5111901 56.1609674,38.5111901 C53.9771339,38.5111901 52.2077291,40.2725285 52.2077291,42.4446024 C52.2077291,44.1971706 53.3672477,45.6647091 54.9588303,46.1719161 C54.9470734,46.2420773 54.9176813,46.30493 54.9176813,46.3780146 L54.9176813,49.3788676 C54.9176813,51.8944389 51.5375891,52.2700937 49.5227602,52.2700937 C46.6893611,52.2700937 44.5099364,51.002807 44.0984469,49.1157631 C43.952956,48.4492317 43.282816,48.0224177 42.620024,48.1700486 C41.9484143,48.314756 41.5207592,48.973979 41.6677197,49.6419721 C42.3334509,52.6939843 45.4901632,54.7447376 49.5227602,54.7447376 C52.6030529,54.7447376 54.8677147,53.9992749 56.1609674,52.6355166 C57.4542201,53.9992749 59.7188819,54.7447376 62.8006443,54.7447376 C66.8317717,54.7447376 69.9884839,52.6939843 70.6556847,49.6419721 C70.8011756,48.973979 70.3749901,48.314756 69.7033805,48.1700486" id="Fill-69" fill="#4A4A4A"></path>
            </g>
            <path d="M162.816,24.848 L165.808,24.848 L178.92,56 L175.664,56 L172.276,47.728 L155.776,47.728 L152.256,56 L149.22,56 L162.816,24.848 Z M164.18,28.016 L156.92,45.088 L171.22,45.088 L164.18,28.016 Z M182.66,41.392 C182.66,41.0106648 182.645333,40.5486694 182.616,40.006 C182.586667,39.4633306 182.564667,38.9133361 182.55,38.356 C182.535333,37.7986639 182.513333,37.2780024 182.484,36.794 C182.454667,36.3099976 182.44,35.9360013 182.44,35.672 L185.08,35.672 C185.109333,36.4346705 185.131333,37.1679965 185.146,37.872 C185.160667,38.5760035 185.197333,39.0306656 185.256,39.236 L185.388,39.236 C185.916003,38.1213278 186.795994,37.1606707 188.028,36.354 C189.260006,35.5473293 190.697325,35.144 192.34,35.144 C193.924008,35.144 195.214662,35.3933308 196.212,35.892 C197.209338,36.3906692 197.993997,37.0433293 198.566,37.85 C199.138003,38.6566707 199.533999,39.5879947 199.754,40.644 C199.974001,41.7000053 200.084,42.7853278 200.084,43.9 L200.084,56 L197.444,56 L197.444,44.032 C197.444,43.2106626 197.370667,42.4113372 197.224,41.634 C197.077333,40.8566628 196.820669,40.1600031 196.454,39.544 C196.087332,38.9279969 195.574003,38.4366685 194.914,38.07 C194.253997,37.7033315 193.396005,37.52 192.34,37.52 C191.371995,37.52 190.455338,37.688665 189.59,38.026 C188.724662,38.363335 187.97667,38.8766632 187.346,39.566 C186.71533,40.2553368 186.216669,41.1206615 185.85,42.162 C185.483332,43.2033385 185.3,44.427993 185.3,45.836 L185.3,56 L182.66,56 L182.66,41.392 Z M207.564,35.672 L210.204,35.672 L210.204,56 L207.564,56 L207.564,35.672 Z M206.904,27.62 C206.904,27.0626639 207.094665,26.5933352 207.476,26.212 C207.857335,25.8306648 208.326664,25.64 208.884,25.64 C209.441336,25.64 209.910665,25.8306648 210.292,26.212 C210.673335,26.5933352 210.864,27.0626639 210.864,27.62 C210.864,28.1773361 210.673335,28.6466648 210.292,29.028 C209.910665,29.4093352 209.441336,29.6 208.884,29.6 C208.326664,29.6 207.857335,29.4093352 207.476,29.028 C207.094665,28.6466648 206.904,28.1773361 206.904,27.62 L206.904,27.62 Z M217.684,41.392 C217.684,41.0106648 217.669333,40.5486694 217.64,40.006 C217.610667,39.4633306 217.588667,38.9133361 217.574,38.356 C217.559333,37.7986639 217.537333,37.2780024 217.508,36.794 C217.478667,36.3099976 217.464,35.9360013 217.464,35.672 L220.104,35.672 C220.133333,36.4346705 220.155333,37.1679965 220.17,37.872 C220.184667,38.5760035 220.221333,39.0306656 220.28,39.236 L220.412,39.236 C220.940003,38.1213278 221.819994,37.1606707 223.052,36.354 C224.284006,35.5473293 225.721325,35.144 227.364,35.144 C228.71334,35.144 229.945328,35.4886632 231.06,36.178 C232.174672,36.8673368 232.981331,37.9893256 233.48,39.544 C234.125337,38.018659 235.085994,36.9040035 236.362,36.2 C237.638006,35.4959965 238.979993,35.144 240.388,35.144 C241.972008,35.144 243.262662,35.3933308 244.26,35.892 C245.257338,36.3906692 246.041997,37.0433293 246.614,37.85 C247.186003,38.6566707 247.581999,39.5879947 247.802,40.644 C248.022001,41.7000053 248.132,42.7853278 248.132,43.9 L248.132,56 L245.492,56 L245.492,44.032 C245.492,43.2106626 245.418667,42.4113372 245.272,41.634 C245.125333,40.8566628 244.868669,40.1600031 244.502,39.544 C244.135332,38.9279969 243.622003,38.4366685 242.962,38.07 C242.301997,37.7033315 241.444005,37.52 240.388,37.52 C239.155994,37.52 238.144004,37.7473311 237.352,38.202 C236.559996,38.6566689 235.936669,39.2359965 235.482,39.94 C235.027331,40.6440035 234.704668,41.4066626 234.514,42.228 C234.323332,43.0493374 234.228,43.826663 234.228,44.56 L234.228,56 L231.588,56 L231.588,43.768 C231.588,41.8906573 231.243337,40.3800057 230.554,39.236 C229.864663,38.0919943 228.801341,37.52 227.364,37.52 C226.395995,37.52 225.479338,37.688665 224.614,38.026 C223.748662,38.363335 223.00067,38.8766632 222.37,39.566 C221.73933,40.2553368 221.240669,41.1206615 220.874,42.162 C220.507332,43.2033385 220.324,44.427993 220.324,45.836 L220.324,56 L217.684,56 L217.684,41.392 Z M270.968,47.464 C270.968,48.4613383 270.975333,49.355996 270.99,50.148 C271.004667,50.940004 271.026667,51.67333 271.056,52.348 C271.085333,53.02267 271.122,53.6533304 271.166,54.24 C271.21,54.8266696 271.276,55.4133304 271.364,56 L268.9,56 C268.723999,55.0026617 268.636,53.9026727 268.636,52.7 L268.548,52.7 C267.78533,54.0200066 266.839339,54.9879969 265.71,55.604 C264.580661,56.2200031 263.150675,56.528 261.42,56.528 C260.539996,56.528 259.674671,56.4180011 258.824,56.198 C257.973329,55.9779989 257.21067,55.6260024 256.536,55.142 C255.86133,54.6579976 255.311335,54.0346705 254.886,53.272 C254.460665,52.5093295 254.248,51.5853388 254.248,50.5 C254.248,48.9453256 254.643996,47.7133379 255.436,46.804 C256.228004,45.8946621 257.203328,45.2126689 258.362,44.758 C259.520672,44.3033311 260.75266,44.0100007 262.058,43.878 C263.36334,43.7459993 264.514662,43.68 265.512,43.68 L268.592,43.68 L268.592,42.448 C268.592,40.6879912 268.049339,39.4266705 266.964,38.664 C265.878661,37.9013295 264.514675,37.52 262.872,37.52 C260.525322,37.52 258.457342,38.282659 256.668,39.808 L255.128,38.004 C256.096005,37.0653286 257.298659,36.3540024 258.736,35.87 C260.173341,35.3859976 261.551993,35.144 262.872,35.144 C265.336012,35.144 267.301326,35.7233275 268.768,36.882 C270.234674,38.0406725 270.968,39.9106538 270.968,42.492 L270.968,47.464 Z M265.688,45.792 C264.573328,45.792 263.495339,45.8653326 262.454,46.012 C261.412661,46.1586674 260.474004,46.4079982 259.638,46.76 C258.801996,47.1120018 258.134669,47.5813304 257.636,48.168 C257.137331,48.7546696 256.888,49.4879956 256.888,50.368 C256.888,50.9840031 257.027332,51.5339976 257.306,52.018 C257.584668,52.5020024 257.943998,52.8979985 258.384,53.206 C258.824002,53.5140015 259.315331,53.7486659 259.858,53.91 C260.400669,54.0713341 260.950664,54.152 261.508,54.152 C262.916007,54.152 264.074662,53.9466687 264.984,53.536 C265.893338,53.1253313 266.619331,52.5900033 267.162,51.93 C267.704669,51.2699967 268.078666,50.5220042 268.284,49.686 C268.489334,48.8499958 268.592,48.0066709 268.592,47.156 L268.592,45.792 L265.688,45.792 Z M278.448,22.736 L281.088,22.736 L281.088,56 L278.448,56 L278.448,22.736 Z M326.408,51.116 C324.911993,53.1400101 323.181343,54.5919956 321.216,55.472 C319.250657,56.3520044 317.124011,56.792 314.836,56.792 C312.459988,56.792 310.28201,56.3886707 308.302,55.582 C306.32199,54.7753293 304.628007,53.6460073 303.22,52.194 C301.811993,50.7419927 300.712004,49.0113434 299.92,47.002 C299.127996,44.9926566 298.732,42.8000119 298.732,40.424 C298.732,38.0479881 299.127996,35.8626766 299.92,33.868 C300.712004,31.8733234 301.811993,30.1500073 303.22,28.698 C304.628007,27.2459927 306.32199,26.1093374 308.302,25.288 C310.28201,24.4666626 312.459988,24.056 314.836,24.056 C316.948011,24.056 318.920658,24.4299963 320.754,25.178 C322.587342,25.9260037 324.193326,27.1799912 325.572,28.94 L323.196,30.92 C322.227995,29.453326 320.988674,28.38267 319.478,27.708 C317.967326,27.03333 316.420008,26.696 314.836,26.696 C312.81199,26.696 310.986008,27.0479965 309.358,27.752 C307.729992,28.4560035 306.344006,29.4239938 305.2,30.656 C304.055994,31.8880062 303.176003,33.3399916 302.56,35.012 C301.943997,36.6840084 301.636,38.4879903 301.636,40.424 C301.636,42.3600097 301.943997,44.1639916 302.56,45.836 C303.176003,47.5080084 304.055994,48.9599938 305.2,50.192 C306.344006,51.4240062 307.729992,52.3919965 309.358,53.096 C310.986008,53.8000035 312.81199,54.152 314.836,54.152 C315.628004,54.152 316.449329,54.0566676 317.3,53.866 C318.150671,53.6753324 318.979329,53.382002 319.786,52.986 C320.592671,52.589998 321.362663,52.0913363 322.096,51.49 C322.829337,50.8886637 323.474664,50.1626709 324.032,49.312 L326.408,51.116 Z M329.84,45.836 C329.84,44.2813256 330.103997,42.8513399 330.632,41.546 C331.160003,40.2406601 331.893329,39.1113381 332.832,38.158 C333.770671,37.2046619 334.899993,36.4640026 336.22,35.936 C337.540007,35.4079974 338.977326,35.144 340.532,35.144 C342.086674,35.144 343.51666,35.4079974 344.822,35.936 C346.12734,36.4640026 347.256662,37.2046619 348.21,38.158 C349.163338,39.1113381 349.903997,40.2406601 350.432,41.546 C350.960003,42.8513399 351.224,44.2813256 351.224,45.836 C351.224,47.3906744 350.960003,48.8206601 350.432,50.126 C349.903997,51.4313399 349.163338,52.5606619 348.21,53.514 C347.256662,54.4673381 346.12734,55.2079974 344.822,55.736 C343.51666,56.2640026 342.086674,56.528 340.532,56.528 C338.977326,56.528 337.540007,56.2640026 336.22,55.736 C334.899993,55.2079974 333.770671,54.4673381 332.832,53.514 C331.893329,52.5606619 331.160003,51.4313399 330.632,50.126 C330.103997,48.8206601 329.84,47.3906744 329.84,45.836 L329.84,45.836 Z M332.48,45.836 C332.48,46.9800057 332.663332,48.0579949 333.03,49.07 C333.396669,50.0820051 333.931996,50.9619963 334.636,51.71 C335.340004,52.4580037 336.190662,53.0519978 337.188,53.492 C338.185338,53.9320022 339.299994,54.152 340.532,54.152 C341.764006,54.152 342.878662,53.9320022 343.876,53.492 C344.873338,53.0519978 345.723996,52.4580037 346.428,51.71 C347.132004,50.9619963 347.667332,50.0820051 348.034,49.07 C348.400669,48.0579949 348.584,46.9800057 348.584,45.836 C348.584,44.6919943 348.400669,43.6140051 348.034,42.602 C347.667332,41.5899949 347.132004,40.7100037 346.428,39.962 C345.723996,39.2139963 344.873338,38.6200022 343.876,38.18 C342.878662,37.7399978 341.764006,37.52 340.532,37.52 C339.299994,37.52 338.185338,37.7399978 337.188,38.18 C336.190662,38.6200022 335.340004,39.2139963 334.636,39.962 C333.931996,40.7100037 333.396669,41.5899949 333.03,42.602 C332.663332,43.6140051 332.48,44.6919943 332.48,45.836 L332.48,45.836 Z M357.56,22.736 L360.2,22.736 L360.2,56 L357.56,56 L357.56,22.736 Z M368.164,22.736 L370.804,22.736 L370.804,56 L368.164,56 L368.164,22.736 Z M396.236,52.172 C395.209328,53.7266744 393.940674,54.84133 392.43,55.516 C390.919326,56.19067 389.254676,56.528 387.436,56.528 C385.881326,56.528 384.47334,56.2640026 383.212,55.736 C381.95066,55.2079974 380.865338,54.4673381 379.956,53.514 C379.046662,52.5606619 378.350002,51.4313399 377.866,50.126 C377.381998,48.8206601 377.14,47.3760079 377.14,45.792 C377.14,44.266659 377.389331,42.8586731 377.888,41.568 C378.386669,40.2773269 379.090662,39.1553381 380,38.202 C380.909338,37.2486619 381.979994,36.5006694 383.212,35.958 C384.444006,35.4153306 385.807993,35.144 387.304,35.144 C388.858674,35.144 390.229994,35.4153306 391.418,35.958 C392.606006,36.5006694 393.603329,37.2193289 394.41,38.114 C395.216671,39.0086711 395.825331,40.0279943 396.236,41.172 C396.646669,42.3160057 396.852,43.4746608 396.852,44.648 L396.852,46.496 L379.78,46.496 C379.78,47.0533361 379.889999,47.7646623 380.11,48.63 C380.330001,49.4953377 380.73333,50.3386626 381.32,51.16 C381.90667,51.9813374 382.691328,52.6853304 383.674,53.272 C384.656672,53.8586696 385.925326,54.152 387.48,54.152 C388.82934,54.152 390.13466,53.8293366 391.396,53.184 C392.65734,52.5386634 393.62533,51.6586722 394.3,50.544 L396.236,52.172 Z M394.212,44.12 C394.212,43.2106621 394.028668,42.360004 393.662,41.568 C393.295332,40.775996 392.79667,40.0793363 392.166,39.478 C391.53533,38.8766637 390.787338,38.4000018 389.922,38.048 C389.056662,37.6959982 388.140005,37.52 387.172,37.52 C385.734659,37.52 384.539338,37.8133304 383.586,38.4 C382.632662,38.9866696 381.877336,39.6613295 381.32,40.424 C380.762664,41.1866705 380.366668,41.9273297 380.132,42.646 C379.897332,43.3646703 379.78,43.8559987 379.78,44.12 L394.212,44.12 Z M419.776,53.008 C418.778662,54.2106727 417.64934,55.0979971 416.388,55.67 C415.12666,56.2420029 413.762674,56.528 412.296,56.528 C410.741326,56.528 409.304007,56.2640026 407.984,55.736 C406.663993,55.2079974 405.534671,54.4673381 404.596,53.514 C403.657329,52.5606619 402.924003,51.4313399 402.396,50.126 C401.867997,48.8206601 401.604,47.3906744 401.604,45.836 C401.604,44.2813256 401.867997,42.8513399 402.396,41.546 C402.924003,40.2406601 403.657329,39.1113381 404.596,38.158 C405.534671,37.2046619 406.663993,36.4640026 407.984,35.936 C409.304007,35.4079974 410.741326,35.144 412.296,35.144 C413.792007,35.144 415.177994,35.4519969 416.454,36.068 C417.730006,36.6840031 418.866662,37.5493278 419.864,38.664 L417.752,40.248 C416.98933,39.3973291 416.153338,38.7300024 415.244,38.246 C414.334662,37.7619976 413.352005,37.52 412.296,37.52 C411.063994,37.52 409.949338,37.7399978 408.952,38.18 C407.954662,38.6200022 407.104004,39.2139963 406.4,39.962 C405.695996,40.7100037 405.160669,41.5899949 404.794,42.602 C404.427332,43.6140051 404.244,44.6919943 404.244,45.836 C404.244,46.9800057 404.427332,48.0579949 404.794,49.07 C405.160669,50.0820051 405.695996,50.9619963 406.4,51.71 C407.104004,52.4580037 407.954662,53.0519978 408.952,53.492 C409.949338,53.9320022 411.063994,54.152 412.296,54.152 C413.410672,54.152 414.429995,53.8953359 415.354,53.382 C416.278005,52.8686641 417.07733,52.1866709 417.752,51.336 L419.776,53.008 Z M433.856,38.048 L428.048,38.048 L428.048,51.292 C428.048,52.2013379 428.297331,52.9053308 428.796,53.404 C429.294669,53.9026692 429.983996,54.152 430.864,54.152 C431.362669,54.152 431.868664,54.0860007 432.382,53.954 C432.895336,53.8219993 433.386664,53.6533344 433.856,53.448 L434.076,55.824 C433.577331,56.0000009 433.005337,56.1613326 432.36,56.308 C431.714663,56.4546674 431.142669,56.528 430.644,56.528 C429.705329,56.528 428.89867,56.3886681 428.224,56.11 C427.54933,55.8313319 427.006669,55.4573357 426.596,54.988 C426.185331,54.5186643 425.884668,53.9686698 425.694,53.338 C425.503332,52.7073302 425.408,52.025337 425.408,51.292 L425.408,38.048 L421.008,38.048 L421.008,35.672 L425.408,35.672 L425.408,29.82 L428.048,29.82 L428.048,35.672 L433.856,35.672 L433.856,38.048 Z M439.048,35.672 L441.688,35.672 L441.688,56 L439.048,56 L439.048,35.672 Z M438.388,27.62 C438.388,27.0626639 438.578665,26.5933352 438.96,26.212 C439.341335,25.8306648 439.810664,25.64 440.368,25.64 C440.925336,25.64 441.394665,25.8306648 441.776,26.212 C442.157335,26.5933352 442.348,27.0626639 442.348,27.62 C442.348,28.1773361 442.157335,28.6466648 441.776,29.028 C441.394665,29.4093352 440.925336,29.6 440.368,29.6 C439.810664,29.6 439.341335,29.4093352 438.96,29.028 C438.578665,28.6466648 438.388,28.1773361 438.388,27.62 L438.388,27.62 Z M446.308,35.672 L449.3,35.672 L456.076,53.14 L462.676,35.672 L465.36,35.672 L457.352,56 L454.624,56 L446.308,35.672 Z M487.492,52.172 C486.465328,53.7266744 485.196674,54.84133 483.686,55.516 C482.175326,56.19067 480.510676,56.528 478.692,56.528 C477.137326,56.528 475.72934,56.2640026 474.468,55.736 C473.20666,55.2079974 472.121338,54.4673381 471.212,53.514 C470.302662,52.5606619 469.606002,51.4313399 469.122,50.126 C468.637998,48.8206601 468.396,47.3760079 468.396,45.792 C468.396,44.266659 468.645331,42.8586731 469.144,41.568 C469.642669,40.2773269 470.346662,39.1553381 471.256,38.202 C472.165338,37.2486619 473.235994,36.5006694 474.468,35.958 C475.700006,35.4153306 477.063993,35.144 478.56,35.144 C480.114674,35.144 481.485994,35.4153306 482.674,35.958 C483.862006,36.5006694 484.859329,37.2193289 485.666,38.114 C486.472671,39.0086711 487.081331,40.0279943 487.492,41.172 C487.902669,42.3160057 488.108,43.4746608 488.108,44.648 L488.108,46.496 L471.036,46.496 C471.036,47.0533361 471.145999,47.7646623 471.366,48.63 C471.586001,49.4953377 471.98933,50.3386626 472.576,51.16 C473.16267,51.9813374 473.947328,52.6853304 474.93,53.272 C475.912672,53.8586696 477.181326,54.152 478.736,54.152 C480.08534,54.152 481.39066,53.8293366 482.652,53.184 C483.91334,52.5386634 484.88133,51.6586722 485.556,50.544 L487.492,52.172 Z M485.468,44.12 C485.468,43.2106621 485.284669,42.360004 484.918,41.568 C484.551332,40.775996 484.05267,40.0793363 483.422,39.478 C482.79133,38.8766637 482.043338,38.4000018 481.178,38.048 C480.312662,37.6959982 479.396005,37.52 478.428,37.52 C476.990659,37.52 475.795338,37.8133304 474.842,38.4 C473.888662,38.9866696 473.133336,39.6613295 472.576,40.424 C472.018664,41.1866705 471.622668,41.9273297 471.388,42.646 C471.153332,43.3646703 471.036,43.8559987 471.036,44.12 L485.468,44.12 Z" id="Animal-Collective" fill="#403C4F" sketch:type="MSShapeGroup"></path>
        </g>
    </g>
</svg>