<?xml version="1.0" encoding="UTF-8" standalone="no"?>
<svg width="125px" height="117px" viewBox="0 0 125 117" version="1.1" xmlns="http://www.w3.org/2000/svg" xmlns:xlink="http://www.w3.org/1999/xlink">
    <!-- Generator: Sketch 3.6.1 (26313) - http://www.bohemiancoding.com/sketch -->
    <title>Combined Shape</title>
    <desc>Created with Sketch.</desc>
    <defs></defs>
    <g id="Page-1" stroke="none" stroke-width="1" fill="none" fill-rule="evenodd">
        <g id="Artboard-1" transform="translate(-345.000000, -418.000000)" fill="#DADADA">
            <g id="Group" transform="translate(113.551247, 46.000000)">
                <g id="Group-2" transform="translate(231.000000, 372.000000)">
                    <path d="M58.9149115,19.8310504 C59.7017099,30.8745381 53.8810498,40.2888278 45.9121418,40.858016 C37.9432338,41.4272041 30.8455711,32.9368141 30.0587727,21.8933263 C29.2719743,10.8498386 35.0926345,1.43554892 43.0615425,0.866360754 C51.0304505,0.297172592 58.1281132,8.78756268 58.9149115,19.8310504 Z M96.0001945,24.937694 C94.5072768,35.5573797 87.2359133,43.2680769 79.757087,42.1599903 C72.2802947,41.0539904 67.4293291,31.5486518 68.9222468,20.9289661 C70.4151645,10.3113673 77.6865281,2.60067002 85.1633204,3.7066699 C92.6421466,4.81266978 97.4931123,14.3180084 96.0001945,24.937694 Z M124.99881,52.5554225 C123.505892,63.1751082 116.234528,70.8858055 108.755702,69.7777188 C101.27891,68.6717189 96.4279441,59.1663803 97.9208618,48.5466947 C99.4137795,37.9290958 106.685143,30.2183986 114.161935,31.3243984 C121.640762,32.4303983 126.491727,41.9357369 124.99881,52.5554225 Z M28.7127541,44.2269948 C31.9907254,54.2487838 28.7292886,64.2767212 21.4251582,66.6253859 C14.1210279,68.9761 5.54373838,62.7539831 2.2637002,52.7321941 C-1.01427116,42.710405 2.24716567,32.6824676 9.55129605,30.3338029 C16.8554264,27.9851383 25.4347827,34.2052057 28.7127541,44.2269948 Z M63.8192521,46.4085873 C78.5754727,46.4085873 104.555402,78.9130058 104.555402,96.8326643 C104.555402,118.723227 91.6694558,116.41874 88.7589952,116.41874 C85.8505943,116.41874 74.626886,109.751008 63.8192521,109.751008 C53.0116181,109.751008 43.0361328,116.833795 36.3851227,116.833795 C28.4714712,116.833795 23.0831025,106.416109 23.0831025,95.9984235 C23.0831025,85.5807377 47.5573367,46.4085873 63.8192521,46.4085873 Z" id="Combined-Shape"></path>
                </g>
            </g>
        </g>
    </g>
</svg>