<?xml version="1.0" encoding="UTF-8" standalone="no"?>
<svg width="30px" height="30px" viewBox="0 0 30 30" version="1.1" xmlns="http://www.w3.org/2000/svg" xmlns:xlink="http://www.w3.org/1999/xlink">
    <!-- Generator: Sketch 3.6.1 (26313) - http://www.bohemiancoding.com/sketch -->
    <title>Combined Shape</title>
    <desc>Created with Sketch.</desc>
    <defs></defs>
    <g id="Page-1" stroke="none" stroke-width="1" fill="none" fill-rule="evenodd">
        <g id="Create-Interview" transform="translate(-165.000000, -1576.000000)" fill="#FFFFFF">
            <path d="M181,1593 L194.001846,1593 C194.552635,1593 195,1592.55275 195,1592.00104 L195,1590.99896 C195,1590.44266 194.553111,1590 194.001846,1590 L181,1590 L181,1576.99815 C181,1576.44737 180.552752,1576 180.001043,1576 L178.998957,1576 C178.44266,1576 178,1576.44689 178,1576.99815 L178,1590 L165.998154,1590 C165.447365,1590 165,1590.44725 165,1590.99896 L165,1592.00104 C165,1592.55734 165.446889,1593 165.998154,1593 L178,1593 L178,1605.00185 C178,1605.55263 178.447248,1606 178.998957,1606 L180.001043,1606 C180.55734,1606 181,1605.55311 181,1605.00185 L181,1593 Z" id="Combined-Shape"></path>
        </g>
    </g>
</svg>