<?xml version="1.0" encoding="UTF-8" standalone="no"?>
<svg width="38px" height="32px" viewBox="0 0 38 32" version="1.1" xmlns="http://www.w3.org/2000/svg" xmlns:xlink="http://www.w3.org/1999/xlink">
    <!-- Generator: Sketch 3.6.1 (26313) - http://www.bohemiancoding.com/sketch -->
    <title>Twitter</title>
    <desc>Created with Sketch.</desc>
    <defs></defs>
    <g id="Page-1" stroke="none" stroke-width="1" fill="none" fill-rule="evenodd">
        <g id="SOCIAL-ICONS-SKETCH" transform="translate(-803.000000, -361.000000)" fill="#4D4D4D">
            <g id="SINGLE-COLOR" transform="translate(158.000000, 358.000000)">
                <path d="M681.76,3.618 C680.274,4.52 678.632,5.176 676.877,5.528 C675.479,3.997 673.481,3.041 671.269,3.041 C667.029,3.041 663.588,6.569 663.588,10.92 C663.588,11.538 663.654,12.137 663.786,12.714 C657.4,12.385 651.739,9.252 647.947,4.479 C647.285,5.647 646.907,7.002 646.907,8.445 C646.907,11.177 648.263,13.589 650.326,15.002 C649.068,14.964 647.881,14.606 646.843,14.02 L646.843,14.116 C646.843,17.935 649.492,21.121 653.01,21.842 C652.366,22.027 651.686,22.12 650.985,22.12 C650.49,22.12 650.007,22.072 649.539,21.98 C650.517,25.109 653.353,27.388 656.716,27.449 C654.087,29.563 650.772,30.823 647.173,30.823 C646.553,30.823 645.94,30.787 645.34,30.715 C648.74,32.947 652.781,34.252 657.119,34.252 C671.254,34.252 678.981,22.248 678.981,11.835 C678.981,11.492 678.975,11.15 678.962,10.814 C680.463,9.703 681.767,8.316 682.793,6.736 C681.417,7.362 679.935,7.786 678.381,7.976 C679.968,7.002 681.186,5.458 681.76,3.618" id="Twitter"></path>
            </g>
        </g>
    </g>
</svg>