<svg width="32" height="28" viewBox="0 0 32 28" xmlns="http://www.w3.org/2000/svg"><title>ios7-cloud-upload-outline</title><g fill="#C9C9C9" fill-rule="evenodd"><path d="M11.521 14.356l-.828-.843 5.321-5.404 5.322 5.404-.836.843-3.9-3.97V27.97h-1.179V10.385l-3.9 3.971z"/><path d="M26.236 8.77c0-.086.014-.174.014-.26 0-4.677-3.771-8.466-8.343-8.466-3.293 0-6.128 1.97-7.457 4.821A4.143 4.143 0 0 0 8.536 4.4C6.42 4.4 4.67 6.116 4.329 8.182 1.814 9.062 0 11.578 0 14.458c0 3.615 2.864 6.56 6.4 6.56h6.529v-1.163H6.457c-2.921 0-5.3-2.437-5.3-5.426 0-2.313 1.443-4.45 3.586-5.207l.6-.211.107-.64C5.707 6.8 7.029 5.513 8.586 5.513c.493 0 .978.116 1.421.349l.964.494.465-.996c1.185-2.538 3.721-4.175 6.457-4.175 3.95 0 7.207 3.15 7.207 7.193 0 .967-.014 1.477-.014 1.477l1.085.007c2.615.036 4.686 2.429 4.686 5.113 0 2.676-2.128 4.865-4.75 4.88H18.93v1.163h7.214c3.214 0 5.857-2.713 5.857-6.022s-2.536-6.218-5.764-6.225z"/></g></svg>