<svg width="980" height="980" viewBox="0 0 980 980" xmlns="http://www.w3.org/2000/svg"><title>Group</title><g fill="#000" fill-rule="evenodd"><path d="M479.2 44.5H133.6c-49.2 0-89.1 39.9-89.1 89.1v712.7c0 49.2 39.9 89.1 89.1 89.1h712.7c49.2 0 89.1-39.9 89.1-89.1V502.2c0-6.7 5.5-12.2 12.2-12.2h22c5.7 0 10.4 4.6 10.4 10.4v346c0 73.8-59.8 133.6-133.6 133.6H133.6C59.8 980 0 920.2 0 846.4V133.6C0 59.8 59.8 0 133.6 0h345.2C485 0 490 5 490 11.2v22.6c0 5.9-4.8 10.7-10.8 10.7z"/><path d="M937.5 159.3L846.2 68c-19.2-19.2-50.3-19.2-69.5 0L280.6 564.2c-.5.5-.9 1.1-1.1 1.8l-15.4 46.2-46 138.1c-9.3 28 5.9 43.3 33.9 33.9l183.9-61.3 501.5-500.6c17.4-17.4 17.5-45.6.1-63zM416 679.2L357.6 702l-78.5 26.2c-3.1 1-6.1-1.9-5.1-5.1l25.2-75.7h.1l24.7-63.7S544.2 363.4 688.6 219l94.4 94.4C640.1 456.1 417 678.6 416 679.2zm484.4-482.8s-34.8 34.7-85.7 85.6l-94.4-94.4 85.6-85.6c3.2-3.2 8.2-3.2 11.4 0 16.9 16.9 66.6 66.7 83.3 83.4 2.9 3 2.8 7.9-.2 11z"/></g></svg>