<?xml version="1.0" standalone="no"?>
<!DOCTYPE svg PUBLIC "-//W3C//DTD SVG 1.1//EN" "http://www.w3.org/Graphics/SVG/1.1/DTD/svg11.dtd" >
<svg xmlns="http://www.w3.org/2000/svg">
<metadata>
Created by FontPrep 20130207 at Wed Apr 20 22:36:48 2016
 By YL
2013 published by FontShop International GmbH
</metadata>
<defs>
<font id="656228237efe1218a14602670c97789f" horiz-adv-x='1024' >
  <font-face 
    font-family="MarkOffc-Bold"
    font-weight="700"
    font-stretch="normal"
    units-per-em="2048"
    panose-1="2 11 8 4 2 1 1 1 1 2"
    ascent="1618"
    descent="-430"
    x-height="992"
    cap-height="1434"
    bbox="-1394 -484 2828 2049"
    underline-thickness="139"
    underline-position="-127"
    unicode-range="U+0020-FEFF"
  />
<missing-glyph horiz-adv-x="1210" 
d="M853 217v1000h-496v-1000h496zM140 1434h930v-1434h-930v1434z" />
    <glyph glyph-name=".notdef" horiz-adv-x="1210" 
d="M853 217v1000h-496v-1000h496zM140 1434h930v-1434h-930v1434z" />
    <glyph glyph-name=".null" horiz-adv-x="0" 
 />
    <glyph glyph-name="nonmarkingreturn" horiz-adv-x="506" 
 />
    <glyph glyph-name="space" unicode=" " horiz-adv-x="506" 
 />
    <glyph glyph-name="exclam" unicode="!" horiz-adv-x="568" 
d="M285 364q39 0 73.5 -15.5t61 -42t42.5 -62t16 -74.5t-16 -75t-42.5 -62.5t-61 -42.5t-73.5 -16t-75 16t-62.5 42.5t-42.5 62.5t-16 75t16 74.5t42.5 62t62.5 42t75 15.5zM407 493h-246l-37 941h319z" />
    <glyph glyph-name="quotedbl" unicode="&#x22;" horiz-adv-x="1149" 
d="M922 1475v-612h-268v612h268zM496 1475v-612h-268v612h268z" />
    <glyph glyph-name="numbersign" unicode="#" horiz-adv-x="1505" 
d="M599 574h245l62 292h-244zM464 1096l73 338h245l-72 -338h244l73 338h246l-73 -338h208l-49 -230h-207l-62 -292h206l-48 -229h-208l-72 -345h-246l73 345h-245l-73 -345h-246l73 345h-207l49 229h207l63 292h-208l49 230h207z" />
    <glyph glyph-name="dollar" unicode="$" horiz-adv-x="1433" 
d="M623 1155q-153 -36 -157 -147q-1 -54 40 -85t117 -51v283zM850 278q155 37 159 149q1 51 -40 82.5t-119 51.5v-283zM850 1602v-190q219 -20 427 -144l-128 -219q-141 87 -299 111v-326q317 -47 379.5 -171.5t60.5 -215.5q-4 -177 -125 -285t-314 -136v-203h-227v197
q-303 27 -489 173l140 217q144 -111 348 -140v330q-219 36 -331 129.5t-109 263.5t124.5 280t315.5 137v192h227z" />
    <glyph glyph-name="percent" unicode="%" horiz-adv-x="2026" 
d="M1552 543q-38 0 -69.5 -13.5t-54.5 -37t-36 -56t-13 -90t49 -108t124 -50.5t123.5 50t48.5 149t-67 127.5t-105 28.5zM1267 85q-115 111 -115 280t115.5 280.5t285 111.5t284.5 -111.5t115 -280t-115 -280t-285 -111.5t-285 111zM666 0h-269l962 1434h267zM303 1068
q0 -77 49 -127t124 -50t123.5 49.5t48.5 127.5t-48 127.5t-124 49.5q-75 0 -124 -50t-49 -127zM762 1347q114 -112 114 -279t-114 -279t-285.5 -112t-286 111t-114.5 280t114.5 280t286 111t285.5 -112z" />
    <glyph glyph-name="ampersand" unicode="&#x26;" horiz-adv-x="1508" 
d="M726 1102q0 51 -38.5 84t-107.5 33t-107.5 -35t-38.5 -86t24.5 -88t98.5 -109q89 64 129 107t40 94zM554 217q76 0 130 25t106 74l-276 265q-60 -49 -98.5 -99t-38.5 -115t50.5 -107.5t126.5 -42.5zM965 147q-182 -173 -408 -173t-346.5 102.5t-120.5 274.5t99.5 266
t148.5 132q-94 96 -136 173.5t-42 166.5q0 170 117 270t303 100t302 -97t116 -252t-108.5 -246t-160.5 -129l224 -217l206 289l202 -139l-229 -323l355 -345h-368z" />
    <glyph glyph-name="quotesingle" unicode="'" horiz-adv-x="723" 
d="M496 1475v-612h-268v612h268z" />
    <glyph glyph-name="parenleft" unicode="(" horiz-adv-x="864" 
d="M394 526q0 -163 104.5 -339.5t300.5 -268.5l-85 -239q-272 106 -436.5 348.5t-164.5 554.5t164.5 554t436.5 348l85 -239q-296 -141 -350.5 -348.5t-54.5 -370.5z" />
    <glyph glyph-name="parenright" unicode=")" horiz-adv-x="864" 
d="M470 582.5q0 218.5 -104.5 394.5t-299.5 269l85 239q270 -105 435.5 -347t165.5 -556q0 -313 -165 -554.5t-436 -346.5l-85 238q195 93 299.5 269t104.5 394.5z" />
    <glyph glyph-name="asterisk" unicode="*" horiz-adv-x="972" 
d="M388 1218l-4 257h206l-5 -257l242 84l64 -197l-245 -75l155 -204l-167 -121l-148 209l-146 -209l-167 121l154 204l-245 75l64 197z" />
    <glyph glyph-name="plus" unicode="+" 
d="M498 74v357h-355v228h355v358h233v-358h354v-228h-354v-357h-233z" />
    <glyph glyph-name="comma" unicode="," horiz-adv-x="546" 
d="M455 324l-144 -611h-225l69 611h300z" />
    <glyph glyph-name="hyphen" unicode="-" horiz-adv-x="832" 
d="M719 428h-605v234h605v-234z" />
    <glyph glyph-name="period" unicode="." horiz-adv-x="567" 
d="M285 372q40 0 75.5 -16t63 -43t43 -63t15.5 -76t-15.5 -76.5t-43 -64t-63 -43.5t-75.5 -16t-76.5 16t-63.5 43.5t-43.5 64t-16.5 76.5t16.5 76t43.5 63t63.5 43t76.5 16z" />
    <glyph glyph-name="slash" unicode="/" horiz-adv-x="1060" 
d="M242 -205h-283l869 1782h283z" />
    <glyph glyph-name="zero" unicode="0" 
d="M617 1194q-54 0 -104.5 -24t-89 -79.5t-61 -147t-22.5 -286.5t78 -306t200 -111q189 0 230 171t41 302t-22 221.5t-59.5 148.5t-87 84.5t-103.5 26.5zM1017.5 1270.5q156.5 -188.5 156.5 -558.5t-155 -554t-402 -184t-405 183.5t-158 559.5t157.5 559t403.5 183
t402.5 -188.5z" />
    <glyph glyph-name="one" unicode="1" 
d="M542 262v822l-357 -127v276l632 223v-1194h325v-262h-940v262h340z" />
    <glyph glyph-name="two" unicode="2" 
d="M588 1459q224 0 355 -127t131 -319t-81.5 -290.5t-125.5 -144.5l-306 -319h548v-259h-947v216l507 519q117 119 117 246q0 95 -61 154.5t-174 59.5q-114 0 -180.5 -63t-94.5 -95l-178 175q189 247 490 247z" />
    <glyph glyph-name="three" unicode="3" 
d="M571 1459q226 0 367 -112.5t141 -298.5q0 -226 -214 -326q114 -45 180 -128.5t66 -195.5q0 -206 -155.5 -315t-372.5 -109q-162 0 -290.5 54.5t-210.5 153.5l165 182q130 -138 314 -138q185 0 223.5 70t38.5 116q0 88 -78.5 138t-201.5 50h-167v246h168q174 0 212.5 68.5
t38.5 112.5q0 86 -67.5 133t-209 47t-251.5 -145l-174 175q165 222 478 222z" />
    <glyph glyph-name="four" unicode="4" 
d="M971 520h199v-258h-199v-262h-277v262h-636v201l503 970h307l-479 -913h305v382h277v-382z" />
    <glyph glyph-name="five" unicode="5" 
d="M828 438q0 202 -291 202h-341l15 794h824v-257h-580l-6 -287h164q240 0 371 -120.5t131 -310.5q0 -224 -149 -354.5t-374 -130.5q-317 0 -508 214l156 194q93 -103 197 -127.5t158 -24.5q110 0 171.5 59.5t61.5 148.5z" />
    <glyph glyph-name="six" unicode="6" 
d="M432 291q72 -66 180 -66q107 0 178.5 66t71.5 169t-71 169.5t-181 66.5q-108 0 -179 -66t-71 -169.5t72 -169.5zM653 939q216 0 356.5 -137t140.5 -344q0 -206 -154 -345t-385 -139t-384.5 137.5t-153.5 346.5q0 175 136 381l397 595h334l-353 -499q28 4 66 4z" />
    <glyph glyph-name="seven" unicode="7" 
d="M113 1176v258h1010v-216l-594 -1218h-325l590 1176h-681z" />
    <glyph glyph-name="eight" unicode="8" 
d="M615.5 1209q-101.5 0 -166.5 -48.5t-65 -136.5t65.5 -137t195.5 -49t166 71t36 116t-18 79.5t-65 69.5t-148.5 35zM427.5 559q-74.5 -51 -74.5 -143t74.5 -143.5t187.5 -51.5q178 0 220.5 72.5t42.5 120.5t-21 85t-75.5 74t-166.5 37q-113 0 -187.5 -51zM922 723
q254 -96 254 -349q0 -82 -44.5 -159t-120.5 -130.5t-178 -82t-278.5 -28.5t-338 113t-161.5 303q0 233 253 333q-218 104 -218 325q0 187 150 299t374.5 112t375.5 -112t151 -299q0 -225 -219 -325z" />
    <glyph glyph-name="nine" unicode="9" 
d="M616 737q54 0 100.5 17.5t80 49t52.5 74.5t19 95t-19 95.5t-52.5 74.5t-79.5 48t-100 17t-100 -17t-79.5 -48t-52 -74.5t-18.5 -95.5t18.5 -95t52 -74.5t79 -49t99.5 -17.5zM575 495q-216 0 -356 136.5t-140 342.5t153.5 345.5t384.5 139.5t385 -137.5t154 -329.5
t-136 -397l-397 -595h-334l351 499q-28 -4 -65 -4z" />
    <glyph glyph-name="colon" unicode=":" horiz-adv-x="567" 
d="M285 372q40 0 75.5 -16t63 -43t43 -63t15.5 -76t-15.5 -76.5t-43 -64t-63 -43.5t-75.5 -16t-76.5 16t-63.5 43.5t-43.5 64t-16.5 76.5t16.5 76t43.5 63t63.5 43t76.5 16zM285 1019q40 0 75.5 -16t63 -43t43 -63t15.5 -76t-15.5 -76t-43 -64t-63 -43.5t-75.5 -15.5
t-76.5 15.5t-63.5 43.5t-43.5 64t-16.5 76t16.5 76t43.5 63t63.5 43t76.5 16z" />
    <glyph glyph-name="semicolon" unicode=";" horiz-adv-x="546" 
d="M455 324l-144 -611h-225l69 611h300zM291 1019q40 0 75.5 -16t63 -43t43 -63t15.5 -76t-15.5 -76t-43 -64t-63 -43.5t-75.5 -15.5t-76.5 15.5t-63.5 43.5t-43.5 64t-16.5 76t16.5 76t43.5 63t63.5 43t76.5 16z" />
    <glyph glyph-name="less" unicode="&#x3c;" 
d="M1034 31l-838 390v249l838 390v-266l-584 -248l584 -249v-266z" />
    <glyph glyph-name="equal" unicode="=" 
d="M1085 648h-942v229h942v-229zM1085 214h-942v228h942v-228z" />
    <glyph glyph-name="greater" unicode="&#x3e;" 
d="M196 1060l838 -390v-249l-838 -390v266l584 248l-584 249v266z" />
    <glyph glyph-name="question" unicode="?" horiz-adv-x="912" 
d="M436 307q58 -58 58 -136t-58 -137.5t-136.5 -59.5t-137 58.5t-58.5 137.5t58 137t137 58t137 -58zM319 1464q257 0 405.5 -113.5t148.5 -301.5q0 -187 -113.5 -297.5t-328.5 -144.5l-8 -118h-247v349h98q305 0 305 182q0 83 -77 126.5t-224 43.5q-68 0 -156 -8l-20 269
q93 13 217 13z" />
    <glyph glyph-name="at" unicode="@" horiz-adv-x="1980" 
d="M792 512q0 -88 51 -145.5t135 -57.5q83 0 135 57.5t52 145.5t-51.5 145.5t-135.5 57.5q-83 0 -134.5 -57.5t-51.5 -145.5zM1161 899h215v-441q0 -87 20.5 -127.5t72.5 -40.5q151 0 151 262t-177 429.5t-451.5 167.5t-450.5 -177.5t-176 -460.5q0 -284 174 -461.5
t446 -177.5q225 0 389 117l122 -165q-219 -158 -511 -158q-245 0 -491 138.5t-304 362t-58 375.5t63.5 305.5t177.5 266.5t271.5 176.5t315.5 63.5t270.5 -28.5t256.5 -105.5t253 -260t109 -397t-105.5 -344t-290.5 -130q-186 0 -259 136q-90 -122 -254 -122t-269.5 116.5
t-105.5 292t105.5 292.5t255.5 117t235 -103v81z" />
    <glyph glyph-name="A" unicode="A" horiz-adv-x="1507" 
d="M543 597h414l-206 554zM1486 0h-305l-125 334h-612l-125 -334h-297l558 1434h348z" />
    <glyph glyph-name="B" unicode="B" horiz-adv-x="1417" 
d="M449 1182v-335h292q123 0 168.5 25.5t65 58.5t19.5 84q0 93 -68 130t-186 37h-291zM449 596v-344l320 -1q130 0 175.5 27.5t63.5 61.5t18 84q0 96 -63.5 134t-193.5 38h-320zM749 1434q395 0 469 -148t74 -226q0 -131 -57.5 -212t-150.5 -116q103 -34 171 -122t68 -195
q0 -207 -139 -311t-401 -104h-620v1434h586z" />
    <glyph glyph-name="C" unicode="C" horiz-adv-x="1546" 
d="M845 248q238 0 374 196l233 -168q-150 -219 -328.5 -261t-310.5 -42t-270.5 55.5t-238 155t-155 235.5t-55.5 378.5t210 452.5t543 210q197 0 360.5 -84.5t253.5 -236.5l-246 -151q-130 198 -370 198q-195 0 -324 -131t-129 -340t129 -338t324 -129z" />
    <glyph glyph-name="D" unicode="D" horiz-adv-x="1592" 
d="M449 1166v-899h302q218 0 333 123.5t115 326.5q0 317 -167.5 383t-280.5 66h-302zM754 1434q334 0 539 -195.5t205 -521t-204 -521.5t-540 -196h-591v1434h591z" />
    <glyph glyph-name="E" unicode="E" horiz-adv-x="1363" 
d="M1234 0h-1071v1434h1063v-263h-777v-317h741v-262h-741v-330h785v-262z" />
    <glyph glyph-name="F" unicode="F" horiz-adv-x="1312" 
d="M1167 581h-718v-581h-286v1434h1052v-264h-766v-326h718v-263z" />
    <glyph glyph-name="G" unicode="G" horiz-adv-x="1638" 
d="M1544 715q0 -326 -198 -533.5t-506 -207.5t-527 205t-219 561q0 140 56.5 276t213 290t492.5 154t539 -220l-206 -202q-130 151 -336 151q-207 0 -335 -132t-128 -344q0 -211 128.5 -341.5t311.5 -130.5q357 0 415 316h-364v239h659q4 -40 4 -81z" />
    <glyph glyph-name="H" unicode="H" horiz-adv-x="1587" 
d="M449 856h690v578h285v-1434h-285v590h-690v-590h-286v1434h286v-578z" />
    <glyph glyph-name="I" unicode="I" horiz-adv-x="611" 
d="M449 0h-286v1434h286v-1434z" />
    <glyph glyph-name="J" unicode="J" horiz-adv-x="1156" 
d="M716 549v885h285v-912q0 -263 -141 -405.5t-374 -142.5q-232 0 -330 81.5t-126 117.5l166 208q108 -133 278 -133q114 0 178 72.5t64 228.5z" />
    <glyph glyph-name="K" unicode="K" horiz-adv-x="1458" 
d="M449 590v-590h-286v1434h286v-581h135l474 581h358l-601 -700l646 -734h-370l-510 590h-132z" />
    <glyph glyph-name="L" unicode="L" horiz-adv-x="1239" 
d="M1206 0h-1043v1434h286v-1167h757v-267z" />
    <glyph glyph-name="M" unicode="M" horiz-adv-x="1907" 
d="M1745 0h-286v1082l-354 -944h-302l-354 936v-1074h-286v1434h419l372 -968l372 968h419v-1434z" />
    <glyph glyph-name="N" unicode="N" horiz-adv-x="1607" 
d="M1445 0h-268l-727 957l-1 -957h-286v1434h267l728 -958v958h287v-1434z" />
    <glyph glyph-name="O" unicode="O" horiz-adv-x="1694" 
d="M392 716.5q0 -208.5 128.5 -338.5t327.5 -130q198 0 326 130t128 338.5t-128.5 339t-325.5 130.5t-326.5 -130.5t-129.5 -339zM847 1460q166 0 304 -55.5t238 -155t156 -235.5t56 -297t-56 -297t-156 -235.5t-238 -155.5t-304 -56t-304.5 56t-238 155.5t-155 235.5
t-55.5 297t55.5 297t155 235.5t238 155t304.5 55.5z" />
    <glyph glyph-name="P" unicode="P" horiz-adv-x="1352" 
d="M742 785q237 1 237 193t-237 192h-293v-385h293zM449 524v-524h-286v1434h585q252 0 388 -122.5t136 -333.5q0 -210 -136.5 -332t-385.5 -122h-301z" />
    <glyph glyph-name="Q" unicode="Q" horiz-adv-x="1704" 
d="M1302 719q0 206 -128.5 336.5t-325.5 130.5t-326.5 -130.5t-129.5 -339t128.5 -338.5t326.5 -130q131 0 242 63l-262 348h342l99 -133q34 91 34 193zM94 717q0 322 210.5 532.5t541.5 210.5t543 -210.5t212 -532.5q0 -252 -145 -445l202 -272h-336l-67 88
q-182 -115 -408 -115q-331 0 -542 211t-211 533z" />
    <glyph glyph-name="R" unicode="R" horiz-adv-x="1392" 
d="M1000 997q0 173 -236 173h-315v-351h315q236 0 236 178zM769 1434q253 0 389 -113.5t136 -307.5t-116.5 -305.5t-322.5 -133.5l441 -574h-346l-418 570h-83v-570h-286v1434h606z" />
    <glyph glyph-name="S" unicode="S" horiz-adv-x="1385" 
d="M1136 1072q-199 122 -398 122q-198 0 -240.5 -66t-42.5 -106q0 -73 76.5 -108.5t219.5 -57.5l80 -13q457 -71 457 -402q0 -226 -170.5 -346.5t-424.5 -120.5t-396 71t-200 117l149 230q194 -154 456 -154q194 0 238 65t44 105q0 73 -69.5 107.5t-234.5 63.5l-91 14
q-316 50 -376.5 181.5t-60.5 236.5t46.5 190t164 171t360.5 86q154 0 282.5 -36t265.5 -116z" />
    <glyph glyph-name="T" unicode="T" horiz-adv-x="1240" 
d="M1207 1166h-444v-1166h-286v1166h-444v268h1174v-268z" />
    <glyph glyph-name="U" unicode="U" horiz-adv-x="1527" 
d="M1381 572q0 -290 -168.5 -444t-449.5 -154t-449 155t-168 443v862h287v-847q0 -255 128.5 -297t242 -42t202.5 84t89 255v847h286v-862z" />
    <glyph glyph-name="V" unicode="V" horiz-adv-x="1467" 
d="M907 0h-347l-538 1434h304l410 -1144l413 1144h297z" />
    <glyph glyph-name="W" unicode="W" horiz-adv-x="2232" 
d="M1769 0h-346l-307 1024l-307 -1024h-346l-428 1434h297l308 -1100l321 1100h316l320 -1100l309 1100h292z" />
    <glyph glyph-name="X" unicode="X" horiz-adv-x="1388" 
d="M866 728l491 -728h-335l-330 511l-331 -511h-329l489 728l-476 706h336l315 -492l318 492h329z" />
    <glyph glyph-name="Y" unicode="Y" horiz-adv-x="1394" 
d="M844 0h-286v566l-552 868h336l360 -609l361 609h326l-545 -869v-565z" />
    <glyph glyph-name="Z" unicode="Z" horiz-adv-x="1318" 
d="M1222 263v-263h-1125v223l745 947h-743v264h1123v-224l-745 -947h745z" />
    <glyph glyph-name="bracketleft" unicode="[" horiz-adv-x="784" 
d="M719 -269h-556v1703h556v-242h-285v-1220h285v-241z" />
    <glyph glyph-name="backslash" unicode="\" horiz-adv-x="1060" 
d="M-50 1577h282l870 -1782h-283z" />
    <glyph glyph-name="bracketright" unicode="]" horiz-adv-x="784" 
d="M66 1434h556v-1703h-556v241h284v1220h-284v242z" />
    <glyph glyph-name="asciicircum" unicode="^" 
d="M124 650l365 784h250l366 -784h-274l-220 518l-220 -518h-267z" />
    <glyph glyph-name="underscore" unicode="_" horiz-adv-x="962" 
d="M968 -323h-973v218h973v-218z" />
    <glyph glyph-name="grave" unicode="`" horiz-adv-x="1024" 
d="M520 1135l-270 322h319l206 -322h-255z" />
    <glyph glyph-name="a" unicode="a" horiz-adv-x="1257" 
d="M352 496q0 -117 71 -195t185 -78t185 78t71 195.5t-70 195.5t-186 78q-114 0 -185 -78.5t-71 -195.5zM856 992h261v-992h-261v110q-111 -136 -306 -136t-333 149.5t-138 373.5t138 373t334 149t305 -136v109z" />
    <glyph glyph-name="b" unicode="b" horiz-adv-x="1256" 
d="M393 496.5q0 -118.5 71.5 -196t185.5 -77.5t184 78.5t70 194.5t-70 195t-185 79q-113 0 -184.5 -77.5t-71.5 -196zM407 889q110 130 302 130t331 -149.5t139 -373t-138 -373t-333 -149.5t-307 136v-110h-261v1475h267v-586z" />
    <glyph glyph-name="c" unicode="c" horiz-adv-x="1057" 
d="M1006 161q-148 -187 -391 -187t-389.5 148t-146.5 375.5t147 374.5t392 147t387 -188l-193 -160q-93 99 -205 99t-184 -76t-72 -197t71 -197.5t185 -76.5t208 101z" />
    <glyph glyph-name="d" unicode="d" horiz-adv-x="1257" 
d="M352 496q0 -117 71 -195t185 -78t185 78t71 195.5t-70 195.5t-186 78q-114 0 -185 -78.5t-71 -195.5zM856 110q-111 -136 -306 -136t-333 149.5t-138 373.5t138 373t331 149t303 -130v586h266v-1475h-261v110z" />
    <glyph glyph-name="e" unicode="e" horiz-adv-x="1140" 
d="M575 788q-91 0 -146.5 -52.5t-73.5 -145.5h440q-37 198 -220 198zM1017 125q-165 -151 -408 -151t-386.5 143.5t-143.5 376.5t140 379t358 146t352 -145t134 -376q0 -48 -5 -90h-704q19 -102 86.5 -154t168.5 -52q139 0 251 95z" />
    <glyph glyph-name="f" unicode="f" horiz-adv-x="869" 
d="M611 1251q-117 0 -116 -139v-120h308v-237h-308v-755h-268v755h-185v237h185v123q0 273 134.5 329t228.5 56q162 0 298 -89l-107 -208q-89 48 -170 48z" />
    <glyph glyph-name="g" unicode="g" horiz-adv-x="1245" 
d="M422.5 327q69.5 -75 180.5 -75t180 73.5t69 187t-69.5 187t-180.5 73.5q-109 0 -179 -74t-70 -185.5t69.5 -186.5zM841 140q-110 -134 -301 -134t-326 142t-135 364t135 364.5t327 142.5q191 0 302 -137v110h262v-910q0 -238 -144.5 -374.5t-391.5 -136.5q-186 0 -289 45
t-145 75l95 218q156 -102 341 -102t227.5 99.5t42.5 164.5v69z" />
    <glyph glyph-name="h" unicode="h" horiz-adv-x="1210" 
d="M408 886q95 133 275 133t287.5 -107.5t107.5 -279.5v-632h-267v546q0 109 -50.5 165.5t-143.5 56.5q-143 0 -176 -84t-33 -140v-544h-268v1476h268v-590z" />
    <glyph glyph-name="i" unicode="i" horiz-adv-x="547" 
d="M408 0h-268v992h268v-992zM272 1489q72 1 122 -49t49 -122q0 -72 -49 -122q-50 -49 -122 -49t-121 49t-49 121q0 112 103 159q31 13 67 13z" />
    <glyph glyph-name="j" unicode="j" horiz-adv-x="551" 
d="M65 -182q79 0 79 103v1071h268v-1086q0 -158 -83 -247q-83 -90 -226 -90q-92 0 -150 27l40 234q34 -12 72 -12zM275 1489q74 1 123 -49q48 -50 48 -122t-49 -122q-49 -49 -121 -49t-122 49q-49 49 -49 121q0 112 103 159q31 13 67 13z" />
    <glyph glyph-name="k" unicode="k" horiz-adv-x="1121" 
d="M408 639h94l279 353h328l-391 -467l394 -525h-329l-285 401h-90v-401h-268v1475h268v-836z" />
    <glyph glyph-name="l" unicode="l" horiz-adv-x="547" 
d="M408 0h-268v1475h268v-1475z" />
    <glyph glyph-name="m" unicode="m" horiz-adv-x="1880" 
d="M1748 632v-632h-266v546q0 109 -51.5 165.5t-142.5 56.5q-142 0 -176 -84t-34 -140v-544h-267v546q0 109 -50.5 165.5t-143.5 56.5q-143 0 -176 -84t-33 -140v-544h-268v992h260v-116q96 143 292 143q109 0 193.5 -45t134.5 -125q105 170 337 170q174 0 282.5 -106.5
t108.5 -280.5z" />
    <glyph glyph-name="n" unicode="n" horiz-adv-x="1210" 
d="M400 876q96 143 279 143q184 0 291.5 -107.5t107.5 -279.5v-632h-267v546q0 109 -50.5 165.5t-143.5 56.5q-143 0 -176 -84t-33 -140v-544h-268v992h260v-116z" />
    <glyph glyph-name="o" unicode="o" horiz-adv-x="1229" 
d="M614.5 770q-56.5 0 -104.5 -20t-83.5 -56.5t-55.5 -86.5t-20 -110.5t20 -110.5t55.5 -86.5t83.5 -56.5t104.5 -20t105 20t84 56.5t55.5 86.5t20 110.5t-20 110.5t-55.5 86.5t-84 56.5t-105 20zM999.5 870q152.5 -149 152.5 -373q0 -223 -152 -373t-385 -150t-384.5 150
t-151.5 373t151.5 372.5t384 149.5t385 -149z" />
    <glyph glyph-name="p" unicode="p" horiz-adv-x="1256" 
d="M393 496.5q0 -118.5 71.5 -196t185.5 -77.5t184 78.5t70 194.5t-70 195t-185 79q-113 0 -184.5 -77.5t-71.5 -196zM401 883q109 136 305 136t334.5 -149.5t138.5 -373t-138 -373t-331 -149.5q-194 0 -303 129v-513h-267v1402h261v-109z" />
    <glyph glyph-name="q" unicode="q" horiz-adv-x="1257" 
d="M352 496q0 -117 71 -195t185 -78t185 78t71 195.5t-70 195.5t-186 78q-114 0 -185 -78.5t-71 -195.5zM851 103q-109 -129 -303 -129t-331.5 149.5t-137.5 373.5t138 373t334 149t305 -136v109h261v-1402h-266v513z" />
    <glyph glyph-name="r" unicode="r" horiz-adv-x="860" 
d="M636 764q-228 0 -228 -223v-541h-268v992h259v-108q89 135 280 135q85 0 139 -22l-40 -265q-76 32 -142 32z" />
    <glyph glyph-name="s" unicode="s" horiz-adv-x="1038" 
d="M422 650.5q39 -16.5 123 -28.5l88 -14q335 -52 335 -297q0 -154 -121.5 -245.5t-334.5 -91.5q-276 0 -441 117l105 203q141 -97 331 -97t190 93q0 36 -38.5 57.5t-126.5 33.5l-80 11q-343 47 -343 301q0 153 111 239t320 86q210 0 402 -94l-90 -208q-174 81 -316 81
q-77 0 -115 -24.5t-38 -65.5q0 -40 39 -56.5z" />
    <glyph glyph-name="t" unicode="t" horiz-adv-x="955" 
d="M233 371v384h-191v237h191v295h268v-295h359v-237h-359v-363q0 -128 58.5 -148.5t89.5 -20.5q80 0 187 65l98 -209q-154 -105 -334 -105t-273.5 101.5t-93.5 295.5z" />
    <glyph glyph-name="u" unicode="u" horiz-adv-x="1203" 
d="M1071 423q0 -222 -134.5 -335.5t-334.5 -113.5t-335 113.5t-135 335.5v569h267v-546q0 -168 80 -195.5t146.5 -27.5t123 54.5t56.5 168.5v546h266v-569z" />
    <glyph glyph-name="v" unicode="v" horiz-adv-x="1125" 
d="M719 0h-308l-393 992h291l257 -710l259 710h282z" />
    <glyph glyph-name="w" unicode="w" horiz-adv-x="1773" 
d="M1253 296l213 696h280l-336 -992h-305l-220 671l-218 -671h-303l-336 992h284l212 -693l222 693h282z" />
    <glyph glyph-name="x" unicode="x" horiz-adv-x="1124" 
d="M735 505l362 -505h-318l-223 315l-219 -315h-309l364 504l-355 488h317l214 -308l213 308h310z" />
    <glyph glyph-name="y" unicode="y" horiz-adv-x="1155" 
d="M387 -414h-293l347 625l-428 781h303l273 -510l264 510h293z" />
    <glyph glyph-name="z" unicode="z" horiz-adv-x="1064" 
d="M967 239v-239h-869v193l501 562h-483v237h839v-195l-489 -558h501z" />
    <glyph glyph-name="braceleft" unicode="{" horiz-adv-x="902" 
d="M770 1196q-139 0 -163.5 -71t-22.5 -116l4 -97q5 -119 -44 -203t-171 -126q228 -82 215 -330l-4 -96q-6 -136 68 -162t118 -26h67v-237h-88q-220 0 -333 118.5t-103 323.5l4 100q4 92 -54.5 141.5t-165.5 49.5v234q106 0 165.5 49.5t54.5 142.5l-4 100q-10 205 103.5 324
t332.5 119h88v-238h-67z" />
    <glyph glyph-name="bar" unicode="|" horiz-adv-x="723" 
d="M496 -271h-268v1705h268v-1705z" />
    <glyph glyph-name="braceright" unicode="}" horiz-adv-x="902" 
d="M132 -31q139 0 164 71.5t22 116.5l-4 96q-13 248 215 330q-228 82 -215 329l4 97q6 135 -68 161t-118 26h-66v238h88q218 0 330.5 -118t104.5 -325l-4 -100q-4 -92 54.5 -141.5t165.5 -49.5v-234q-106 0 -165 -49t-55 -143l4 -100q13 -317 -156 -379.5t-279 -62.5h-88
v237h66z" />
    <glyph glyph-name="asciitilde" unicode="~" 
d="M805 389q-102 0 -182.5 31.5t-121 45.5t-87.5 14q-71 0 -164 -89l-129 163q120 146 303 146q104 0 184 -31t120 -45.5t99 -14.5t153 89l129 -162q-121 -147 -304 -147z" />
    <glyph glyph-name="uni00A0" unicode="&#xa0;" horiz-adv-x="506" 
 />
    <glyph glyph-name="exclamdown" unicode="&#xa1;" horiz-adv-x="568" 
d="M284 630q-39 0 -74 15t-61.5 42t-42.5 62t-16 74t16 74.5t42.5 62.5t61.5 43t74 16t74 -16t62 -43t43 -62.5t16 -74.5t-16 -74t-43 -62t-62 -42t-74 -15zM162 501h246l36 -941h-319z" />
    <glyph glyph-name="cent" unicode="&#xa2;" horiz-adv-x="1433" 
d="M505 716q0 -90 40.5 -154t107.5 -97v504q-68 -33 -108 -98t-40 -155zM881 0h-228v209q-188 38 -300 177t-112 331.5t112 329.5t300 177v210h228v-203q193 -30 314 -178l-182 -156q-64 62 -132 85v-530q78 27 137 86l177 -158q-120 -149 -314 -177v-203z" />
    <glyph glyph-name="sterling" unicode="&#xa3;" horiz-adv-x="1433" 
d="M867 1195q-185 0 -225 -115t-40 -198v-54h495v-223h-495v-346h650v-259h-1089v259h164v346h-164v223h164v66q0 271 152 418t394 147t392 -150l-185 -196q-82 82 -213 82z" />
    <glyph glyph-name="currency" unicode="&#xa4;" horiz-adv-x="1433" 
d="M916 915q-81 81 -198 81t-199 -80t-82 -198.5t81.5 -200t199.5 -81.5t198.5 82.5t80.5 199t-81 197.5zM714.5 1209q141.5 0 267.5 -76l156 156l150 -151l-155 -156q77 -121 77 -264t-77 -267l156 -155l-150 -152l-157 156q-122 -77 -265.5 -77t-265.5 78l-155 -157
l-151 152l156 155q-77 121 -77 265t77 265l-157 157l151 151l157 -157q121 77 262.5 77z" />
    <glyph glyph-name="yen" unicode="&#xa5;" horiz-adv-x="1433" 
d="M1235 275h-373v-275h-276v275h-374v190h374v138h-374v190h286l-435 641h323l338 -525l332 525h315l-426 -641h290v-190h-373v-138h373v-190z" />
    <glyph glyph-name="brokenbar" unicode="&#xa6;" horiz-adv-x="723" 
d="M496 -271h-268v710h268v-710zM496 723h-268v711h268v-711z" />
    <glyph glyph-name="section" unicode="&#xa7;" horiz-adv-x="1334" 
d="M540 712q-105 -41 -105 -131q0 -91 108 -111t170 -30l69 -10q21 -3 56 -10q99 41 99 136q0 86 -105 107.5t-170 30.5l-80 11q-11 2 -21.5 3.5t-20.5 3.5zM459 1078q0 -61 72.5 -90.5t204.5 -46.5l71 -10q291 -42 351 -152t60 -185q0 -169 -145 -268q120 -92 120 -239
q0 -202 -155 -308t-382 -106t-357.5 58.5t-181.5 97.5l134 216q186 -129 411 -129q172 0 211 52t39 85q0 60 -65 88.5t-210 48.5l-77 12q-289 40 -346.5 153.5t-57.5 234t143 217.5q-120 91 -120 261t146 280.5t389 110.5t476 -129l-121 -218q-179 103 -357 103
t-215.5 -52.5t-37.5 -84.5z" />
    <glyph glyph-name="dieresis" unicode="&#xa8;" horiz-adv-x="1095" 
d="M766 1458q36 0 67.5 -13t54.5 -36.5t36.5 -55t13.5 -67.5t-13.5 -67t-36.5 -54t-54.5 -36t-67.5 -13t-67 13t-54 36t-36 54t-13 67t13 67.5t36 55t54 36.5t67 13zM324.5 1458q35.5 0 67.5 -13t55 -36.5t36.5 -55t13.5 -67.5t-13.5 -67t-36.5 -54t-55 -36t-67.5 -13
t-67 13t-54.5 36t-35.5 54t-12.5 67t12.5 67.5t35.5 55t54.5 36.5t67 13z" />
    <glyph glyph-name="copyright" unicode="&#xa9;" horiz-adv-x="1909" 
d="M968 945q-86 0 -141.5 -61.5t-55.5 -161.5q0 -99 58 -155t140 -56q115 0 184 104l180 -128q-125 -187 -362 -187q-188 0 -309.5 119.5t-121.5 308.5t121 308.5t307 119.5q187 0 267 -79t106 -128l-193 -108q-61 104 -180 104zM955 1329q-126 0 -236.5 -47t-193 -128.5
t-130 -191t-47.5 -234.5t47.5 -235t130 -192t193 -129t236.5 -47t236.5 47t192.5 129t130 192t48 235t-48 234.5t-130 191t-192.5 128.5t-236.5 47zM955.5 1555q116.5 0 224 -29.5t201.5 -83t170.5 -129.5t131 -168t84.5 -197.5t30 -219.5t-30 -220t-84.5 -198t-131 -167.5
t-170.5 -130t-201.5 -84t-224 -29.5t-224 29.5t-249.5 112t-255.5 272t-113.5 415.5q0 225 144 466t363 301t335.5 60z" />
    <glyph glyph-name="ordfeminine" unicode="&#xaa;" horiz-adv-x="813" 
d="M361 731q94 0 160 77v79h-133q-66 0 -93 -24t-27 -54t22 -54t71 -24zM386 1318q237 0 284 -116.5t47 -193.5v-416h-192v70q-87 -89 -208 -89t-188 63t-67 164t79 159.5t217 58.5h158q-10 126 -151 126q-102 0 -193 -66l-77 151q117 89 291 89z" />
    <glyph glyph-name="guillemotleft" unicode="&#xab;" horiz-adv-x="1113" 
d="M557 145h-269l-198 400l198 399h269l-198 -399zM1017 145h-269l-198 400l198 399h269l-198 -399z" />
    <glyph glyph-name="logicalnot" unicode="&#xac;" 
d="M1085 659v-548h-233v320h-709v228h942z" />
    <glyph glyph-name="uni00AD" unicode="&#xad;" horiz-adv-x="832" 
d="M719 428h-605v234h605v-234z" />
    <glyph glyph-name="registered" unicode="&#xae;" horiz-adv-x="1032" 
d="M540 1044q55 0 55 36t-55 37h-83v-73h83zM542 1221q87 0 131 -38.5t44 -94.5q0 -111 -122 -136l127 -147h-141l-114 143h-10v-143h-120v416h205zM844 1012.5q0 137.5 -97 233t-232 95.5t-231.5 -96.5t-96.5 -232t96.5 -232t231.5 -96.5t232 95.5t97 233zM516 1478
q199 0 338.5 -136t139.5 -329t-139.5 -329t-338.5 -136t-338.5 136t-139.5 329t139.5 329t338.5 136z" />
    <glyph glyph-name="macron" unicode="&#xaf;" horiz-adv-x="1079" 
d="M201 1393h678v-214h-678v214z" />
    <glyph glyph-name="degree" unicode="&#xb0;" horiz-adv-x="878" 
d="M568 931.5q53 54.5 53 129.5t-53 130t-129 55t-129 -54.5t-53 -130.5q0 -77 53.5 -130.5t129 -53.5t128.5 54.5zM155 783q-117 115 -117 280t117.5 280.5t284.5 115.5t284 -117t117 -279t-116.5 -278.5t-284.5 -116.5t-285 115z" />
    <glyph glyph-name="plusminus" unicode="&#xb1;" 
d="M1085 0h-942v228h942v-228zM498 325v265h-355v228h355v330h233v-330h354v-228h-354v-265h-233z" />
    <glyph glyph-name="twosuperior" unicode="&#xb2;" horiz-adv-x="742" 
d="M371 1448q129 0 212 -73t83 -192q0 -118 -75 -201q-25 -30 -60 -63l-147 -141h301v-186h-587v158l296 281q62 59 62 114t-30 83q-32 28 -84 28q-81 -1 -166 -89l-122 132q113 149 317 149z" />
    <glyph glyph-name="threesuperior" unicode="&#xb3;" horiz-adv-x="747" 
d="M341 1448q141 0 230 -67t87 -176q0 -131 -123 -189q140 -56 141 -184t-95 -191q-96 -64 -215 -64q-218 0 -324 123l113 131q74 -76 173 -76t129 49q10 16 10 38t-12 40q-36 50 -136 49h-96v171h99q88 0 119 49q10 16 10 37q0 80 -111 81t-182 -78l-113 130
q111 127 296 127z" />
    <glyph glyph-name="acute" unicode="&#xb4;" horiz-adv-x="1024" 
d="M250 1135l206 322h319l-270 -322h-255z" />
    <glyph glyph-name="mu" unicode="&#xb5;" horiz-adv-x="1210" 
d="M391 -410h-259v1402h267v-546q0 -109 51 -165.5t143 -56.5q142 0 176 84t34 141v543h267v-992h-260v117q-97 -144 -292 -144q-69 0 -127 19v-402z" />
    <glyph glyph-name="paragraph" unicode="&#xb6;" horiz-adv-x="1319" 
d="M885 1434h207v-1434h-207v1434zM233.5 1320q119.5 109 338.5 113v1h207v-1434h-207v609q-219 4 -338.5 114t-119.5 299t119.5 298z" />
    <glyph glyph-name="periodcentered" unicode="&#xb7;" horiz-adv-x="686" 
d="M344 743q40 0 76 -15.5t63 -43t43 -63t16 -75.5t-16 -76.5t-43 -64t-63 -43.5t-76 -16t-76.5 16t-63.5 43.5t-43.5 64t-16.5 76.5t16.5 75.5t43.5 63t63.5 43t76.5 15.5z" />
    <glyph glyph-name="cedilla" unicode="&#xb8;" horiz-adv-x="891" 
d="M522 -329h-258l114 336h250z" />
    <glyph glyph-name="onesuperior" unicode="&#xb9;" horiz-adv-x="566" 
d="M433 592h-202v578l-189 -69v196l391 150v-855z" />
    <glyph glyph-name="ordmasculine" unicode="&#xba;" horiz-adv-x="889" 
d="M316.5 1080q-51.5 -53 -51.5 -134t51 -134t129 -53q121 0 151 72.5t30 114.5t-14 76t-51.5 72.5t-115.5 38.5q-77 0 -128.5 -53zM445 1318q83 0 153 -28t121 -78t79.5 -118t28.5 -148t-28.5 -148t-79.5 -118t-121 -78.5t-153 -28.5t-153 28.5t-121 78.5t-80 118t-29 148
t29 148t80 118t121 78t153 28z" />
    <glyph glyph-name="guillemotright" unicode="&#xbb;" horiz-adv-x="1113" 
d="M556 945h269l198 -399l-198 -400h-269l198 400zM96 945h270l197 -399l-197 -400h-270l198 400z" />
    <glyph glyph-name="onequarter" unicode="&#xbc;" horiz-adv-x="1750" 
d="M433 592h-202v578l-189 -69v196l391 150v-855zM1611 323h106v-182h-106v-141h-202v141h-377v142l278 558h221l-261 -518h139v103l61 123h141v-226zM509 0h-247l904 1434h247z" />
    <glyph glyph-name="onehalf" unicode="&#xbd;" horiz-adv-x="1824" 
d="M433 592h-202v578l-189 -69v196l391 150v-855zM1747 585q0 -74 -32.5 -134.5t-101.5 -123.5l-148 -141h301v-186h-586v158l296 281q62 59 62 114t-31 83t-83 28q-80 0 -167 -89l-121 133q112 148 316 148q132 0 213.5 -74t81.5 -197zM509 0h-247l904 1434h247z" />
    <glyph glyph-name="threequarters" unicode="&#xbe;" horiz-adv-x="1903" 
d="M341 1448q139 0 228 -66t89 -188t-123 -178q142 -56 142 -183t-96.5 -191.5t-214.5 -64.5q-218 0 -324 123l113 131q74 -76 172 -76t119 32.5t21 54.5q0 42 -42 65.5t-106 23.5h-96v171h99q88 0 108.5 32.5t20.5 63.5t-33 51.5t-85 20.5q-106 0 -175 -79l-113 130
q111 127 296 127zM1764 323h107v-182h-107v-141h-201v141h-377v142l277 558h221l-261 -518h140v103l61 123h140v-226zM663 0h-247l904 1434h247z" />
    <glyph glyph-name="questiondown" unicode="&#xbf;" horiz-adv-x="912" 
d="M476 687.5q-57 58.5 -57 135.5t58 136.5t135.5 59.5t136.5 -59t59 -137t-58 -136t-137.5 -58t-136.5 58.5zM593 -471q-257 0 -405.5 114.5t-148.5 300.5q0 370 442 442l8 118h247v-348h-98q-304 0 -304 -183q0 -170 301 -170q57 0 156 9l19 -270q-93 -13 -217 -13z" />
    <glyph glyph-name="Agrave" unicode="&#xc0;" horiz-adv-x="1507" 
d="M543 597h414l-206 554zM1486 0h-305l-125 334h-612l-125 -334h-297l558 1434h348zM401 1877h320l206 -323h-255z" />
    <glyph glyph-name="Aacute" unicode="&#xc1;" horiz-adv-x="1507" 
d="M543 597h414l-206 554zM1486 0h-305l-125 334h-612l-125 -334h-297l558 1434h348zM566 1554l206 323h320l-271 -323h-255z" />
    <glyph glyph-name="Acircumflex" unicode="&#xc2;" horiz-adv-x="1507" 
d="M543 597h414l-206 554zM1486 0h-305l-125 334h-612l-125 -334h-297l558 1434h348zM880 1544l-126 157l-125 -157h-259l223 323h322l224 -323h-259z" />
    <glyph glyph-name="Atilde" unicode="&#xc3;" horiz-adv-x="1507" 
d="M543 597h414l-206 554zM1486 0h-305l-125 334h-612l-125 -334h-297l558 1434h348zM621 1854q82 0 138 -24t80 -36t48 -11q55 0 127 68l142 -152q-104 -135 -269 -135q-79 0 -136 24t-81 36t-49 11q-56 0 -127 -67l-142 152q102 134 269 134z" />
    <glyph glyph-name="Adieresis" unicode="&#xc4;" horiz-adv-x="1507" 
d="M543 597h414l-206 554zM1486 0h-305l-125 334h-612l-125 -334h-297l558 1434h348zM974 1878q74 0 123 -50t49 -123t-50 -121t-121 -48q-72 0 -121 48q-50 48 -50 122q0 114 103 159q31 13 67 13zM532 1878q75 0 123 -49t49 -104q2 -55 -12 -86t-37 -54t-55 -36t-68 -13
t-67 13t-54 36q-49 49 -49 121q0 112 103 159q31 13 67 13z" />
    <glyph glyph-name="Aring" unicode="&#xc5;" horiz-adv-x="1507" 
d="M543 597h414l-206 554zM1486 0h-305l-125 334h-612l-125 -334h-297l558 1434h348zM645 1775q0 -34 32 -68q31 -33 65 -33q82 0 112 68q18 41 5 74q-14 33 -29 48q-52 52 -118 24q-67 -32 -67 -113zM753 1522q-55 0 -104 20q-97 40 -143 140q-21 48 -21 103q0 111 79 186
q78 78 188 78t190 -77q80 -78 80 -188t-79 -186q-78 -76 -190 -76z" />
    <glyph glyph-name="AE" unicode="&#xc6;" horiz-adv-x="2358" 
d="M1157 564v556l-397 -556h397zM2228 0h-1071v301h-585l-214 -301h-341l1038 1434h1165v-263h-777v-317h741v-262h-741v-330h785v-262z" />
    <glyph glyph-name="Ccedilla" unicode="&#xc7;" horiz-adv-x="1546" 
d="M845 248q238 0 374 196l233 -168q-148 -215 -418 -282q-30 -7 -61 -11l-97 -312h-274l107 313q-242 39 -404 199q-209 207 -211 534q0 162 56 298q112 276 393 390q139 55 271 55q343 0 539 -187q64 -60 108 -134l-246 -151q-130 198 -370 198q-194 0 -324 -130
q-129 -131 -129 -341q0 -209 129 -338t324 -129z" />
    <glyph glyph-name="Egrave" unicode="&#xc8;" horiz-adv-x="1363" 
d="M1234 0h-1071v1434h1063v-263h-777v-317h741v-262h-741v-330h785v-262zM340 1877h319l206 -323h-255z" />
    <glyph glyph-name="Eacute" unicode="&#xc9;" horiz-adv-x="1363" 
d="M1234 0h-1071v1434h1063v-263h-777v-317h741v-262h-741v-330h785v-262zM505 1554l206 323h319l-270 -323h-255z" />
    <glyph glyph-name="Ecircumflex" unicode="&#xca;" horiz-adv-x="1363" 
d="M1234 0h-1071v1434h1063v-263h-777v-317h741v-262h-741v-330h785v-262zM818 1544l-126 157l-125 -157h-259l223 323h323l223 -323h-259z" />
    <glyph glyph-name="Edieresis" unicode="&#xcb;" horiz-adv-x="1363" 
d="M1234 0h-1071v1434h1063v-263h-777v-317h741v-262h-741v-330h785v-262zM912 1878q75 0 124 -50q48 -50 48 -122t-49 -121t-122 -49t-122 49t-49 121q0 112 103 159q31 13 67 13zM471 1878q76 0 122 -50q50 -50 50 -123q1 -73 -49 -121t-122 -48t-122 49q-49 49 -49 121
q0 112 103 159q31 13 67 13z" />
    <glyph glyph-name="Igrave" unicode="&#xcc;" horiz-adv-x="611" 
d="M449 0h-286v1434h286v-1434zM-46 1877h319l206 -323h-255z" />
    <glyph glyph-name="Iacute" unicode="&#xcd;" horiz-adv-x="611" 
d="M449 0h-286v1434h286v-1434zM119 1554l206 323h319l-270 -323h-255z" />
    <glyph glyph-name="Icircumflex" unicode="&#xce;" horiz-adv-x="611" 
d="M449 0h-286v1434h286v-1434zM432 1544l-126 157l-125 -157h-259l223 323h323l223 -323h-259z" />
    <glyph glyph-name="Idieresis" unicode="&#xcf;" horiz-adv-x="611" 
d="M449 0h-286v1434h286v-1434zM526 1878q75 0 124 -50q48 -50 48 -122t-49 -121t-122 -49t-122 49t-49 121q0 112 103 159q31 13 67 13zM85 1878q76 0 122 -50q50 -50 50 -123q1 -73 -49 -121t-122 -48t-122 49q-49 49 -49 121q0 112 103 159q31 13 67 13z" />
    <glyph glyph-name="Eth" unicode="&#xd0;" horiz-adv-x="1700" 
d="M913 595h-356v-328h302q219 0 334 124.5t115 326.5q0 203 -114.5 325.5t-334.5 122.5h-302v-315h356v-256zM862 1434q336 0 540.5 -196.5t204.5 -520.5t-204 -520.5t-541 -196.5h-591v595h-174v256h174v583h591z" />
    <glyph glyph-name="Ntilde" unicode="&#xd1;" horiz-adv-x="1607" 
d="M1445 0h-268l-727 957l-1 -957h-286v1434h267l728 -958v958h287v-1434zM676 1854q103 0 218 -60q24 -11 48 -11q55 0 127 68l142 -152q-104 -135 -269 -135q-79 0 -136 24q-58 24 -82 36t-48 11q-56 0 -127 -67l-141 152q102 134 268 134z" />
    <glyph glyph-name="Ograve" unicode="&#xd2;" horiz-adv-x="1694" 
d="M848 1186q-98 0 -182 -34t-145 -96q-61 -61 -95 -148t-34 -191t34 -191q67 -171 239 -244q83 -34 182 -34q199 0 327 130t128 339t-128 339q-127 130 -326 130zM847 1460q166 0 304 -56t238 -155q212 -210 212 -531q0 -322 -212 -534q-213 -211 -542 -211t-540 209
t-213 535q0 161 56 297q112 276 393 390q138 56 304 56zM495 1877h319l206 -323h-255z" />
    <glyph glyph-name="Oacute" unicode="&#xd3;" horiz-adv-x="1694" 
d="M848 1186q-98 0 -182 -34t-145 -96q-61 -61 -95 -148t-34 -191t34 -191q67 -171 239 -244q83 -34 182 -34q199 0 327 130t128 339t-128 339q-127 130 -326 130zM847 1460q166 0 304 -56t238 -155q212 -210 212 -531q0 -322 -212 -534q-213 -211 -542 -211t-540 209
t-213 535q0 161 56 297q112 276 393 390q138 56 304 56zM659 1554l206 323h320l-271 -323h-255z" />
    <glyph glyph-name="Ocircumflex" unicode="&#xd4;" horiz-adv-x="1694" 
d="M848 1186q-98 0 -182 -34t-145 -96q-61 -61 -95 -148t-34 -191t34 -191q67 -171 239 -244q83 -34 182 -34q199 0 327 130t128 339t-128 339q-127 130 -326 130zM847 1460q166 0 304 -56t238 -155q212 -210 212 -531q0 -322 -212 -534q-213 -211 -542 -211t-540 209
t-213 535q0 161 56 297q112 276 393 390q138 56 304 56zM973 1544l-126 157l-125 -157h-259l223 323h323l223 -323h-259z" />
    <glyph glyph-name="Otilde" unicode="&#xd5;" horiz-adv-x="1694" 
d="M848 1186q-98 0 -182 -34t-145 -96q-61 -61 -95 -148t-34 -191t34 -191q67 -171 239 -244q83 -34 182 -34q199 0 327 130t128 339t-128 339q-127 130 -326 130zM847 1460q166 0 304 -56t238 -155q212 -210 212 -531q0 -322 -212 -534q-213 -211 -542 -211t-540 209
t-213 535q0 161 56 297q112 276 393 390q138 56 304 56zM714 1854q103 0 218 -60q24 -11 48 -11q55 0 127 68l142 -152q-104 -135 -269 -135q-79 0 -136 24q-58 24 -82 36t-48 11q-56 0 -127 -67l-142 152q102 134 269 134z" />
    <glyph glyph-name="Odieresis" unicode="&#xd6;" horiz-adv-x="1694" 
d="M848 1186q-98 0 -182 -34t-145 -96q-61 -61 -95 -148t-34 -191t34 -191q67 -171 239 -244q83 -34 182 -34q199 0 327 130t128 339t-128 339q-127 130 -326 130zM847 1460q166 0 304 -56t238 -155q212 -210 212 -531q0 -322 -212 -534q-213 -211 -542 -211t-540 209
t-213 535q0 161 56 297q112 276 393 390q138 56 304 56zM1067 1878q76 0 122 -50q50 -50 50 -123q1 -73 -49 -121t-122 -48t-122 49q-49 49 -49 121q0 112 103 159q31 13 67 13zM626 1878q74 0 122 -49t49 -104q2 -89 -48 -139t-122 -50t-123 49q-50 50 -48 121
q0 114 103 159q31 13 67 13z" />
    <glyph glyph-name="multiply" unicode="&#xd7;" 
d="M166 259l284 284l-286 285l167 167l285 -285l284 283l163 -163l-284 -283l286 -286l-167 -167l-286 286l-283 -284z" />
    <glyph glyph-name="Oslash" unicode="&#xd8;" horiz-adv-x="1694" 
d="M1268 526q34 87 34 200t-51 219l-639 -638q102 -59 218 -59t199.5 34t144 95.5t94.5 148.5zM863 1186q-213 0 -342 -130.5t-129 -338.5q0 -132 53 -234l640 640q-108 63 -222 63zM94 717q0 322 210.5 532.5t542.5 210.5q253 0 444 -131l130 130l172 -172l-128 -128
q136 -192 136 -442q0 -322 -212.5 -533t-541.5 -211q-249 0 -440 128l-127 -127l-172 171l123 124q-137 190 -137 448z" />
    <glyph glyph-name="Ugrave" unicode="&#xd9;" horiz-adv-x="1527" 
d="M1381 572q0 -290 -169 -444t-447 -154q-279 0 -449 154t-170 444v862h287v-847q0 -254 196 -319q61 -20 135 -20q238 0 307 187q24 64 24 152v847h286v-862zM412 1877h319l206 -323h-255z" />
    <glyph glyph-name="Uacute" unicode="&#xda;" horiz-adv-x="1527" 
d="M1381 572q0 -290 -169 -444t-447 -154q-279 0 -449 154t-170 444v862h287v-847q0 -254 196 -319q61 -20 135 -20q238 0 307 187q24 64 24 152v847h286v-862zM577 1554l205 323h320l-271 -323h-254z" />
    <glyph glyph-name="Ucircumflex" unicode="&#xdb;" horiz-adv-x="1527" 
d="M1381 572q0 -290 -169 -444t-447 -154q-279 0 -449 154t-170 444v862h287v-847q0 -254 196 -319q61 -20 135 -20q238 0 307 187q24 64 24 152v847h286v-862zM890 1544l-126 157l-125 -157h-259l223 323h323l223 -323h-259z" />
    <glyph glyph-name="Udieresis" unicode="&#xdc;" horiz-adv-x="1527" 
d="M1381 572q0 -290 -169 -444t-447 -154q-279 0 -449 154t-170 444v862h287v-847q0 -254 196 -319q61 -20 135 -20q238 0 307 187q24 64 24 152v847h286v-862zM984 1878q76 0 122 -50q50 -50 50 -123t-50 -121t-122 -48t-121 49t-49 121q0 112 103 159q31 13 67 13z
M543 1878q74 0 122 -49t49 -104q2 -89 -48 -139t-122 -50t-121 48q-50 48 -50 122q0 114 103 159q31 13 67 13z" />
    <glyph glyph-name="Yacute" unicode="&#xdd;" horiz-adv-x="1394" 
d="M844 0h-286v566l-552 868h336l360 -609l361 609h326l-545 -869v-565zM514 1554l206 323h319l-270 -323h-255z" />
    <glyph glyph-name="Thorn" unicode="&#xde;" horiz-adv-x="1352" 
d="M742 540q237 0 237 192t-237 192h-293v-384h293zM449 1188h299q252 0 388 -123t136 -333t-135 -331.5t-387 -121.5h-301v-279h-286v1434h286v-246z" />
    <glyph glyph-name="germandbls" unicode="&#xdf;" horiz-adv-x="1262" 
d="M911 416q0 202 -284 202h-38v231h10q125 0 176 31t73 70.5t22 95.5q0 103 -65 155.5t-169 52.5q-171 0 -204 -92.5t-33 -144.5v-1017h-266v1029q0 196 122.5 333.5t365.5 137.5q244 0 383 -119t139 -302t-85 -251t-132 -85q111 -29 185 -125t74 -204
q0 -207 -130.5 -323.5t-335.5 -116.5q-128 0 -213 27l37 230q65 -24 135 -23q111 0 172 52.5t61 155.5z" />
    <glyph glyph-name="agrave" unicode="&#xe0;" horiz-adv-x="1257" 
d="M422 691q-70 -79 -70 -195t70 -194q70 -79 185 -79t186 77q71 76 71 196q0 119 -70 196q-72 78 -187 78t-185 -79zM856 992h261v-992h-261v110q-110 -134 -305 -135q-196 -1 -334 148t-138 375t138 373q138 148 335 148t304 -136v109zM281 1457h319l206 -322h-255z" />
    <glyph glyph-name="aacute" unicode="&#xe1;" horiz-adv-x="1257" 
d="M422 691q-70 -79 -70 -195t70 -194q70 -79 185 -79t186 77q71 76 71 196q0 119 -70 196q-72 78 -187 78t-185 -79zM856 992h261v-992h-261v110q-110 -134 -305 -135q-196 -1 -334 148t-138 375t138 373q138 148 335 148t304 -136v109zM454 1135l205 322h320l-270 -322
h-255z" />
    <glyph glyph-name="acircumflex" unicode="&#xe2;" horiz-adv-x="1257" 
d="M422 691q-70 -79 -70 -195t70 -194q70 -79 185 -79t186 77q71 76 71 196q0 119 -70 196q-72 78 -187 78t-185 -79zM856 992h261v-992h-261v110q-110 -134 -305 -135q-196 -1 -334 148t-138 375t138 373q138 148 335 148t304 -136v109zM758 1124l-126 157l-125 -157h-259
l223 323h323l223 -323h-259z" />
    <glyph glyph-name="atilde" unicode="&#xe3;" horiz-adv-x="1257" 
d="M422 691q-70 -79 -70 -195t70 -194q70 -79 185 -79t186 77q71 76 71 196q0 119 -70 196q-72 78 -187 78t-185 -79zM856 992h261v-992h-261v110q-110 -134 -305 -135q-196 -1 -334 148t-138 375t138 373q138 148 335 148t304 -136v109zM763 1363q56 0 127 69l142 -153
q-104 -135 -269 -135q-82 0 -162 36q-31 13 -55 24t-49 11q-56 0 -127 -67l-142 152q102 133 269 135q80 -1 137 -25t81 -36t48 -11z" />
    <glyph glyph-name="adieresis" unicode="&#xe4;" horiz-adv-x="1257" 
d="M422 691q-70 -79 -70 -195t70 -194q70 -79 185 -79t186 77q71 76 71 196q0 119 -70 196q-72 78 -187 78t-185 -79zM856 992h261v-992h-261v110q-110 -134 -305 -135q-196 -1 -334 148t-138 375t138 373q138 148 335 148t304 -136v109zM850 1458q114 0 159 -104
q13 -32 13 -68q0 -73 -50 -122q-50 -48 -122 -48t-121 49t-49 122t49 122t121 49zM409 1458q73 0 121 -48t50 -122q2 -72 -48 -122t-122 -50t-123 49q-50 50 -49 123q2 74 50 122t121 48z" />
    <glyph glyph-name="aring" unicode="&#xe5;" horiz-adv-x="1257" 
d="M422 691q-70 -79 -70 -195t70 -194q70 -79 185 -79t186 77q71 76 71 196q0 119 -70 196q-72 78 -187 78t-185 -79zM856 992h261v-992h-261v110q-110 -134 -305 -135q-196 -1 -334 148t-138 375t138 373q138 148 335 148t304 -136v109zM708 1287q52 52 24 122
q-18 41 -59 59q-20 9 -42 9q-42 0 -75 -33q-33 -34 -33 -68t9 -54t24 -35q33 -33 76 -33t76 33zM364 1366q0 109 78 186t188 77t190 -77t80 -187q0 -109 -79 -186t-192 -77q-112 0 -189 78q-76 78 -76 186z" />
    <glyph glyph-name="ae" unicode="&#xe6;" horiz-adv-x="1788" 
d="M1444 587q-37 201 -221 201t-221 -201h442zM524 189q53 0 118 28t114 82q-17 54 -24 113h-200q-133 0 -154.5 -44.5t-21.5 -66t9.5 -42t28.5 -36t48 -25t82 -9.5zM885 872q123 147 344 147t351.5 -145.5t130.5 -375.5q0 -48 -5 -90h-704q19 -102 86.5 -154t167.5 -52
q140 0 252 95l157 -172q-166 -151 -418 -151t-393 153q-77 -72 -165.5 -112.5t-200.5 -40.5t-185 23t-123 65t-75.5 100t-25.5 164t111 186t304 80h234q-14 191 -222 191q-102 0 -175 -36.5t-99 -54.5l-97 209q169 118 405 118t345 -147z" />
    <glyph glyph-name="ccedilla" unicode="&#xe7;" horiz-adv-x="1057" 
d="M224 123q-145 145 -145 373t147 376q147 147 391 147t388 -188l-193 -160q-93 99 -206 99t-183 -75t-71 -197t68 -197q69 -76 186 -77q116 -1 209 100l191 -163q-113 -143 -293 -177l-99 -313h-258l108 319q-140 33 -240 133z" />
    <glyph glyph-name="egrave" unicode="&#xe8;" horiz-adv-x="1140" 
d="M575 788q-91 0 -147 -52q-55 -53 -73 -146h440q-37 198 -220 198zM594 -26q-228 0 -372 144t-143 376q0 233 140 379t359 146t352 -146t133 -375q0 -5 -5 -90h-704q18 -100 86 -153q67 -53 169 -53q139 0 251 95l157 -172q-162 -149 -423 -151zM226 1457h320l206 -322
h-255z" />
    <glyph glyph-name="eacute" unicode="&#xe9;" horiz-adv-x="1140" 
d="M575 788q-91 0 -147 -52q-55 -53 -73 -146h440q-37 198 -220 198zM594 -26q-228 0 -372 144t-143 376q0 233 140 379t359 146t352 -146t133 -375q0 -5 -5 -90h-704q18 -100 86 -153q67 -53 169 -53q139 0 251 95l157 -172q-162 -149 -423 -151zM399 1135l206 322h320
l-271 -322h-255z" />
    <glyph glyph-name="ecircumflex" unicode="&#xea;" horiz-adv-x="1140" 
d="M575 788q-91 0 -147 -52q-55 -53 -73 -146h440q-37 198 -220 198zM594 -26q-228 0 -372 144t-143 376q0 233 140 379t359 146t352 -146t133 -375q0 -5 -5 -90h-704q18 -100 86 -153q67 -53 169 -53q139 0 251 95l157 -172q-162 -149 -423 -151zM703 1124l-125 157
l-125 -157h-259l223 323h322l224 -323h-260z" />
    <glyph glyph-name="edieresis" unicode="&#xeb;" horiz-adv-x="1140" 
d="M575 788q-91 0 -147 -52q-55 -53 -73 -146h440q-37 198 -220 198zM594 -26q-228 0 -372 144t-143 376q0 233 140 379t359 146t352 -146t133 -375q0 -5 -5 -90h-704q18 -100 86 -153q67 -53 169 -53q139 0 251 95l157 -172q-162 -149 -423 -151zM796 1458q73 0 121 -48
t50 -122q1 -72 -49 -122t-121 -50q-72 0 -123 49q-50 50 -49 123q1 74 49 122t122 48zM354 1458q36 0 68 -13t55 -36t36 -55t13 -68t-13 -67t-36 -54t-55 -36t-68 -13t-67 13t-54 36t-36 54t-13 67t13 68t36 55t54 36t67 13z" />
    <glyph glyph-name="igrave" unicode="&#xec;" horiz-adv-x="547" 
d="M408 0h-268v992h268v-992zM-78 1457h320l205 -322h-254z" />
    <glyph glyph-name="iacute" unicode="&#xed;" horiz-adv-x="547" 
d="M408 0h-268v992h268v-992zM95 1135l206 322h320l-271 -322h-255z" />
    <glyph glyph-name="icircumflex" unicode="&#xee;" horiz-adv-x="547" 
d="M408 0h-268v992h268v-992zM399 1124l-126 157l-125 -157h-259l224 323h322l223 -323h-259z" />
    <glyph glyph-name="idieresis" unicode="&#xef;" horiz-adv-x="547" 
d="M408 0h-268v992h268v-992zM492 1458q73 0 121 -48t50 -122q1 -72 -49 -122t-122 -50q-73 0 -122 49t-49 123q1 74 49 122t122 48zM50 1458q36 0 68 -13t55 -36t36 -55t13 -68t-13 -67t-36 -54t-55 -36t-68 -13t-67 13t-54 36t-36 54t-13 67t13 68t36 55t54 36t67 13z" />
    <glyph glyph-name="eth" unicode="&#xf0;" horiz-adv-x="1222" 
d="M351 472q0 -115 75.5 -187t188.5 -72t188.5 72t75.5 187t-75.5 186.5t-188.5 71.5t-188.5 -71.5t-75.5 -186.5zM811 1249q334 -304 334 -757q0 -104 -40 -200t-150 -207t-341 -111q-230 0 -382.5 141.5t-152.5 354.5t138 354.5t340 141.5q147 0 253 -89q-74 137 -215 242
l-230 -141l-90 142l162 101q-79 43 -163 79l142 190q143 -57 252 -130l200 124l90 -144z" />
    <glyph glyph-name="ntilde" unicode="&#xf1;" horiz-adv-x="1210" 
d="M400 876q96 143 278 143t292 -108t108 -279v-632h-267v546q0 110 -51 166t-143 56q-139 0 -193 -126q-17 -42 -16 -98v-544h-268v992h260v-116zM752 1363q56 0 127 69l142 -153q-104 -135 -269 -135q-85 0 -162 36q-32 13 -56 24t-49 11q-54 0 -127 -67l-141 152
q102 133 268 135q81 -1 138 -25t81 -36t48 -11z" />
    <glyph glyph-name="ograve" unicode="&#xf2;" horiz-adv-x="1229" 
d="M351 497q0 -120 75 -197t190 -77t189 78t74 196q0 119 -75 196t-188 77q-114 0 -190 -76q-75 -77 -75 -197zM615 1019q233 0 385 -149t152 -373q0 -225 -152 -373t-385 -149t-384 148q-152 149 -152 375q0 225 152 373q151 148 384 148zM263 1457h320l205 -322h-254z" />
    <glyph glyph-name="oacute" unicode="&#xf3;" horiz-adv-x="1229" 
d="M351 497q0 -120 75 -197t190 -77t189 78t74 196q0 119 -75 196t-188 77q-114 0 -190 -76q-75 -77 -75 -197zM615 1019q233 0 385 -149t152 -373q0 -225 -152 -373t-385 -149t-384 148q-152 149 -152 375q0 225 152 373q151 148 384 148zM436 1135l206 322h320l-271 -322
h-255z" />
    <glyph glyph-name="ocircumflex" unicode="&#xf4;" horiz-adv-x="1229" 
d="M351 497q0 -120 75 -197t190 -77t189 78t74 196q0 119 -75 196t-188 77q-114 0 -190 -76q-75 -77 -75 -197zM615 1019q233 0 385 -149t152 -373q0 -225 -152 -373t-385 -149t-384 148q-152 149 -152 375q0 225 152 373q151 148 384 148zM740 1124l-126 157l-125 -157
h-259l224 323h322l223 -323h-259z" />
    <glyph glyph-name="otilde" unicode="&#xf5;" horiz-adv-x="1229" 
d="M351 497q0 -120 75 -197t190 -77t189 78t74 196q0 119 -75 196t-188 77q-114 0 -190 -76q-75 -77 -75 -197zM615 1019q233 0 385 -149t152 -373q0 -225 -152 -373t-385 -149t-384 148q-152 149 -152 375q0 225 152 373q151 148 384 148zM745 1363q56 0 127 69l143 -153
q-104 -135 -270 -135q-84 0 -161 36q-31 13 -56 24t-49 11q-54 0 -127 -67l-141 152q102 133 268 135q78 -1 137 -25q58 -24 82 -36t47 -11z" />
    <glyph glyph-name="odieresis" unicode="&#xf6;" horiz-adv-x="1229" 
d="M351 497q0 -120 75 -197t190 -77t189 78t74 196q0 119 -75 196t-188 77q-114 0 -190 -76q-75 -77 -75 -197zM615 1019q233 0 385 -149t152 -373q0 -225 -152 -373t-385 -149t-384 148q-152 149 -152 375q0 225 152 373q151 148 384 148zM833 1458q73 0 121 -48t50 -122
q2 -72 -48 -122t-123 -50t-122 49t-49 123q2 74 50 122t121 48zM391 1458q36 0 68 -13t55 -36t36 -55t13 -68t-13 -67t-36 -54t-55 -36t-68 -13t-67 13t-54 36t-36 54t-13 67t13 68t36 55t54 36t67 13z" />
    <glyph glyph-name="divide" unicode="&#xf7;" 
d="M615.5 362q33.5 0 64 -13t53.5 -36t36 -53.5t13 -64t-13 -64.5t-36 -54t-53.5 -36t-64 -13t-64.5 13t-54 36t-36.5 54t-13.5 64.5t13.5 64t36.5 53.5t54 36t64.5 13zM615.5 1083q33.5 0 64 -13t53.5 -35.5t36 -53t13 -64t-13 -64.5t-36 -54t-53.5 -36t-64 -13t-64.5 13
t-54 36t-36.5 54t-13.5 64.5t13.5 64t36.5 53t54 35.5t64.5 13zM1085 441h-942v229h942v-229z" />
    <glyph glyph-name="oslash" unicode="&#xf8;" horiz-adv-x="1229" 
d="M865.5 384.5q20.5 51.5 20.5 111.5t-20 109l-365 -364q53 -24 112 -24t109 20.5t86.5 58t57 89zM615 776q-117 0 -193 -79.5t-76 -199.5q0 -61 20 -111l365 366q-59 24 -116 24zM79 497q0 224 152.5 373t383.5 149q163 0 292 -79l105 103l152 -151l-100 -100
q88 -127 88 -295q0 -223 -152 -373t-385 -150q-161 0 -290 77l-104 -103l-153 151l99 101q-88 127 -88 297z" />
    <glyph glyph-name="ugrave" unicode="&#xf9;" horiz-adv-x="1203" 
d="M1071 423q0 -221 -132 -334t-335 -114q-202 -1 -337 113t-135 335v569h267v-546q0 -111 55 -167t148 -56q143 0 188 122q15 42 15 101v546h266v-569zM251 1457h319l206 -322h-255z" />
    <glyph glyph-name="uacute" unicode="&#xfa;" horiz-adv-x="1203" 
d="M1071 423q0 -221 -132 -334t-335 -114q-202 -1 -337 113t-135 335v569h267v-546q0 -111 55 -167t148 -56q143 0 188 122q15 42 15 101v546h266v-569zM424 1135l206 322h319l-270 -322h-255z" />
    <glyph glyph-name="ucircumflex" unicode="&#xfb;" horiz-adv-x="1203" 
d="M1071 423q0 -221 -132 -334t-335 -114q-202 -1 -337 113t-135 335v569h267v-546q0 -111 55 -167t148 -56q143 0 188 122q15 42 15 101v546h266v-569zM728 1124l-126 157l-125 -157h-259l223 323h323l223 -323h-259z" />
    <glyph glyph-name="udieresis" unicode="&#xfc;" horiz-adv-x="1203" 
d="M1071 423q0 -221 -132 -334t-335 -114q-202 -1 -337 113t-135 335v569h267v-546q0 -111 55 -167t148 -56q143 0 188 122q15 42 15 101v546h266v-569zM820 1458q36 0 68 -13t55 -36t36 -55t13 -68t-13 -67t-36 -54t-55 -36t-68 -13t-67 13t-54 36t-36 54t-13 67t13 68
t36 55t54 36t67 13zM379 1458q35 0 67 -13q63 -26 92 -91q13 -32 13 -68q1 -73 -49 -122q-50 -48 -122 -48t-122 49q-49 49 -49 122t49 122t121 49z" />
    <glyph glyph-name="yacute" unicode="&#xfd;" horiz-adv-x="1155" 
d="M387 -414h-293l347 625l-428 781h303l273 -510l264 510h293zM407 1135l205 322h320l-270 -322h-255z" />
    <glyph glyph-name="thorn" unicode="&#xfe;" horiz-adv-x="1256" 
d="M393 496.5q0 -118.5 71.5 -196t185.5 -77.5t184 78.5t70 194.5t-70 195t-185 79q-113 0 -184.5 -77.5t-71.5 -196zM408 891q110 128 302 128t330.5 -149.5t138.5 -373t-138 -373t-331 -149.5t-302 127v-511h-268v1885h268v-584z" />
    <glyph glyph-name="ydieresis" unicode="&#xff;" horiz-adv-x="1155" 
d="M387 -414h-293l347 625l-428 781h303l273 -510l264 510h293zM803 1458q35 0 67 -13q63 -26 92 -91q13 -32 13 -68q1 -73 -49 -122q-50 -48 -122 -48t-121 48q-50 48 -50 122q0 73 48 123q49 49 122 49zM483 1410q48 -48 50 -122q1 -72 -49 -122t-122 -50q-73 0 -122 49
t-49 122t49 122t122 49t121 -48z" />
    <glyph glyph-name="dotlessi" unicode="&#x131;" horiz-adv-x="547" 
d="M408 0h-268v992h268v-992z" />
    <glyph glyph-name="IJ" unicode="&#x132;" horiz-adv-x="1767" 
d="M449 0h-286v1434h286v-1434zM1327 549v885h286v-912q0 -260 -141 -404t-373 -144q-298 0 -458 199l166 208q108 -133 278 -133q114 0 178 73t64 228z" />
    <glyph glyph-name="ij" unicode="&#x133;" horiz-adv-x="1099" 
d="M959 -94q0 -159 -83 -248t-225 -89q-92 0 -150 27l40 234q33 -12 69 -12q82 0 82 103v1071h267v-1086zM823 1489q71 1 121 -49t50 -122t-49 -122q-49 -49 -121 -49t-122 49q-49 49 -49 121q0 112 103 159q31 13 67 13zM408 0h-268v992h268v-992zM272 1489q72 1 122 -49
t49 -122q0 -72 -49 -122q-50 -49 -122 -49t-121 49t-49 121q0 112 103 159q31 13 67 13z" />
    <glyph glyph-name="Lslash" unicode="&#x141;" horiz-adv-x="1347" 
d="M1315 0h-1044v435l-174 -96v288l174 96v711h286v-551l460 256v-288l-460 -256v-328h758v-267z" />
    <glyph glyph-name="lslash" unicode="&#x142;" horiz-adv-x="734" 
d="M501 0h-268v542l-191 -121v267l191 121v666h268v-498l191 121v-268l-191 -120v-710z" />
    <glyph glyph-name="OE" unicode="&#x152;" horiz-adv-x="2272" 
d="M508 389q116 -122 334 -122h229v899h-229q-219 0 -334.5 -122.5t-115.5 -327.5t116 -327zM2142 0h-1303q-339 0 -542 197t-203 520.5t204 520t541 196.5h1295v-263h-777v-317h741v-262h-741v-330h785v-262z" />
    <glyph glyph-name="oe" unicode="&#x153;" horiz-adv-x="1940" 
d="M1378 788q-95 0 -150.5 -52.5t-72.5 -145.5h439q-39 198 -216 198zM614.5 770q-56.5 0 -104.5 -20t-83.5 -56.5t-55.5 -86.5t-20 -110.5t20 -110.5t55.5 -86.5t83.5 -56.5t104.5 -20t105 20t84 56.5t55.5 86.5t20 110.5t-20 110.5t-55.5 86.5t-84 56.5t-105 20zM1863 498
q0 -48 -5 -90h-704q19 -103 86.5 -154.5t167.5 -51.5q140 0 252 95l157 -172q-166 -151 -422 -151q-255 0 -390 177q-149 -177 -386 -177t-388.5 150t-151.5 373t151.5 372.5t388.5 149.5t386 -177q137 177 363 177t360.5 -145t134.5 -376z" />
    <glyph glyph-name="Scaron" unicode="&#x160;" horiz-adv-x="1385" 
d="M1136 1072q-199 122 -397 122q-197 0 -264 -99q-20 -33 -20 -73t22 -67q53 -65 274 -99l80 -13q323 -50 422 -240q35 -69 35 -175t-48 -194q-94 -171 -317 -231q-106 -29 -205 -29q-271 0 -492 106q-71 35 -129 82l149 230q194 -154 456 -154q191 0 261 99q21 31 21 71
q-1 74 -77 112q-60 30 -227 59l-91 14q-441 70 -437 411q0 216 164 335t400 119q235 0 421 -83q66 -29 134 -69zM615 1867l125 -157l126 157h259l-223 -323h-322l-224 323h259z" />
    <glyph glyph-name="scaron" unicode="&#x161;" horiz-adv-x="1038" 
d="M383 716q0 -31 13 -45q33 -35 149 -49l88 -14q335 -52 335 -297q0 -154 -121 -245q-121 -92 -335 -92q-271 0 -441 117l105 203q141 -97 331 -97t190 93q0 36 -39 58t-126 33l-80 11q-343 47 -343 301q0 153 111 239t324 86q214 0 398 -94l-90 -208q-174 81 -316 81
q-77 0 -115 -25t-38 -56zM419 1447l125 -157l126 157h259l-223 -323h-323l-223 323h259z" />
    <glyph glyph-name="Ydieresis" unicode="&#x178;" horiz-adv-x="1394" 
d="M844 0h-286v566l-552 868h336l360 -609l361 609h326l-545 -869v-565zM922 1878q74 0 122 -49t49 -104q2 -89 -48 -139t-122 -50t-123 49q-50 50 -48 121q0 114 103 159q31 13 67 13zM480 1878q75 0 124 -50q48 -50 48 -122t-49 -121t-122 -49t-122 49t-49 121
q0 112 103 159q31 13 67 13z" />
    <glyph glyph-name="Zcaron" unicode="&#x17d;" horiz-adv-x="1318" 
d="M1222 263v-263h-1125v223l745 947h-743v264h1123v-224l-745 -947h745zM536 1867l124 -157l126 157h260l-224 -323h-322l-224 323h260z" />
    <glyph glyph-name="zcaron" unicode="&#x17e;" horiz-adv-x="1064" 
d="M967 239v-239h-869v193l501 562h-483v237h839v-195l-489 -558h501zM411 1447l125 -157l126 157h259l-224 -323h-322l-223 323h259z" />
    <glyph glyph-name="longs" unicode="&#x17f;" horiz-adv-x="671" 
d="M516 1251q-117 0 -117 -139v-1112h-266v1115q0 274 133.5 329.5t227.5 55.5q164 0 300 -89l-108 -208q-86 48 -170 48z" />
    <glyph glyph-name="florin" unicode="&#x192;" horiz-adv-x="1433" 
d="M1002 1219q-66 0 -89 -37t-30 -108l-22 -219h253v-225h-275l-28 -285q-34 -371 -346 -371q-155 0 -283 78l104 202q80 -39 146 -39q65 0 88.5 37t30.5 107l27 271h-234v225h256l24 237q28 274 144.5 320.5t205.5 46.5q152 0 277 -78l-103 -201q-80 39 -146 39z" />
    <glyph glyph-name="uni0237" unicode="&#x237;" horiz-adv-x="551" 
d="M65 -182q79 0 79 103v1071h268v-1086q0 -159 -83.5 -248t-225.5 -89q-96 0 -150 27l40 234q34 -12 72 -12z" />
    <glyph glyph-name="uni02BB" unicode="&#x2bb;" horiz-adv-x="546" 
d="M92 864l144 611h225l-69 -611h-300z" />
    <glyph glyph-name="afii57929" unicode="&#x2bc;" horiz-adv-x="546" 
d="M455 1475l-144 -611h-225l69 611h300z" />
    <glyph glyph-name="uni02BE" unicode="&#x2be;" horiz-adv-x="556" 
d="M115 911q68 0 118 51.5t50 125.5q0 73 -50 125.5t-118 52.5v225q165 0 284 -117.5t119 -286t-118 -286.5t-285 -118v228z" />
    <glyph glyph-name="uni02BF" unicode="&#x2bf;" horiz-adv-x="556" 
d="M441 1262q-68 0 -118 -52t-50 -126q0 -73 50 -125t118 -52v-225q-167 0 -285 118t-118 286.5t119 286t284 117.5v-228z" />
    <glyph glyph-name="circumflex" unicode="&#x2c6;" horiz-adv-x="1094" 
d="M675 1124l-126 157l-125 -157h-259l223 323h323l222 -323h-258z" />
    <glyph glyph-name="caron" unicode="&#x2c7;" horiz-adv-x="1094" 
d="M423 1447l126 -157l125 157h259l-223 -323h-323l-222 323h258z" />
    <glyph glyph-name="breve" unicode="&#x2d8;" horiz-adv-x="1094" 
d="M547 1324q137 0 188 168l204 -59q-42 -158 -142.5 -240.5t-248.5 -82.5t-248.5 82.5t-143.5 240.5l203 59q51 -168 188 -168z" />
    <glyph glyph-name="dotaccent" unicode="&#x2d9;" horiz-adv-x="621" 
d="M310 1489q36 0 67.5 -13.5t54.5 -36.5t36 -54.5t13 -67.5t-13 -67t-36 -54.5t-54.5 -36t-67.5 -12.5t-67 12.5t-54 36t-36 54.5t-13 67t13 67.5t36 54.5t54 36.5t67 13.5z" />
    <glyph glyph-name="ring" unicode="&#x2da;" horiz-adv-x="1024" 
d="M512 1254q44 0 77 33t33 67q0 58 -33.5 90.5t-65.5 32.5q-53 0 -86.5 -32t-33.5 -68q0 -35 9 -55t32.5 -44t67.5 -24zM323 1178.5q-78 76.5 -78 186.5t78.5 187t189 77t189 -77t78.5 -187t-78 -186.5t-189.5 -76.5t-189.5 76.5z" />
    <glyph glyph-name="ogonek" unicode="&#x2db;" horiz-adv-x="1131" 
d="M393 -185q0 151 113.5 212t179.5 87l151 -102q-121 -47 -163.5 -82t-42.5 -72q0 -75 84 -75q62 0 114 46l140 -152q-114 -106 -263 -106t-231 65.5t-82 178.5z" />
    <glyph glyph-name="tilde" unicode="&#x2dc;" horiz-adv-x="1094" 
d="M415 1435q81 0 137.5 -25t80.5 -36t48 -11q54 0 127 69l142 -153q-104 -135 -269 -135q-80 0 -136.5 24.5t-81 35.5t-48.5 11q-54 0 -127 -67l-142 152q103 135 269 135z" />
    <glyph glyph-name="hungarumlaut" unicode="&#x2dd;" horiz-adv-x="1094" 
d="M502 1135l206 322h319l-270 -322h-255zM69 1135l205 322h320l-270 -322h-255z" />
    <glyph glyph-name="gravecomb" unicode="&#x300;" horiz-adv-x="1" 
d="M-967 1457h320l206 -322h-255z" />
    <glyph glyph-name="acutecomb" unicode="&#x301;" horiz-adv-x="1" 
d="M-794 1135l206 322h320l-271 -322h-255z" />
    <glyph glyph-name="uni0302" unicode="&#x302;" horiz-adv-x="1" 
d="M-489 1124l-126 157l-125 -157h-259l223 323h322l224 -323h-259z" />
    <glyph glyph-name="tildecomb" unicode="&#x303;" horiz-adv-x="1" 
d="M-751 1435q82 0 138.5 -25t80.5 -36t48 -11q54 0 127 69l142 -153q-104 -135 -269 -135q-80 0 -136.5 24.5t-81 35.5t-49.5 11q-54 0 -127 -67l-141 152q103 135 268 135z" />
    <glyph glyph-name="uni0304" unicode="&#x304;" horiz-adv-x="1" 
d="M-954 1393h676v-214h-676v214z" />
    <glyph glyph-name="uni0306" unicode="&#x306;" horiz-adv-x="1" 
d="M-616 1324q136 0 189 168l204 -59q-43 -158 -144 -240.5t-248.5 -82.5t-248.5 82.5t-144 240.5l204 59q52 -168 188 -168z" />
    <glyph glyph-name="uni0307" unicode="&#x307;" horiz-adv-x="1" 
d="M-616.5 1489q35.5 0 67 -13.5t54.5 -36.5t36.5 -54.5t13.5 -67.5t-13.5 -67t-36.5 -54.5t-54.5 -36t-67 -12.5t-67 12.5t-54.5 36t-35.5 54.5t-12.5 67t12.5 67.5t35.5 54.5t54.5 36.5t67 13.5z" />
    <glyph glyph-name="uni0308" unicode="&#x308;" horiz-adv-x="1" 
d="M-397 1458q36 0 67.5 -13t54.5 -36.5t36.5 -55t13.5 -67.5t-13.5 -67t-36.5 -54t-54.5 -36t-67.5 -13t-67.5 13t-54.5 36t-35.5 54t-12.5 67t12.5 67.5t35.5 55t54.5 36.5t67.5 13zM-838.5 1458q35.5 0 67.5 -13t55 -36.5t36 -55t13 -67.5t-13 -67t-36 -54t-55 -36
t-67.5 -13t-67 13t-54.5 36t-36 54t-13 67t13 67.5t36 55t54.5 36.5t67 13z" />
    <glyph glyph-name="uni030A" unicode="&#x30a;" horiz-adv-x="1" 
d="M-616 1254q44 0 76.5 32.5t32.5 67.5t-8.5 55.5t-23.5 35t-35 23.5t-42 9q-42 0 -75 -31.5t-33 -67.5t8.5 -56t32 -44t67.5 -24zM-805.5 1178.5q-78.5 76.5 -78.5 186.5t79 187t188.5 77t189.5 -76.5t80 -187.5t-79.5 -187t-190 -76t-189 76.5z" />
    <glyph glyph-name="uni030B" unicode="&#x30b;" horiz-adv-x="1" 
d="M-944 1135l198 322h283l-223 -322h-258zM-560 1135l222 322h291l-253 -322h-260z" />
    <glyph glyph-name="uni030C" unicode="&#x30c;" horiz-adv-x="1" 
d="M-740 1447l125 -157l126 157h259l-224 -323h-322l-223 323h259z" />
    <glyph glyph-name="uni0312" unicode="&#x312;" horiz-adv-x="1" 
d="M-756 1135l94 398h222l-43 -398h-273z" />
    <glyph glyph-name="dotbelowcomb" unicode="&#x323;" horiz-adv-x="1" 
d="M-614.5 -105q35.5 0 67 -13.5t54.5 -36.5t36.5 -55t13.5 -67.5t-13.5 -67t-36.5 -54.5t-54.5 -35.5t-67 -12.5t-67 12.5t-54.5 35.5t-35.5 54.5t-12.5 67t12.5 67.5t35.5 55t54.5 36.5t67 13.5z" />
    <glyph glyph-name="uni0326" unicode="&#x326;" horiz-adv-x="1" 
d="M-465 -86l-94 -398h-221l44 398h271z" />
    <glyph glyph-name="uni0327" unicode="&#x327;" horiz-adv-x="1" 
d="M-538 -329h-258l114 336h250z" />
    <glyph glyph-name="uni0328" unicode="&#x328;" horiz-adv-x="1" 
d="M-323 -323q-112 -106 -263 -106t-235.5 62t-84.5 162q0 154 131.5 215.5t210.5 86.5l66 -56q-162 -86 -162 -187q0 -31 22.5 -51t72.5 -20t103 46z" />
    <glyph glyph-name="uni032E" unicode="&#x32e;" horiz-adv-x="1" 
d="M-616 -245q136 0 190 168l204 -59q-43 -158 -144 -240.5t-248.5 -82.5t-248.5 82.5t-144 240.5l204 59q51 -168 187 -168z" />
    <glyph glyph-name="uni0331" unicode="&#x331;" horiz-adv-x="1" 
d="M-953 -161h678v-215h-678v215z" />
    <glyph glyph-name="uni0335" unicode="&#x335;" horiz-adv-x="1" 
d="M-237 428h-757v223h757v-223z" />
    <glyph glyph-name="uni0336" unicode="&#x336;" horiz-adv-x="1" 
d="M163 428h-1557v223h1557v-223z" />
    <glyph glyph-name="uni0394" unicode="&#x394;" horiz-adv-x="1420" 
d="M378 267h663l-331 885zM1355 0h-1289v223l471 1211h347l471 -1211v-223z" />
    <glyph glyph-name="uni03A9" unicode="&#x3a9;" horiz-adv-x="1742" 
d="M324 260q-205 192 -205 493t211 504q212 203 542 203t541 -203t211 -505t-205 -492h258v-260h-660v231q140 46 224 170q85 124 85 318q0 195 -126 330t-326 136t-329 -134q-128 -137 -128 -351q0 -265 183 -403q57 -43 126 -66v-231h-660v260h258z" />
    <glyph glyph-name="uni03BC" unicode="&#x3bc;" horiz-adv-x="1210" 
d="M391 -410h-259v1402h267v-546q0 -110 51 -166t143 -56q142 0 193 126q17 42 17 99v543h267v-992h-260v117q-97 -144 -292 -144q-69 0 -127 19v-402z" />
    <glyph glyph-name="pi" unicode="&#x3c0;" horiz-adv-x="1212" 
d="M1080 0h-266v755h-406v-755h-268v992h940v-992z" />
    <glyph glyph-name="uni1E9E" unicode="&#x1e9e;" horiz-adv-x="1481" 
d="M965 1136q-77 58 -223 58q-147 0 -228 -75.5t-81 -202.5v-916h-287v928q0 224 148.5 377.5t452.5 153.5t423 -103.5t166 -162.5l-322 -383q264 -57 319 -189.5t55 -221.5t-42 -170t-156 -168t-354 -87q-153 0 -265 26l52 260q80 -22 169 -21q297 -1 297 173t-305 174
h-106v202z" />
    <glyph glyph-name="uni2007" unicode="&#x2007;" 
 />
    <glyph glyph-name="uni2008" unicode="&#x2008;" horiz-adv-x="567" 
 />
    <glyph glyph-name="uni2009" unicode="&#x2009;" horiz-adv-x="168" 
 />
    <glyph glyph-name="uni200B" unicode="&#x200b;" horiz-adv-x="0" 
 />
    <glyph glyph-name="uni2010" unicode="&#x2010;" horiz-adv-x="832" 
d="M719 428h-605v234h605v-234z" />
    <glyph glyph-name="uni2011" unicode="&#x2011;" horiz-adv-x="832" 
d="M719 428h-605v234h605v-234z" />
    <glyph glyph-name="figuredash" unicode="&#x2012;" 
d="M1110 431h-991v228h991v-228z" />
    <glyph glyph-name="endash" unicode="&#x2013;" horiz-adv-x="1185" 
d="M1089 431h-992v228h992v-228z" />
    <glyph glyph-name="emdash" unicode="&#x2014;" horiz-adv-x="1634" 
d="M1585 431h-1536v228h1536v-228z" />
    <glyph glyph-name="quoteleft" unicode="&#x2018;" horiz-adv-x="546" 
d="M92 864l144 611h225l-69 -611h-300z" />
    <glyph glyph-name="quoteright" unicode="&#x2019;" horiz-adv-x="546" 
d="M455 1475l-144 -611h-225l69 611h300z" />
    <glyph glyph-name="quotesinglbase" unicode="&#x201a;" horiz-adv-x="546" 
d="M455 324l-144 -611h-225l69 611h300z" />
    <glyph glyph-name="quotedblleft" unicode="&#x201c;" horiz-adv-x="991" 
d="M537 864l143 611h225l-68 -611h-300zM92 864l144 611h225l-69 -611h-300z" />
    <glyph glyph-name="quotedblright" unicode="&#x201d;" horiz-adv-x="990" 
d="M455 1475l-144 -611h-225l69 611h300zM898 1475l-143 -611h-226l69 611h300z" />
    <glyph glyph-name="quotedblbase" unicode="&#x201e;" horiz-adv-x="990" 
d="M455 324l-144 -611h-225l69 611h300zM898 324l-143 -611h-226l69 611h300z" />
    <glyph glyph-name="dagger" unicode="&#x2020;" horiz-adv-x="815" 
d="M303 616v433h-221v203h221v223h209v-223h221v-203h-221v-433h-209z" />
    <glyph glyph-name="daggerdbl" unicode="&#x2021;" horiz-adv-x="815" 
d="M512 1305h221v-196h-221v-134h221v-196h-221v-170h-209v170h-221v196h221v134h-221v196h221v170h209v-170z" />
    <glyph glyph-name="bullet" unicode="&#x2022;" horiz-adv-x="904" 
d="M777 544.5q0 -136.5 -95.5 -230.5t-229.5 -94q-135 0 -229.5 94.5t-94.5 230t94.5 230t229.5 94.5t230 -94t95 -230.5z" />
    <glyph glyph-name="uni2023" unicode="&#x2023;" horiz-adv-x="1029" 
d="M183 103v883l762 -440z" />
    <glyph glyph-name="ellipsis" unicode="&#x2026;" horiz-adv-x="1700" 
d="M1418 372q40 0 76 -16t63 -43t43 -63t16 -76t-16 -76.5t-43 -64t-63 -43.5t-76 -16t-76 16t-64 43.5t-43.5 64t-15.5 76.5t15.5 76t43.5 63t64 43t76 16zM851 372q40 0 76 -16t63 -43t43 -63t16 -76t-16 -76.5t-43 -64t-63 -43.5t-76 -16t-76.5 16t-63.5 43.5t-43.5 64
t-16.5 76.5t16.5 76t43.5 63t63.5 43t76.5 16zM285 372q40 0 75.5 -16t63 -43t43 -63t15.5 -76t-15.5 -76.5t-43 -64t-63 -43.5t-75.5 -16t-76.5 16t-63.5 43.5t-43.5 64t-16.5 76.5t16.5 76t43.5 63t63.5 43t76.5 16z" />
    <glyph glyph-name="perthousand" unicode="&#x2030;" horiz-adv-x="2903" 
d="M2256 365.5q0 -78.5 49.5 -128t122.5 -49.5t123 51t50 126.5t-49.5 126.5t-123.5 51q-72 0 -122 -49.5t-50 -128zM2828 408.5q0 -126.5 -30 -198.5t-84 -124t-127.5 -82t-202 -30t-242 111.5t-113.5 279.5t114 280t284.5 112t285.5 -111t115 -237.5zM1552 543
q-38 0 -69.5 -13.5t-54.5 -37t-36 -56t-13 -90t49 -108t124 -50.5t123.5 50t48.5 149t-67 127.5t-105 28.5zM1836.5 645q115.5 -112 115.5 -280t-115 -279.5t-285 -111.5t-285 111t-115 280t115.5 280.5t284.5 111.5t284.5 -112zM666 0h-269l962 1434h267zM303 1068
q0 -77 49 -127t124 -50t123.5 49.5t48.5 127.5t-48 127.5t-124 49.5q-75 0 -124 -50t-49 -127zM762 1347q114 -112 114 -279t-114 -279t-285.5 -112t-286 111t-114.5 280t114.5 280t286 111t285.5 -112z" />
    <glyph glyph-name="minute" unicode="&#x2032;" horiz-adv-x="579" 
d="M487 1434l-148 -698h-253l148 698h253z" />
    <glyph glyph-name="second" unicode="&#x2033;" horiz-adv-x="966" 
d="M487 1434l-148 -698h-253l148 698h253zM874 1434l-148 -698h-253l149 698h252z" />
    <glyph glyph-name="uni2034" unicode="&#x2034;" horiz-adv-x="1312" 
d="M487 1434l-148 -698h-253l148 698h253zM1221 1434l-149 -698h-253l149 698h253zM854 1434l-148 -698h-253l148 698h253z" />
    <glyph glyph-name="guilsinglleft" unicode="&#x2039;" horiz-adv-x="653" 
d="M557 145h-269l-198 400l198 399h269l-198 -399z" />
    <glyph glyph-name="guilsinglright" unicode="&#x203a;" horiz-adv-x="653" 
d="M96 945h270l197 -399l-197 -400h-270l198 400z" />
    <glyph glyph-name="fraction" unicode="&#x2044;" horiz-adv-x="487" 
d="M-85 0h-247l904 1434h247z" />
    <glyph glyph-name="uni2070" unicode="&#x2070;" horiz-adv-x="922" 
d="M293 1013q0 -178 101 -229q31 -15 67 -15q75 0 122 64t47 180q0 117 -47 180q-47 62 -123 62t-121 -63q-46 -63 -46 -179zM732 1329q108 -119 108 -317t-109 -318q-109 -119 -271 -118q-163 1 -270 119t-107 317q0 198 108 317t270 119q163 0 271 -119z" />
    <glyph glyph-name="uni2071" unicode="&#x2071;" horiz-adv-x="402" 
d="M200.5 1652q26.5 0 49 -9.5t39.5 -26.5t27 -39.5t10 -49t-10 -49t-27 -39.5t-39.5 -26.5t-49 -9.5t-49 9.5t-39.5 26.5t-26 39.5t-9 49t9 49t26 39.5t39.5 26.5t49 9.5zM300 592h-198v706h198v-706z" />
    <glyph glyph-name="uni2074" unicode="&#x2074;" horiz-adv-x="750" 
d="M611 914h107v-181h-107v-141h-201v141h-377v141l277 559h221l-261 -519h140v104l61 123h140v-227z" />
    <glyph glyph-name="uni2075" unicode="&#x2075;" horiz-adv-x="764" 
d="M332 947h-212l11 487h507v-185h-334l-3 -128h73q229 0 296 -149q20 -46 20 -108q0 -124 -92 -206q-92 -81 -234 -81q-191 0 -310 114l106 144q60 -49 150 -70q90 -22 142 21q30 26 29 69q0 92 -149 92z" />
    <glyph glyph-name="uni2076" unicode="&#x2076;" horiz-adv-x="772" 
d="M384 984q-53 0 -88 -32t-35 -83t35 -83t88 -32t88 32t35 82t-35 84q-35 32 -88 32zM411 1151q141 0 224 -81t83 -203t-96 -206t-238 -84t-238 81t-96 201t86 243l226 332h242l-206 -283h13z" />
    <glyph glyph-name="uni2077" unicode="&#x2077;" horiz-adv-x="712" 
d="M50 1246v188h621v-158l-336 -684h-240l337 654h-382z" />
    <glyph glyph-name="uni2078" unicode="&#x2078;" horiz-adv-x="829" 
d="M414 1276q-46 0 -77 -23t-31 -66t31 -66t77 -23t77 24q31 22 31 65t-31 66t-77 23zM502 916q-36 24 -90 24t-88 -26q-33 -26 -33 -60q1 -108 137 -108q38 0 74 26t36 72q0 48 -36 72zM607 1017q151 -57 151 -205q0 -48 -27 -94t-74 -78q-95 -64 -243 -63q-148 0 -246 66
t-97 178q0 140 149 196q-126 60 -127 180q-1 121 91 186t231 65t231 -66t90 -177q0 -129 -129 -188z" />
    <glyph glyph-name="uni2079" unicode="&#x2079;" horiz-adv-x="772" 
d="M387 1041q53 1 88 33t35 82t-35 83q-35 32 -88 32t-88 -32q-35 -33 -35 -83t35 -82t88 -33zM360 874q-139 0 -223 80t-84 202q0 123 96 208q97 84 237 84t239 -81q96 -81 96 -200t-85 -244l-227 -331h-242l205 282h-12z" />
    <glyph glyph-name="uni207F" unicode="&#x207f;" horiz-adv-x="868" 
d="M294 1217q68 101 196 101q129 0 205.5 -76.5t76.5 -198.5v-451h-200v388q0 74 -34 113t-97 39q-95 0 -118 -57.5t-23 -95.5v-387h-199v706h193v-81z" />
    <glyph glyph-name="uni2080" unicode="&#x2080;" horiz-adv-x="922" 
d="M293 27q0 -178 101 -229q31 -15 67 -15q75 0 122 64t47 180q0 117 -47 180q-47 62 -123 62t-121 -63q-46 -63 -46 -179zM840 27q0 -101 -30 -183t-81 -138q-106 -116 -269 -116t-270 119t-107 316t108 317t270 120q79 0 148 -30q141 -61 201 -223q30 -80 30 -182z" />
    <glyph glyph-name="uni2081" unicode="&#x2081;" horiz-adv-x="566" 
d="M433 -394h-202v578l-189 -69v196l391 150v-855z" />
    <glyph glyph-name="uni2082" unicode="&#x2082;" horiz-adv-x="742" 
d="M371 462q129 0 212 -73t83 -191q0 -117 -75 -203q-25 -30 -60 -63l-147 -140h301v-186h-587v157l296 282q62 59 62 114t-30 83q-32 28 -84 28q-81 -1 -166 -89l-122 132q113 149 317 149z" />
    <glyph glyph-name="uni2083" unicode="&#x2083;" horiz-adv-x="747" 
d="M341 462q139 0 229 -67t88 -176q0 -133 -123 -189q140 -56 141 -184t-101 -194q-89 -60 -208 -61q-217 -2 -325 123l113 131q74 -76 173 -76t129 49q10 16 10 38t-12 40q-36 50 -136 49h-96v171h99q88 0 119 49q10 16 10 37q0 80 -111 81t-182 -78l-113 130
q111 127 296 127z" />
    <glyph glyph-name="uni2084" unicode="&#x2084;" horiz-adv-x="750" 
d="M611 -72h107v-181h-107v-141h-201v141h-377v141l277 558h221l-261 -518h140v104l61 123h140v-227z" />
    <glyph glyph-name="uni2085" unicode="&#x2085;" horiz-adv-x="764" 
d="M332 -39h-212l11 486h507v-184h-334l-3 -128h73q229 0 296 -149q20 -46 20 -108q0 -126 -91 -206t-213 -81q-212 -2 -332 114l106 143q58 -47 149 -69t143 21q30 26 29 69q0 92 -149 92z" />
    <glyph glyph-name="uni2086" unicode="&#x2086;" horiz-adv-x="772" 
d="M384 -2q-53 0 -88 -32t-35 -83t35 -83t88 -32t88 32t35 82t-35 84q-35 32 -88 32zM411 165q141 0 224 -81t83 -203t-96 -207q-97 -84 -238 -84t-237 82q-97 82 -97 200q0 119 86 244l226 331h242l-206 -282h13z" />
    <glyph glyph-name="uni2087" unicode="&#x2087;" horiz-adv-x="712" 
d="M50 260v187h621v-157l-336 -684h-240l337 654h-382z" />
    <glyph glyph-name="uni2088" unicode="&#x2088;" horiz-adv-x="829" 
d="M414 290q-46 0 -77 -23t-31 -66t31 -66t77 -23t77 24q31 22 31 65t-31 66t-77 23zM291 -132q1 -108 137 -108q38 0 74 25t36 73t-36 72t-90 24t-88 -26q-33 -27 -33 -60zM607 31q151 -57 151 -205q0 -48 -27 -94q-81 -139 -317 -142q-147 0 -245 67t-98 178
q0 140 149 196q-126 60 -127 180q-1 121 91 186t230 65q137 0 231 -66q93 -66 91 -177q0 -129 -129 -188z" />
    <glyph glyph-name="uni2089" unicode="&#x2089;" horiz-adv-x="772" 
d="M387 55q53 1 88 33t35 82t-35 83q-35 32 -88 32t-88 -32q-35 -33 -35 -83t35 -82t88 -33zM360 -112q-141 0 -224 80t-83 202q0 123 96 208q97 84 238 84t237 -82q97 -82 97 -200q0 -119 -85 -243l-227 -331h-242l205 282h-12z" />
    <glyph glyph-name="Euro" unicode="&#x20ac;" horiz-adv-x="1433" 
d="M891 1208q-119 0 -207 -62t-136 -171h520v-190h-565q-3 -33 -3 -69t3 -68h565v-189h-519q49 -112 137.5 -173t205.5 -61q183 0 311 146l152 -199q-187 -198 -461 -198q-238 0 -406 128t-233 357h-178v189h147q-2 17 -2 34v69q0 17 2 34h-147v190h178q65 229 232.5 356.5
t406.5 127.5q277 0 465 -194l-158 -203q-128 146 -310 146z" />
    <glyph glyph-name="uni20BA" unicode="&#x20ba;" horiz-adv-x="1433" 
d="M594 262h168q170 0 244 86.5t109 149.5l224 -133q-156 -278 -323.5 -321.5t-273.5 -43.5h-425v358l-172 -76v201l172 77v134l-172 -77v202l172 77v540h277v-415l431 194v-201l-431 -195v-134l431 195v-202l-431 -195v-221z" />
    <glyph glyph-name="uni2100" unicode="&#x2100;" horiz-adv-x="2048" 
d="M1854 113q-105 -139 -279 -139t-280 104.5t-106 268t104.5 268t281.5 104.5t279 -138l-147 -117q-60 70 -139 70t-127.5 -51t-48.5 -159t66.5 -136t102.5 -28q85 0 148 70zM735 0h-247l905 1434h246zM493 872q93 0 159 77v79h-133q-66 0 -93 -24t-27 -53.5t22.5 -54
t71.5 -24.5zM517 1459q237 0 284 -116t47 -194v-416h-192v70q-86 -88 -207 -88t-188 61.5t-67 165.5q0 155 113 186t182 31h158q-10 126 -151 126q-99 0 -193 -65l-77 150q117 89 291 89z" />
    <glyph glyph-name="uni2101" unicode="&#x2101;" horiz-adv-x="2048" 
d="M1557 554q-125 0 -125 -59q0 -44 114 -58l61 -9q236 -35 236 -212q0 -112 -86 -177t-262 -65t-295 81l77 152q105 -69 235 -69t130 62q0 25 -27 38.5t-89 22.5l-53 7q-246 35 -246 216q0 112 79 173t230 61t289 -67l-64 -153q-129 56 -204 56zM740 0h-246l904 1434h247z
M498 872q93 0 159 77v79h-133q-66 0 -93 -24t-27 -53.5t22.5 -54t71.5 -24.5zM522 1459q237 0 284 -116t47 -194v-416h-191v70q-86 -88 -207 -88q-122 0 -189 61.5t-67 163.5t78 160.5t218 58.5h157q-10 126 -151 126q-99 0 -193 -65l-77 150q117 89 291 89z" />
    <glyph glyph-name="afii61248" unicode="&#x2105;" horiz-adv-x="2048" 
d="M1379 481q-51 -53 -51 -134t51 -134t129 -53q121 0 151 72t30 114t-14 76.5t-51.5 73t-115.5 38.5t-129 -53zM1508 719q83 0 153 -28t121 -78t79.5 -118t28.5 -148t-28.5 -148t-79.5 -118t-121 -78.5t-153 -28.5t-153 28.5t-121 78.5t-80 118t-29 148t29 148t80 118
t121 78t153 28zM680 0h-247l904 1434h247zM824 853q-105 -138 -279 -138q-175 0 -280.5 104t-105.5 268.5t105 268t282 103.5t278 -138l-147 -117q-60 70 -139 70t-128 -51.5t-49 -135t48.5 -135.5t127.5 -52t142 71z" />
    <glyph glyph-name="uni2106" unicode="&#x2106;" horiz-adv-x="2048" 
d="M1898 295q0 -159 -94.5 -240t-282.5 -81t-241 118.5t-53 202.5v404h198v-387q0 -115 54 -133.5t101 -18.5t84 38t37 114v387h197v-404zM672 0h-247l904 1434h247zM815 853q-105 -138 -279 -138q-175 0 -280.5 104t-105.5 268.5t105 268t282 103.5t278 -138l-147 -117
q-60 70 -139 70t-128 -51.5t-49 -135t48.5 -135.5t127.5 -52t142 71z" />
    <glyph glyph-name="afii61289" unicode="&#x2113;" horiz-adv-x="1070" 
d="M722 1147q0 120 -96 120q-48 0 -80.5 -44.5t-32.5 -133.5l-1 -280q210 159 210 338zM263 1099q0 176 99.5 288.5t257.5 112.5t255.5 -95.5t97.5 -246.5q0 -369 -461 -634v-154q0 -111 54.5 -130t82.5 -19q90 0 191 66l104 -203q-142 -101 -314 -101q-269 0 -319 141.5
t-50 235.5v44q-40 -16 -79 -29l-79 224q77 26 158 64z" />
    <glyph glyph-name="afii61352" unicode="&#x2116;" horiz-adv-x="2499" 
d="M1445 0h-268l-727 957l-1 -957h-286v1434h267l728 -958v958h287v-1434zM2054 1263q-38 0 -69.5 -13.5t-55 -37.5t-37 -58t-13.5 -93t50 -111t126 -52t125.5 51.5t49.5 154t-69 131t-107 28.5zM2328.5 1346.5q108.5 -106.5 108.5 -266.5t-109 -265.5t-274 -105.5
t-273 106.5t-108 264.5t107.5 265.5t273.5 107.5t274.5 -106.5zM2417 374h-724v222h724v-222z" />
    <glyph glyph-name="uni2117" unicode="&#x2117;" horiz-adv-x="1909" 
d="M1019 766q137 0 137 92.5t-137 92.5h-160v-185h160zM1023 1144q171 0 264 -77.5t93 -207.5q0 -129 -91.5 -204.5t-263.5 -75.5h-166v-279h-220v844h384zM955 1329q-126 0 -236.5 -47t-193 -128.5t-130 -191t-47.5 -234.5t47.5 -235t130 -192t193 -129t236.5 -47t236.5 47
t192.5 129t130 192t48 235t-48 234.5t-130 191t-192.5 128.5t-236.5 47zM955.5 1555q116.5 0 224 -29.5t201.5 -83t170.5 -129.5t131 -168t84.5 -197.5t30 -219.5t-30 -220t-84.5 -198t-131 -167.5t-170.5 -130t-201.5 -84t-224 -29.5t-224 29.5t-249.5 112t-255.5 272
t-113.5 415.5q0 225 144 466t363 301t335.5 60z" />
    <glyph glyph-name="uni2120" unicode="&#x2120;" horiz-adv-x="1682" 
d="M1435 771v429l-135 -367h-182l-136 368v-430h-181v663h255l153 -398l153 398h255v-663h-182zM402 1295q-118 0 -118 -55q0 -37 57.5 -46t87.5 -13l32 -4q105 -12 167.5 -59.5t62.5 -118.5q0 -126 -86.5 -184t-195.5 -58q-211 0 -327 76l82 138q105 -63 225 -63t120 43
t-36 54t-106 19l-37 4q-230 23 -230 196q0 99 82.5 160.5t224.5 61.5t266 -64l-73 -138q-117 51 -198 51z" />
    <glyph glyph-name="trademark" unicode="&#x2122;" horiz-adv-x="1658" 
d="M274 771v497h-208v166h599v-166h-209v-497h-182zM1411 771v429l-134 -367h-182l-138 368v-430h-180v663h255l154 -398l152 398h255v-663h-182z" />
    <glyph glyph-name="Omega" unicode="&#x2126;" horiz-adv-x="1742" 
d="M324 260q-205 192 -205 493t211 504t541.5 203t541.5 -203.5t211 -504.5t-205 -492h258v-260h-660v231q140 46 224.5 170.5t84.5 298.5q0 214 -127.5 350t-327 136t-327 -135t-127.5 -351q0 -264 119.5 -355t189.5 -114v-231h-660v260h258z" />
    <glyph glyph-name="estimated" unicode="&#x212e;" horiz-adv-x="2048" 
d="M1545 768v303q0 90 -29.5 157.5t-109.5 116.5q-174 106 -377 106q-204 0 -375 -97q-79 -45 -109 -114t-30 -159v-313h1030zM515 352q0 -91 30 -158.5t110 -113.5q170 -97 369 -97q290 0 423 118.5t182 192.5l83 -64q-110 -164 -291.5 -257.5t-396.5 -93.5
q-348 0 -545 189.5t-241.5 355.5t-44.5 292t29.5 237t110.5 250.5t271 245t420 105.5q350 0 546.5 -190t240.5 -356t44 -291v-27q0 -12 -2 -24h-1338v-314z" />
    <glyph glyph-name="uni214D" unicode="&#x214d;" horiz-adv-x="2102" 
d="M795 0h-247l904 1434h247zM450 987h163l-82 260zM1495 546q0 -23 13.5 -34t36 -18t51.5 -11t62 -9l31 -5q251 -38 251 -216q0 -133 -96.5 -199.5t-215.5 -66.5q-233 0 -362 87l92 159q120 -72 246 -72t127 63q0 41 -58 51t-96 15l-38 5q-253 30 -253 226q0 115 90 184
t245 69q154 0 298 -72l-82 -161q-105 58 -218 58q-53 0 -88.5 -15t-35.5 -38zM922 673h-210l-43 136h-276l-42 -136h-208l272 761h235z" />
    <glyph glyph-name="uni2150" unicode="&#x2150;" horiz-adv-x="1828" 
d="M433 592h-202v578l-189 -69v196l391 150v-855zM1166 654v188h621v-158l-336 -684h-240l337 654h-382zM509 0h-247l904 1434h247z" />
    <glyph glyph-name="uni2151" unicode="&#x2151;" horiz-adv-x="1853" 
d="M433 592h-202v578l-189 -69v196l391 150v-855zM1468.5 450q53.5 0 88 32t34.5 82t-34.5 82.5t-88 32.5t-88 -32.5t-34.5 -82.5t34.5 -82t88 -32zM1442 283q-141 0 -224 79t-83 202t95 207.5t238 84.5q144 0 239 -82t95 -202t-85 -241l-227 -331h-242l205 283h-11zM509 0
h-247l904 1434h247z" />
    <glyph glyph-name="uni2152" unicode="&#x2152;" horiz-adv-x="2590" 
d="M433 592h-202v578l-189 -69v196l391 150v-855zM2007.5 599.5q-46.5 -64.5 -46.5 -178.5q0 -177 66 -210.5t121 -33.5t102.5 63t47.5 180q0 116 -47.5 180t-122 64t-121 -64.5zM2129 856q79 0 148 -29.5t120 -86t81 -137t30 -183t-30 -183t-81 -137t-120 -86t-148 -29.5
t-147.5 29.5t-120 86t-81 137t-29.5 183t29.5 183t81 137t120 86t147.5 29.5zM1535 0h-202v579l-189 -70v197l391 149v-855zM509 0h-247l904 1434h247z" />
    <glyph glyph-name="onethird" unicode="&#x2153;" horiz-adv-x="1828" 
d="M433 592h-202v578l-189 -69v196l391 150v-855zM1740 604q0 -121 -124 -180q142 -56 142 -183t-96 -191.5t-214 -64.5q-217 0 -325 124l113 131q75 -77 173 -77t118.5 32.5t20.5 54.5q0 43 -41.5 66t-105.5 23h-96v171h98q88 0 108.5 32.5t20.5 63.5t-33 51.5t-85 20.5
q-103 0 -175 -79l-113 130q111 127 296 127q140 0 229 -65.5t89 -186.5zM509 0h-247l904 1434h247z" />
    <glyph glyph-name="twothirds" unicode="&#x2154;" horiz-adv-x="2009" 
d="M371 1448q132 0 213.5 -74t81.5 -197q0 -135 -135 -258l-147 -141h301v-186h-587v158l296 281q62 59 62 114t-31 82.5t-83 27.5q-81 0 -166 -88l-122 132q113 149 317 149zM1919 604q0 -121 -124 -180q142 -56 142 -183t-96 -191.5t-214 -64.5q-219 0 -324 124l112 131
q75 -77 173 -77t118.5 32.5t20.5 54.5q0 43 -41.5 66t-105.5 23h-96v171h98q90 0 109.5 32.5t19.5 53.5q0 82 -111 82t-182 -79l-112 130q111 127 296 127q139 0 228 -65.5t89 -186.5zM688 0h-247l905 1434h246z" />
    <glyph glyph-name="uni2155" unicode="&#x2155;" horiz-adv-x="1846" 
d="M433 592h-202v578l-189 -69v196l391 150v-855zM1719 657h-334l-3 -128h73q151 0 234 -67.5t83 -191.5t-92 -204.5t-235 -80.5q-190 0 -309 114l105 144q92 -75 203 -75q59 0 89 26t30 57q0 104 -150 104h-212l11 487h507v-185zM509 0h-247l904 1434h247z" />
    <glyph glyph-name="uni2156" unicode="&#x2156;" horiz-adv-x="2025" 
d="M371 1448q132 0 213.5 -74t81.5 -197q0 -135 -135 -258l-147 -141h301v-186h-587v158l296 281q62 59 62 114t-31 82.5t-83 27.5q-81 0 -166 -88l-122 132q113 149 317 149zM1898 657h-333l-3 -128h72q151 0 234 -67.5t83 -192.5q0 -124 -91.5 -204t-235.5 -80
q-190 0 -309 114l105 144q92 -75 203 -75q59 0 89 26t30 57q0 104 -150 104h-212l12 487h506v-185zM688 0h-247l905 1434h246z" />
    <glyph glyph-name="uni2157" unicode="&#x2157;" horiz-adv-x="1999" 
d="M341 1448q139 0 228 -66t89 -188t-123 -178q142 -56 142 -183t-96.5 -191.5t-214.5 -64.5q-218 0 -324 123l113 131q74 -76 172 -76t119 32.5t21 54.5q0 42 -42 65.5t-106 23.5h-96v171h99q88 0 108.5 32.5t20.5 63.5t-33 51.5t-85 20.5q-106 0 -175 -79l-113 130
q111 127 296 127zM1716 263q0 92 -149 92h-212l11 487h507v-185h-334l-3 -128h73q150 0 233 -67.5t83 -192.5q0 -124 -91.5 -204t-235.5 -80q-190 0 -309 114l106 144q92 -75 202 -75q59 0 89 26t30 69zM663 0h-247l904 1434h247z" />
    <glyph glyph-name="uni2158" unicode="&#x2158;" horiz-adv-x="2004" 
d="M611 914h107v-181h-107v-141h-201v141h-377v141l277 559h221l-261 -519h140v104l61 123h140v-227zM1722 263q0 92 -149 92h-212l11 487h507v-185h-334l-3 -128h73q150 0 233 -67.5t83 -192.5q0 -124 -91.5 -204t-234.5 -80q-189 0 -310 114l106 144q92 -75 203 -75
q59 0 88.5 26t29.5 69zM669 0h-247l904 1434h247z" />
    <glyph glyph-name="uni2159" unicode="&#x2159;" horiz-adv-x="1764" 
d="M433 592h-202v578l-189 -69v196l391 150v-855zM1376.5 392q-53.5 0 -88.5 -32t-35 -82t35 -83t88.5 -33t88 32t34.5 83t-34.5 83t-88 32zM1403 559q140 0 223.5 -80t83.5 -203t-95 -207t-238 -84q-144 0 -239.5 81.5t-95.5 201.5q0 119 86 242l227 332h241l-205 -283h12z
M509 0h-247l904 1434h247z" />
    <glyph glyph-name="uni215A" unicode="&#x215a;" horiz-adv-x="1928" 
d="M481 855q0 92 -149 92h-212l11 487h507v-185h-334l-3 -128h73q148 0 232 -67.5t84 -191.5t-90.5 -204.5t-235.5 -80.5q-191 0 -310 114l106 144q92 -75 202 -75q59 0 89 26t30 69zM1539 392q-53 0 -88 -32t-35 -82t35 -83t88 -33t88 32t35 83t-35 83t-88 32zM1566 559
q140 0 223.5 -80t83.5 -203t-95 -207t-238 -84t-239 81t-96 201t86 243l227 332h241l-206 -283h13zM673 0h-247l904 1434h247z" />
    <glyph glyph-name="oneeighth" unicode="&#x215b;" horiz-adv-x="1890" 
d="M433 592h-202v578l-189 -69v196l391 150v-855zM1474.5 684q-46.5 0 -77 -23t-30.5 -66t30.5 -65.5t77 -22.5t77.5 22.5t31 65.5t-31 66t-77.5 23zM1386 322.5q-34 -25.5 -34 -59.5q0 -55 34.5 -81.5t87.5 -26.5t89 25t36 72t-36 71.5t-90 24.5q-53 0 -87 -25.5zM1281 425
q-128 61 -128 181t92.5 185t230 65t229.5 -65.5t92 -185.5q0 -119 -129 -180q151 -57 151 -196q0 -110 -97.5 -177t-288 -67t-246 93.5t-55.5 150.5q0 140 149 196zM509 0h-247l904 1434h247z" />
    <glyph glyph-name="threeeighths" unicode="&#x215c;" horiz-adv-x="2043" 
d="M341 1448q139 0 228 -66t89 -188t-123 -178q142 -56 142 -183t-96.5 -191.5t-214.5 -64.5q-218 0 -324 123l113 131q74 -76 172 -76t119 32.5t21 54.5q0 42 -42 65.5t-106 23.5h-96v171h99q88 0 108.5 32.5t20.5 63.5t-33 51.5t-85 20.5q-106 0 -175 -79l-113 130
q111 127 296 127zM1628 684q-46 0 -76.5 -23t-30.5 -66t30.5 -65.5t76.5 -22.5t77.5 22.5t31.5 65.5t-31.5 66t-77.5 23zM1539.5 322q-34.5 -26 -34.5 -60q0 -54 35 -80.5t88 -26.5q52 0 88.5 25t36.5 72t-36.5 71.5t-89.5 24.5t-87.5 -26zM1435 425q-128 61 -128 181
t92.5 185t229 65t229.5 -65.5t93 -184.5q0 -120 -129 -181q150 -56 150 -196q0 -111 -97 -177.5t-246 -66.5t-246.5 66.5t-97.5 177.5q0 140 150 196zM663 0h-247l904 1434h247z" />
    <glyph glyph-name="fiveeighths" unicode="&#x215d;" horiz-adv-x="2053" 
d="M481 855q0 92 -149 92h-212l11 487h507v-185h-334l-3 -128h73q148 0 232 -67.5t84 -191.5t-90.5 -204.5t-235.5 -80.5q-191 0 -310 114l106 144q92 -75 202 -75q59 0 89 26t30 69zM1637 684q-46 0 -76.5 -23t-30.5 -66t30.5 -65.5t76.5 -22.5t77.5 22.5t31.5 65.5
t-31.5 66t-77.5 23zM1548.5 322q-34.5 -26 -34.5 -60q0 -54 35 -80.5t88 -26.5q52 0 88.5 25t36.5 72t-36.5 71.5t-89.5 24.5t-87.5 -26zM1294 220q0 149 150 205q-128 61 -128 181t92.5 185t230 65t229.5 -65.5t92 -185.5q0 -119 -129 -180q150 -56 150 -196
q0 -111 -96.5 -177.5t-287 -66.5t-247 93.5t-56.5 141.5zM673 0h-247l904 1434h247z" />
    <glyph glyph-name="seveneighths" unicode="&#x215e;" horiz-adv-x="1885" 
d="M50 1246v188h621v-158l-336 -684h-240l337 654h-382zM1470.5 684q-46.5 0 -77 -23t-30.5 -66t30.5 -65.5t77 -22.5t77.5 22.5t31 65.5t-31 66t-77.5 23zM1382 322.5q-34 -25.5 -34 -59.5q0 -55 34.5 -81.5t87.5 -26.5q52 0 88.5 25t36.5 72t-36.5 71.5t-89.5 24.5
t-87 -25.5zM1127 220q0 149 150 205q-128 61 -128 181t92.5 185t230 65t229.5 -65.5t92 -185.5q0 -119 -129 -180q151 -57 151 -196q0 -110 -97.5 -177t-287.5 -67t-246.5 93.5t-56.5 141.5zM505 0h-247l904 1434h247z" />
    <glyph glyph-name="uni215F" unicode="&#x215f;" horiz-adv-x="1081" 
d="M433 592h-202v578l-189 -69v196l391 150v-855zM509 0h-247l904 1434h247z" />
    <glyph glyph-name="uni2189" unicode="&#x2189;" horiz-adv-x="2100" 
d="M293 1013q0 -177 66 -210.5t121 -33.5t102.5 63t47.5 180q0 116 -47 179.5t-122 63.5t-121.5 -63t-46.5 -179zM461 1448q79 0 148 -29.5t120 -86t81 -137t30 -183t-30 -183t-81 -137t-120 -86t-148 -29.5t-147.5 29.5t-120 86t-81 137t-29.5 183t29.5 183t81 137t120 86
t147.5 29.5zM2011 603q0 -121 -124 -179q143 -57 143 -183t-96.5 -191t-214.5 -65q-219 0 -324 124l112 131q75 -77 173 -77t119 32.5t21 54.5q0 42 -42 65.5t-106 23.5h-96v171h98q90 0 109.5 32.5t19.5 63.5t-32.5 51.5t-84.5 20.5q-104 0 -176 -79l-112 130
q111 127 296 127q139 0 228 -66t89 -187zM780 0h-246l904 1434h246z" />
    <glyph glyph-name="arrowleft" unicode="&#x2190;" horiz-adv-x="2048" 
d="M813 795h1060v-234h-1060q-101 0 -224 8q86 -69 270 -247l151 -150l-165 -165l-670 671l670 670l165 -165l-151 -149q-164 -162 -270 -249q153 10 224 10z" />
    <glyph glyph-name="arrowup" unicode="&#x2191;" horiz-adv-x="2048" 
d="M1141 933v-1060h-234v1060q0 101 8 224q-80 -101 -247 -270l-150 -151l-164 165l670 670l670 -670l-164 -165l-150 151q-166 169 -247 270q8 -123 8 -224z" />
    <glyph glyph-name="arrowright" unicode="&#x2192;" horiz-adv-x="2048" 
d="M1235 561h-1060v234h1060q71 0 224 -10q-97 79 -270 249l-151 149l165 165l670 -670l-670 -671l-165 165l151 150q184 178 270 247q-123 -8 -224 -8z" />
    <glyph glyph-name="arrowdown" unicode="&#x2193;" horiz-adv-x="2048" 
d="M907 511v1060h234v-1060q0 -101 -8 -224q69 86 247 270l150 151l164 -165l-670 -670l-670 670l164 165l150 -151q160 -163 247 -270q-8 123 -8 224z" />
    <glyph glyph-name="uni2196" unicode="&#x2196;" horiz-adv-x="2048" 
d="M382 347v948h947v-233l-212 1q-240 3 -366 16q109 -97 163 -153l751 -750l-165 -165l-702 704q-24 25 -75.5 75t-124.5 136q12 -130 15 -367l1 -212h-232z" />
    <glyph glyph-name="uni2197" unicode="&#x2197;" horiz-adv-x="2048" 
d="M677 1278h948v-947h-233l1 212q0 209 15 366q-72 -84 -199 -211l-703 -703l-165 165l702 702q72 75 125 122.5t86 77.5q-129 -12 -365 -15l-212 -1v232z" />
    <glyph glyph-name="uni2198" unicode="&#x2198;" horiz-adv-x="2048" 
d="M1625 1025v-948h-948v233l212 -1q240 -3 366 -16q-69 61 -164 152l-750 751l166 165l748 -751q60 -58 154 -164q-13 125 -16 367l-1 212h233z" />
    <glyph glyph-name="uni2199" unicode="&#x2199;" horiz-adv-x="2048" 
d="M1330 59h-948v948h233l-1 -211q0 -210 -15 -367q72 84 199 211l703 703l165 -165l-702 -703q-72 -75 -125 -122.5t-86 -77.5q165 16 366 16l211 1v-233z" />
    <glyph glyph-name="partialdiff" unicode="&#x2202;" horiz-adv-x="1219" 
d="M347 472q0 -115 75.5 -187t188 -72t187.5 71.5t75 187.5t-75 187t-187.5 71t-188 -71.5t-75.5 -186.5zM1142 501q0 -227 -151.5 -377t-382.5 -150t-382.5 140.5t-151.5 353.5t137 355.5t343 142.5q144 0 249 -87q-136 247 -534 421l142 190q372 -147 551.5 -415.5
t179.5 -573.5z" />
    <glyph glyph-name="uni2300" unicode="&#x2205;" horiz-adv-x="1436" 
d="M715 243q122 0 208 84.5t86 204.5q0 64 -28 122l-384 -385q56 -26 118 -26zM462 672.5q-35 -80.5 -35 -144.5t28 -120l387 387q-117 57 -231 7.5t-149 -130zM1237 554q0 -234 -151.5 -387t-367.5 -153q-149 0 -277 80l-117 -117l-161 161l117 117q-81 125 -81 255
q0 235 151.5 388.5t367.5 153.5q150 0 277 -81l117 116l162 -160l-118 -117q81 -126 81 -256z" />
    <glyph glyph-name="uni2300" unicode="&#x2300;" horiz-adv-x="1436" 
d="M715 243q122 0 208 84.5t86 204.5q0 64 -28 122l-384 -385q56 -26 118 -26zM462 672.5q-35 -80.5 -35 -144.5t28 -120l387 387q-117 57 -231 7.5t-149 -130zM1237 554q0 -234 -151.5 -387t-367.5 -153q-149 0 -277 80l-117 -117l-161 161l117 117q-81 125 -81 255
q0 235 151.5 388.5t367.5 153.5q150 0 277 -81l117 116l162 -160l-118 -117q81 -126 81 -256z" />
    <glyph glyph-name="Delta" unicode="&#x2206;" horiz-adv-x="1420" 
d="M378 267h663l-331 885zM1355 0h-1289v223l471 1211h347l471 -1211v-223z" />
    <glyph glyph-name="product" unicode="&#x220f;" horiz-adv-x="1509" 
d="M1347 -271h-286v1437h-612v-1437h-286v1705h1184v-1705z" />
    <glyph glyph-name="summation" unicode="&#x2211;" horiz-adv-x="1303" 
d="M1203 1166h-689l454 -493v-166l-461 -511h699v-267h-1109v223l574 633l-570 625v224h1102v-268z" />
    <glyph glyph-name="minus" unicode="&#x2212;" 
d="M1085 431h-942v228h942v-228z" />
    <glyph glyph-name="uni2219" unicode="&#x2219;" 
d="M614 869q132 0 230 -94q95 -95 95 -229t-95 -230q-96 -96 -230 -96t-230 96t-94 229q0 68 25 127q53 121 173 172q58 25 126 25z" />
    <glyph glyph-name="radical" unicode="&#x221a;" horiz-adv-x="1339" 
d="M752 -271h-349l-385 1024h310l250 -697l442 1419h298z" />
    <glyph glyph-name="infinity" unicode="&#x221e;" horiz-adv-x="1761" 
d="M1427 686q-51 53 -115 53t-114 -40.5t-162 -161.5h1l-1 -1q111 -122 161 -162.5t94 -40.5t77 13t71.5 54t38.5 137t-51 149zM334.5 386.5q49.5 -53.5 115.5 -53.5t119.5 44t155.5 159v1q-111 120 -160.5 161t-93.5 41q-45 0 -78 -13t-70.5 -53t-37.5 -136.5t49.5 -150z
M165.5 848q123.5 120 290.5 120t270 -103t155 -159q123 135 213 198.5t189 63.5t176 -30.5t134.5 -86.5t91.5 -135.5t34 -225t-122.5 -266t-290.5 -120.5t-271 103t-154 160q-124 -136 -214 -199.5t-189 -63.5t-175.5 30.5t-168.5 121t-92 281.5t123.5 311z" />
    <glyph glyph-name="integral" unicode="&#x222b;" horiz-adv-x="671" 
d="M571 1210q-117 0 -116 -139v-983q0 -273 -134.5 -329t-218.5 -56t-145 16l60 239q26 -6 54 -6q117 0 116 139v983q0 273 134.5 329t218.5 56t146 -16l-61 -239q-27 6 -54 6z" />
    <glyph glyph-name="congruent" unicode="&#x2245;" 
d="M805 1043q-102 0 -182.5 31.5t-121 46t-87.5 14.5q-71 0 -164 -89l-129 162q120 146 303 147q101 0 182.5 -31.5t121.5 -45.5t99 -14t153 89l129 -163q-121 -147 -304 -147zM1085 648h-942v229h942v-229zM1085 214h-942v228h942v-228z" />
    <glyph glyph-name="approxequal" unicode="&#x2248;" 
d="M414 263q-71 0 -164 -89l-129 163q120 146 303 146q104 0 184 -31t120 -45.5t99 -14.5t153 89l129 -163q-120 -146 -304 -146q-100 0 -181.5 31t-122 45.5t-87.5 14.5zM805 602q-102 0 -182.5 31.5t-121 45.5t-87.5 14q-71 0 -164 -89l-129 163q120 146 303 146
q104 0 184 -31t120 -45.5t99 -14.5t153 89l129 -162q-121 -147 -304 -147z" />
    <glyph glyph-name="uni2259" unicode="&#x2259;" 
d="M740 1043l-126 157l-125 -157h-259l224 323h322l223 -323h-259zM1085 648h-942v229h942v-229zM1085 214h-942v228h942v-228z" />
    <glyph glyph-name="notequal" unicode="&#x2260;" 
d="M1085 214h-503l-99 -214h-238l98 214h-200v228h306l95 206h-401v229h506l100 214h238l-99 -214h197v-229h-303l-95 -206h398v-228z" />
    <glyph glyph-name="lessequal" unicode="&#x2264;" 
d="M196 228h838v-228h-838v228zM1034 931l-558 -200l558 -199v-264l-838 338v250l838 339v-264z" />
    <glyph glyph-name="greaterequal" unicode="&#x2265;" 
d="M1034 0h-838v228h838v-228zM196 1195l838 -339v-250l-838 -338v264l558 199l-558 200v264z" />
    <glyph glyph-name="dotmath" unicode="&#x22c5;" 
d="M615 743q81 0 139 -58q59 -59 59 -139q0 -79 -59 -140q-58 -60 -139 -60q-40 0 -76 16q-71 32 -107 108q-16 36 -16 76q0 81 59 139t140 58z" />
    <glyph glyph-name="uni2460" unicode="&#x2460;" horiz-adv-x="2099" 
d="M1192 291h-210v595l-213 -76v206l423 159v-884zM1049.5 1401q-95.5 0 -183 -24.5t-163.5 -68.5t-139 -106.5t-107.5 -138.5t-69.5 -163.5t-25 -181.5t25 -182.5t69.5 -164t107.5 -138t139 -107t163.5 -69t183 -24.5t183 24.5t202 90.5t209 223t94.5 347q0 280 -163 444
t-296.5 201.5t-229 37.5zM1863 1182q127 -213 127 -465t-160.5 -521t-405 -337t-374.5 -68t-250.5 33.5t-278.5 124t-284.5 303t-126.5 465.5t126.5 465.5t342 336t471 123.5t471 -123.5t342.5 -336.5z" />
    <glyph glyph-name="uni2461" unicode="&#x2461;" horiz-adv-x="2099" 
d="M1049 1177q141 0 227 -78t86 -206q0 -75 -35 -136t-108 -130l-153 -141h314v-195h-614v166l310 288q67 63 67 118t-33 83.5t-84 28.5q-86 0 -176 -90l-130 137q131 155 329 155zM1049.5 1401q-95.5 0 -183 -24.5t-163.5 -68.5t-139 -106.5t-107.5 -138.5t-69.5 -163.5
t-25 -181.5t25 -182.5t69.5 -164t107.5 -138t139 -107t163.5 -69t183 -24.5t183 24.5t202 90.5t209 223t94.5 347q0 280 -163 444t-296.5 201.5t-229 37.5zM1863 1182q127 -213 127 -465t-160.5 -521t-405 -337t-374.5 -68t-250.5 33.5t-278.5 124t-284.5 303t-126.5 465.5
t126.5 465.5t342 336t471 123.5t471 -123.5t342.5 -336.5z" />
    <glyph glyph-name="uni2462" unicode="&#x2462;" horiz-adv-x="2099" 
d="M1040 1177q149 0 240.5 -69.5t91.5 -182.5q0 -139 -132 -197q151 -57 151 -188q0 -130 -100.5 -198t-223.5 -68q-231 0 -340 128l118 137q79 -79 182 -79t124 33t21 66t-42.5 57.5t-110.5 24.5h-103v177h104q95 0 115.5 33t20.5 65t-35 53t-90 21q-107 0 -182 -82
l-119 138q117 131 310 131zM1049.5 1401q-95.5 0 -183 -24.5t-163.5 -68.5t-139 -106.5t-107.5 -138.5t-69.5 -163.5t-25 -181.5t25 -182.5t69.5 -164t107.5 -138t139 -107t163.5 -69t183 -24.5t183 24.5t202 90.5t209 223t94.5 347q0 280 -163 444t-296.5 201.5t-229 37.5z
M1863 1182q127 -213 127 -465t-160.5 -521t-405 -337t-374.5 -68t-250.5 33.5t-278.5 124t-284.5 303t-126.5 465.5t126.5 465.5t342 336t471 123.5t471 -123.5t342.5 -336.5z" />
    <glyph glyph-name="uni2463" unicode="&#x2463;" horiz-adv-x="2099" 
d="M1280 628h112v-192h-112v-145h-210v145h-395v147l291 577h231l-272 -532h145v90l72 142h138v-232zM1049.5 1401q-95.5 0 -183 -24.5t-163.5 -68.5t-139 -106.5t-107.5 -138.5t-69.5 -163.5t-25 -181.5t25 -182.5t69.5 -164t107.5 -138t139 -107t163.5 -69t183 -24.5
t183 24.5t202 90.5t209 223t94.5 347q0 280 -163 444t-296.5 201.5t-229 37.5zM1863 1182q127 -213 127 -465t-160.5 -521t-405 -337t-374.5 -68t-250.5 33.5t-278.5 124t-284.5 303t-126.5 465.5t126.5 465.5t342 336t471 123.5t471 -123.5t342.5 -336.5z" />
    <glyph glyph-name="uni2464" unicode="&#x2464;" horiz-adv-x="2099" 
d="M831 550q95 -84 235 -84q48 0 79 27t31 70q0 94 -158 94h-220l11 504h530v-193h-349l-4 -130h84q155 0 239.5 -71t84.5 -199q0 -127 -96.5 -210.5t-244.5 -83.5q-198 0 -325 120zM1049.5 1401q-95.5 0 -183 -24.5t-163.5 -68.5t-139 -106.5t-107.5 -138.5t-69.5 -163.5
t-25 -181.5t25 -182.5t69.5 -164t107.5 -138t139 -107t163.5 -69t183 -24.5t183 24.5t202 90.5t209 223t94.5 347q0 280 -163 444t-296.5 201.5t-229 37.5zM1863 1182q127 -213 127 -465t-160.5 -521t-405 -337t-374.5 -68t-250.5 33.5t-278.5 124t-284.5 303t-126.5 465.5
t126.5 465.5t342 336t471 123.5t471 -123.5t342.5 -336.5z" />
    <glyph glyph-name="uni2465" unicode="&#x2465;" horiz-adv-x="2099" 
d="M1027 694q-41 0 -77 -32.5t-36 -84t36 -83.5t77 -32q69 0 105 32.5t36 71.5q0 38 -9.5 59t-26.5 36.5t-40.5 24t-64.5 8.5zM1069 869q146 0 233 -83t87 -211t-101 -214.5t-248 -86.5t-247 85t-100 208t90 252l235 342h254l-215 -292h12zM1049.5 1401q-95.5 0 -183 -24.5
t-163.5 -68.5t-139 -106.5t-107.5 -138.5t-69.5 -163.5t-25 -181.5t25 -182.5t69.5 -164t107.5 -138t139 -107t163.5 -69t183 -24.5t183 24.5t202 90.5t209 223t94.5 347q0 280 -163 444t-296.5 201.5t-229 37.5zM1863 1182q127 -213 127 -465t-160.5 -521t-405 -337
t-374.5 -68t-250.5 33.5t-278.5 124t-284.5 303t-126.5 465.5t126.5 465.5t342 336t471 123.5t471 -123.5t342.5 -336.5z" />
    <glyph glyph-name="uni2466" unicode="&#x2466;" horiz-adv-x="2099" 
d="M752 966v195h650v-166l-352 -704h-251l354 675h-401zM1049.5 1401q-95.5 0 -183 -24.5t-163.5 -68.5t-139 -106.5t-107.5 -138.5t-69.5 -163.5t-25 -181.5t25 -182.5t69.5 -164t107.5 -138t139 -107t163.5 -69t183 -24.5t183 24.5t202 90.5t209 223t94.5 347
q0 280 -163 444t-296.5 201.5t-229 37.5zM1863 1182q127 -213 127 -465t-160.5 -521t-405 -337t-374.5 -68t-250.5 33.5t-278.5 124t-284.5 303t-126.5 465.5t126.5 465.5t342 336t471 123.5t471 -123.5t342.5 -336.5z" />
    <glyph glyph-name="uni2467" unicode="&#x2467;" horiz-adv-x="2099" 
d="M1050 994q-48 0 -80 -23t-32 -66t32 -66.5t80 -23.5t80.5 23.5t32.5 66.5t-32.5 66t-80.5 23zM1038 650q-40 0 -77.5 -25t-37.5 -72t37 -72t77 -25t63 6t40.5 18.5t28 30t10.5 41t-10.5 42t-28 31t-40 19t-62.5 6.5zM851 730q-136 63 -136 186t96.5 192t238.5 69
t238.5 -69t96.5 -193t-136 -185q159 -63 159 -203q0 -115 -104 -184t-255.5 -69t-254 70t-102.5 181q0 112 62.5 152.5t96.5 52.5zM1049.5 1401q-95.5 0 -183 -24.5t-163.5 -68.5t-139 -106.5t-107.5 -138.5t-69.5 -163.5t-25 -181.5t25 -182.5t69.5 -164t107.5 -138
t139 -107t163.5 -69t183 -24.5t183 24.5t202 90.5t209 223t94.5 347q0 280 -163 444t-296.5 201.5t-229 37.5zM1863 1182q127 -213 127 -465t-160.5 -521t-405 -337t-374.5 -68t-250.5 33.5t-278.5 124t-284.5 303t-126.5 465.5t126.5 465.5t342 336t471 123.5t471 -123.5
t342.5 -336.5z" />
    <glyph glyph-name="uni2468" unicode="&#x2468;" horiz-adv-x="2099" 
d="M1152.5 791.5q35.5 33.5 35.5 82.5q0 50 -36 83t-91 33t-91 -33t-36 -71t9.5 -59t36 -45t82 -24t91 33.5zM1033 582q-145 0 -232 83t-87 211t98.5 214.5t248.5 86.5t249 -85.5t99 -207.5t-90 -252l-236 -341h-253l213 291h-10zM1049.5 1401q-95.5 0 -183 -24.5
t-163.5 -68.5t-139 -106.5t-107.5 -138.5t-69.5 -163.5t-25 -181.5t25 -182.5t69.5 -164t107.5 -138t139 -107t163.5 -69t183 -24.5t183 24.5t202 90.5t209 223t94.5 347q0 280 -163 444t-296.5 201.5t-229 37.5zM1863 1182q127 -213 127 -465t-160.5 -521t-405 -337
t-374.5 -68t-250.5 33.5t-278.5 124t-284.5 303t-126.5 465.5t126.5 465.5t342 336t471 123.5t471 -123.5t342.5 -336.5z" />
    <glyph glyph-name="uni24EA" unicode="&#x24ea;" horiz-adv-x="2099" 
d="M1050 975q-38 0 -70 -16t-56 -47.5t-37.5 -78.5t-13.5 -137t49.5 -155t127.5 -65q120 0 148.5 94t28.5 155t-14 108t-37.5 78.5t-55.5 47.5t-70 16zM1050 1177q170 0 283 -123.5t113 -327.5q0 -205 -113 -328.5t-283 -123.5t-283 124t-113 328q0 205 113 328t283 123z
M1049.5 1401q-95.5 0 -183 -24.5t-163.5 -68.5t-139 -106.5t-107.5 -138.5t-69.5 -163.5t-25 -181.5t25 -182.5t69.5 -164t107.5 -138t139 -107t163.5 -69t183 -24.5t183 24.5t202 90.5t209 223t94.5 347q0 280 -163 444t-296.5 201.5t-229 37.5zM1863 1182
q127 -213 127 -465t-160.5 -521t-405 -337t-374.5 -68t-250.5 33.5t-278.5 124t-284.5 303t-126.5 465.5t126.5 465.5t342 336t471 123.5t471 -123.5t342.5 -336.5z" />
    <glyph glyph-name="uni24FF" unicode="&#x24ff;" horiz-adv-x="2099" 
d="M1050 1621q127 0 244.5 -32.5t272.5 -121.5t278 -296t123 -453t-122.5 -452.5t-333 -329.5t-526.5 -123t-535 215.5t-269 390.5t-50 299t33 239.5t92 216t143 183t186 141t219.5 91t244.5 32.5zM1050 975q38 0 70 -16t55.5 -47.5t37.5 -78.5t14 -108t-14 -107.5
t-37.5 -78t-56 -47.5t-69.5 -16t-69.5 16t-56.5 47.5t-37.5 78t-13.5 107.5t13.5 108t37.5 78.5t56 47.5t70 16zM654 726q0 -205 113 -328.5t283 -123.5t283 124t113 328q0 205 -113 328t-283 123t-283 -123t-113 -328z" />
    <glyph glyph-name="uni2715" unicode="&#x2573;" horiz-adv-x="2224" 
d="M2252 -239l-184 -184l-955 957l-956 -957l-185 184l956 956l-956 955l185 185l956 -956l955 956l184 -185l-956 -955z" />
    <glyph glyph-name="uni2715" unicode="&#x2715;" horiz-adv-x="2224" 
d="M2252 -239l-184 -184l-955 957l-956 -957l-185 184l956 956l-956 955l185 185l956 -956l955 956l184 -185l-956 -955z" />
    <glyph glyph-name="uni25AE" unicode="&#x258c;" horiz-adv-x="1843" 
d="M922 1434v-1434h-717v1434h717z" />
    <glyph glyph-name="uni25AE" unicode="&#x25ae;" horiz-adv-x="1843" 
d="M922 1434v-1434h-717v1434h717z" />
    <glyph glyph-name="filledbox" unicode="&#x25a0;" horiz-adv-x="1843" 
d="M1638 1434v-1434h-1433v1434h1433z" />
    <glyph glyph-name="H22073" unicode="&#x25a1;" horiz-adv-x="1843" 
d="M449 244h946v946h-946v-946zM1638 1434v-1434h-1433v1434h1433z" />
    <glyph glyph-name="triagup" unicode="&#x25b2;" horiz-adv-x="1843" 
d="M1761 0h-1679l840 1454z" />
    <glyph glyph-name="uni25B3" unicode="&#x25b3;" horiz-adv-x="1843" 
d="M503 244h837l-418 724zM1761 0h-1679l840 1454z" />
    <glyph glyph-name="uni25B4" unicode="&#x25b4;" 
d="M1070 286h-910l455 785z" />
    <glyph glyph-name="uni25B8" unicode="&#x25b8;" 
d="M284 221v913l787 -456z" />
    <glyph glyph-name="triagdn" unicode="&#x25bc;" horiz-adv-x="1843" 
d="M82 1434h1679l-839 -1454z" />
    <glyph glyph-name="uni25BD" unicode="&#x25bd;" horiz-adv-x="1843" 
d="M1340 1190h-837l419 -724zM82 1434h1679l-839 -1454z" />
    <glyph glyph-name="uni25BE" unicode="&#x25be;" 
d="M159 1070h910l-456 -785z" />
    <glyph glyph-name="uni25C2" unicode="&#x25c2;" 
d="M945 1134v-913l-787 457z" />
    <glyph glyph-name="uni25C6" unicode="&#x25c6;" horiz-adv-x="1843" 
d="M1677 717l-755 -756l-756 756l756 756z" />
    <glyph glyph-name="uni25C7" unicode="&#x25c7;" horiz-adv-x="1843" 
d="M510 717l412 -412l411 412l-411 411zM1677 717l-755 -756l-756 756l756 756z" />
    <glyph glyph-name="lozenge" unicode="&#x25ca;" horiz-adv-x="1574" 
d="M783 1178l-362 -459l373 -464l362 461zM922 0h-270l-570 717l571 717h270l570 -717z" />
    <glyph glyph-name="circle" unicode="&#x25cb;" horiz-adv-x="1843" 
d="M921.5 204q106.5 0 199.5 40.5t163 110t110.5 162.5t40.5 199.5t-40.5 200t-110.5 163t-163 110t-199.5 40.5t-200 -40.5t-163.5 -110t-109.5 -163t-39.5 -200t39.5 -199.5t109.5 -162.5t163.5 -110t200 -40.5zM921.5 -40q-104.5 0 -201 27t-180.5 76.5t-153.5 118.5
t-118.5 153t-76 180.5t-27 201t27 201.5t76 181t118.5 153t153.5 118t180.5 76.5t201 27.5t201.5 -27.5t181 -76.5t153 -118t118 -153t76 -181t27 -201.5t-27 -201t-76 -180.5t-118 -153t-153 -118.5t-181 -76.5t-201.5 -27z" />
    <glyph glyph-name="H18533" unicode="&#x25cf;" horiz-adv-x="1843" 
d="M921.5 -40q-104.5 0 -201 27t-180.5 76.5t-153.5 118.5t-118.5 153t-76 180.5t-27 201t27 201.5t76 181t118.5 153t153.5 118t180.5 76.5t201 27.5t201.5 -27.5t181 -76.5t153 -118t118 -153t76 -181t27 -201.5t-27 -201t-76 -180.5t-118 -153t-153 -118.5t-181 -76.5
t-201.5 -27z" />
    <glyph glyph-name="uni25D0" unicode="&#x25d0;" horiz-adv-x="1843" 
d="M922 204q210 0 361.5 150t151.5 363t-151.5 363t-361.5 150v-1026zM921.5 -40q-104.5 0 -201 27t-180.5 76.5t-153.5 118.5t-118.5 153t-76 180.5t-27 201t27 201.5t76 181t118.5 153t153.5 118t180.5 76.5t201 27.5t201.5 -27.5t181 -76.5t153 -118t118 -153t76 -181
t27 -201.5t-27 -201t-76 -180.5t-118 -153t-153 -118.5t-181 -76.5t-201.5 -27z" />
    <glyph glyph-name="uni25D6" unicode="&#x25d6;" horiz-adv-x="1843" 
d="M922 -40q-312 0 -494 180.5t-222.5 326t-40.5 250t27 201.5t101 224t249.5 229.5t379.5 102.5v-1514z" />
    <glyph glyph-name="uni25E7" unicode="&#x25e7;" horiz-adv-x="1843" 
d="M922 244h473v946h-473v-946zM1638 1434v-1434h-1433v1434h1433z" />
    <glyph glyph-name="uni2610" unicode="&#x2610;" horiz-adv-x="2252" 
d="M459 49h1335v1335h-1335v-1335zM1994 1584v-1735h-1735v1735h1735z" />
    <glyph glyph-name="uni2611" unicode="&#x2611;" horiz-adv-x="2252" 
d="M1682 1108l-669 -931l-426 480l141 129l266 -304l532 738zM459 49h1335v1335h-1335v-1335zM1994 1584v-1735h-1735v1735h1735z" />
    <glyph glyph-name="uni2612" unicode="&#x2612;" horiz-adv-x="2252" 
d="M990 717l-349 348l137 137l348 -349l349 349l137 -137l-349 -348l349 -348l-137 -138l-349 350l-348 -350l-137 138zM459 1384v-1335h1335v1335h-1335zM1994 -151h-1735v1735h1735v-1735z" />
    <glyph glyph-name="heart" unicode="&#x2665;" horiz-adv-x="1843" 
d="M1475 1189.5q92 -95.5 92 -237.5q0 -195 -181.5 -419.5t-463.5 -423.5q-444 313 -545 526t-101 301q0 158 92.5 253.5t226.5 95.5t227.5 -72.5t99.5 -170.5q4 95 98 169t228 74q135 0 227 -95.5z" />
    <glyph glyph-name="uni2713" unicode="&#x2713;" horiz-adv-x="2252" 
d="M1790 1214l-839 -1130l-487 532l172 158l297 -323l669 903z" />
    <glyph glyph-name="uni2717" unicode="&#x2717;" horiz-adv-x="2252" 
d="M1720 288l-165 -165l-429 429l-429 -429l-165 165l430 429l-430 429l165 165l429 -429l429 429l165 -165l-429 -429z" />
    <glyph glyph-name="uni278A" unicode="&#x2776;" horiz-adv-x="2099" 
d="M1050 1621q127 0 244.5 -32.5t272.5 -121.5t278 -296t123 -453t-122.5 -452.5t-333 -329.5t-526.5 -123t-535 215.5t-269 390.5t-50 299t33 239.5t92 216t143 183t186 141t219.5 91t244.5 32.5zM982 291h210v884l-423 -159v-206l213 76v-595z" />
    <glyph glyph-name="uni278A" unicode="&#x278a;" horiz-adv-x="2099" 
d="M1050 1621q127 0 244.5 -32.5t272.5 -121.5t278 -296t123 -453t-122.5 -452.5t-333 -329.5t-526.5 -123t-535 215.5t-269 390.5t-50 299t33 239.5t92 216t143 183t186 141t219.5 91t244.5 32.5zM982 291h210v884l-423 -159v-206l213 76v-595z" />
    <glyph glyph-name="uni278B" unicode="&#x2777;" horiz-adv-x="2099" 
d="M1050 1621q127 0 244.5 -32.5t272.5 -121.5t278 -296t123 -453t-122.5 -452.5t-333 -329.5t-526.5 -123t-535 215.5t-269 390.5t-50 299t33 239.5t92 216t143 183t186 141t219.5 91t244.5 32.5zM1026 975q51 0 84 -28.5t33 -68.5q0 -71 -67 -133l-310 -288v-166h614v195
h-314l153 141q73 69 108 130t35 131q0 133 -86 211t-227 78q-204 0 -329 -155l130 -137q90 90 176 90z" />
    <glyph glyph-name="uni278B" unicode="&#x278b;" horiz-adv-x="2099" 
d="M1050 1621q127 0 244.5 -32.5t272.5 -121.5t278 -296t123 -453t-122.5 -452.5t-333 -329.5t-526.5 -123t-535 215.5t-269 390.5t-50 299t33 239.5t92 216t143 183t186 141t219.5 91t244.5 32.5zM1026 975q51 0 84 -28.5t33 -68.5q0 -71 -67 -133l-310 -288v-166h614v195
h-314l153 141q73 69 108 130t35 131q0 133 -86 211t-227 78q-204 0 -329 -155l130 -137q90 90 176 90z" />
    <glyph glyph-name="uni278C" unicode="&#x2778;" horiz-adv-x="2099" 
d="M1372 925q0 113 -91.5 182.5t-240.5 69.5q-188 0 -310 -131l119 -138q75 82 182 82q55 0 90 -21t35 -53q0 -98 -136 -98h-104v-177h103q105 0 129 -35t24 -68t-38 -55.5t-99 -22.5q-112 0 -190 79l-118 -137q109 -128 319 -128q144 0 244.5 68t100.5 198t-151 188
q132 59 132 197zM1050 1621q127 0 244.5 -32.5t272.5 -121.5t278 -296t123 -453t-122.5 -452.5t-333 -329.5t-526.5 -123t-535 215.5t-269 390.5t-50 299t33 239.5t92 216t143 183t186 141t219.5 91t244.5 32.5z" />
    <glyph glyph-name="uni278C" unicode="&#x278c;" horiz-adv-x="2099" 
d="M1372 925q0 113 -91.5 182.5t-240.5 69.5q-188 0 -310 -131l119 -138q75 82 182 82q55 0 90 -21t35 -53q0 -98 -136 -98h-104v-177h103q105 0 129 -35t24 -68t-38 -55.5t-99 -22.5q-112 0 -190 79l-118 -137q109 -128 319 -128q144 0 244.5 68t100.5 198t-151 188
q132 59 132 197zM1050 1621q127 0 244.5 -32.5t272.5 -121.5t278 -296t123 -453t-122.5 -452.5t-333 -329.5t-526.5 -123t-535 215.5t-269 390.5t-50 299t33 239.5t92 216t143 183t186 141t219.5 91t244.5 32.5z" />
    <glyph glyph-name="uni278D" unicode="&#x2779;" horiz-adv-x="2099" 
d="M1070 628h-145l272 532h-231l-291 -577v-147h395v-145h210v145h112v192h-112v232h-138l-72 -142v-90zM1050 1621q127 0 244.5 -32.5t272.5 -121.5t278 -296t123 -453t-122.5 -452.5t-333 -329.5t-526.5 -123t-535 215.5t-269 390.5t-50 299t33 239.5t92 216t143 183
t186 141t219.5 91t244.5 32.5z" />
    <glyph glyph-name="uni278D" unicode="&#x278d;" horiz-adv-x="2099" 
d="M1070 628h-145l272 532h-231l-291 -577v-147h395v-145h210v145h112v192h-112v232h-138l-72 -142v-90zM1050 1621q127 0 244.5 -32.5t272.5 -121.5t278 -296t123 -453t-122.5 -452.5t-333 -329.5t-526.5 -123t-535 215.5t-269 390.5t-50 299t33 239.5t92 216t143 183
t186 141t219.5 91t244.5 32.5z" />
    <glyph glyph-name="uni278E" unicode="&#x277a;" horiz-adv-x="2099" 
d="M1050 1621q127 0 244.5 -32.5t272.5 -121.5t278 -296t123 -453t-122.5 -452.5t-333 -329.5t-526.5 -123t-535 215.5t-269 390.5t-50 299t33 239.5t92 216t143 183t186 141t219.5 91t244.5 32.5zM1053 274q148 0 244.5 83.5t96.5 210.5t-84.5 198.5t-239.5 71.5h-84l4 130
h349v193h-530l-11 -504h220q158 0 158 -94q0 -43 -31 -70t-93 -27q-119 0 -221 84l-103 -156q127 -120 325 -120z" />
    <glyph glyph-name="uni278E" unicode="&#x278e;" horiz-adv-x="2099" 
d="M1050 1621q127 0 244.5 -32.5t272.5 -121.5t278 -296t123 -453t-122.5 -452.5t-333 -329.5t-526.5 -123t-535 215.5t-269 390.5t-50 299t33 239.5t92 216t143 183t186 141t219.5 91t244.5 32.5zM1053 274q148 0 244.5 83.5t96.5 210.5t-84.5 198.5t-239.5 71.5h-84l4 130
h349v193h-530l-11 -504h220q158 0 158 -94q0 -43 -31 -70t-93 -27q-119 0 -221 84l-103 -156q127 -120 325 -120z" />
    <glyph glyph-name="uni278F" unicode="&#x277b;" horiz-adv-x="2099" 
d="M1027 694q41 0 64.5 -8.5t40.5 -24t26.5 -37t9.5 -46.5q0 -51 -36 -83.5t-91 -32.5t-91 32t-36 83.5t36 84t77 32.5zM783 819q-90 -130 -90 -252q0 -123 100 -208t247 -85t248 86.5t101 214.5t-87 211t-233 83h-12l215 292h-254zM1050 1621q127 0 244.5 -32.5
t272.5 -121.5t278 -296t123 -453t-122.5 -452.5t-333 -329.5t-526.5 -123t-535 215.5t-269 390.5t-50 299t33 239.5t92 216t143 183t186 141t219.5 91t244.5 32.5z" />
    <glyph glyph-name="uni278F" unicode="&#x278f;" horiz-adv-x="2099" 
d="M1027 694q41 0 64.5 -8.5t40.5 -24t26.5 -37t9.5 -46.5q0 -51 -36 -83.5t-91 -32.5t-91 32t-36 83.5t36 84t77 32.5zM783 819q-90 -130 -90 -252q0 -123 100 -208t247 -85t248 86.5t101 214.5t-87 211t-233 83h-12l215 292h-254zM1050 1621q127 0 244.5 -32.5
t272.5 -121.5t278 -296t123 -453t-122.5 -452.5t-333 -329.5t-526.5 -123t-535 215.5t-269 390.5t-50 299t33 239.5t92 216t143 183t186 141t219.5 91t244.5 32.5z" />
    <glyph glyph-name="uni2790" unicode="&#x277c;" horiz-adv-x="2099" 
d="M1050 1621q127 0 244.5 -32.5t272.5 -121.5t278 -296t123 -453t-122.5 -452.5t-333 -329.5t-526.5 -123t-535 215.5t-269 390.5t-50 299t33 239.5t92 216t143 183t186 141t219.5 91t244.5 32.5zM752 1161v-195h401l-354 -675h251l352 704v166h-650z" />
    <glyph glyph-name="uni2790" unicode="&#x2790;" horiz-adv-x="2099" 
d="M1050 1621q127 0 244.5 -32.5t272.5 -121.5t278 -296t123 -453t-122.5 -452.5t-333 -329.5t-526.5 -123t-535 215.5t-269 390.5t-50 299t33 239.5t92 216t143 183t186 141t219.5 91t244.5 32.5zM752 1161v-195h401l-354 -675h251l352 704v166h-650z" />
    <glyph glyph-name="uni2791" unicode="&#x277d;" horiz-adv-x="2099" 
d="M1050 994q48 0 80.5 -23t32.5 -66t-32.5 -66.5t-80.5 -23.5t-80 23.5t-32 66.5t32 66t80 23zM1038 650q40 0 62.5 -6.5t40 -19t28 -31t10.5 -52t-36.5 -59.5t-90.5 -26t-91.5 25t-37.5 72t37.5 72t77.5 25zM851 730q-159 -56 -159 -212q0 -104 102.5 -174t254 -70
t255.5 69t104 184q0 140 -159 203q136 61 136 185t-96.5 193t-238.5 69t-238.5 -69t-96.5 -192t136 -186zM1050 1621q127 0 244.5 -32.5t272.5 -121.5t278 -296t123 -453t-122.5 -452.5t-333 -329.5t-526.5 -123t-535 215.5t-269 390.5t-50 299t33 239.5t92 216t143 183
t186 141t219.5 91t244.5 32.5z" />
    <glyph glyph-name="uni2791" unicode="&#x2791;" horiz-adv-x="2099" 
d="M1050 994q48 0 80.5 -23t32.5 -66t-32.5 -66.5t-80.5 -23.5t-80 23.5t-32 66.5t32 66t80 23zM1038 650q40 0 62.5 -6.5t40 -19t28 -31t10.5 -52t-36.5 -59.5t-90.5 -26t-91.5 25t-37.5 72t37.5 72t77.5 25zM851 730q-159 -56 -159 -212q0 -104 102.5 -174t254 -70
t255.5 69t104 184q0 140 -159 203q136 61 136 185t-96.5 193t-238.5 69t-238.5 -69t-96.5 -192t136 -186zM1050 1621q127 0 244.5 -32.5t272.5 -121.5t278 -296t123 -453t-122.5 -452.5t-333 -329.5t-526.5 -123t-535 215.5t-269 390.5t-50 299t33 239.5t92 216t143 183
t186 141t219.5 91t244.5 32.5z" />
    <glyph glyph-name="uni2792" unicode="&#x277e;" horiz-adv-x="2099" 
d="M970 790.5q-36 32.5 -36 83.5q0 50 36 83t91 33t91 -33t36 -71t-10 -59t-35.5 -45t-81 -24t-91.5 32.5zM1319 632q90 130 90 252t-99 207.5t-249 85.5t-248.5 -87t-98.5 -214q0 -128 87 -211t232 -83h10l-213 -291h253zM1050 1621q127 0 244.5 -32.5t272.5 -121.5
t278 -296t123 -453t-122.5 -452.5t-333 -329.5t-526.5 -123t-535 215.5t-269 390.5t-50 299t33 239.5t92 216t143 183t186 141t219.5 91t244.5 32.5z" />
    <glyph glyph-name="uni2792" unicode="&#x2792;" horiz-adv-x="2099" 
d="M970 790.5q-36 32.5 -36 83.5q0 50 36 83t91 33t91 -33t36 -71t-10 -59t-35.5 -45t-81 -24t-91.5 32.5zM1319 632q90 130 90 252t-99 207.5t-249 85.5t-248.5 -87t-98.5 -214q0 -128 87 -211t232 -83h10l-213 -291h253zM1050 1621q127 0 244.5 -32.5t272.5 -121.5
t278 -296t123 -453t-122.5 -452.5t-333 -329.5t-526.5 -123t-535 215.5t-269 390.5t-50 299t33 239.5t92 216t143 183t186 141t219.5 91t244.5 32.5z" />
    <glyph glyph-name="uni2B51" unicode="&#x2b51;" horiz-adv-x="1843" 
d="M1735 924l-502 -365l192 -593l-502 367l-502 -367l191 593l-503 365h622l192 593l191 -593h621z" />
    <glyph glyph-name="uni2B52" unicode="&#x2b52;" horiz-adv-x="1843" 
d="M923 1053l-88 -272h-287l231 -168l-88 -273l232 169l231 -169l-88 273l231 168h-286zM1735 924l-502 -365l192 -593l-502 367l-502 -367l191 593l-503 365h622l192 593l191 -593h621z" />
    <glyph glyph-name="uni2E17" unicode="&#x2e17;" horiz-adv-x="898" 
d="M751 389l-604 -220v219l604 220v-219zM751 750l-604 -221v221l604 219v-219z" />
    <glyph glyph-name="uni2E38" unicode="&#x2e38;" horiz-adv-x="815" 
d="M512 1475v-433h221v-203h-221v-223h-209v223h-221v203h221v433h209z" />
    <glyph glyph-name="uniEA00" unicode="&#xea00;" horiz-adv-x="1843" 
d="M923 1053v-544l231 -169l-88 273l231 168h-286zM1735 924l-502 -365l192 -593l-502 367l-502 -367l191 593l-503 365h622l192 593l191 -593h621z" />
    <glyph glyph-name="uniEA01" unicode="&#xea01;" horiz-adv-x="1843" 
d="M421 -34l191 593l-503 365h622l192 593v-1184z" />
    <glyph glyph-name="uniFB00" unicode="&#xfb00;" horiz-adv-x="1715" 
d="M495 992h308v-237h-308v-755h-268v755h-185v237h185v123q0 273 203 358q66 27 160 27q163 -1 298 -89l-107 -208q-92 50 -170 48q-117 0 -116 -139v-120zM1340 1112v-120h309v-237h-309v-755h-267v755h-185v237h185v123q0 272 202 358q66 27 160 27q164 -1 299 -89
l-107 -208q-92 50 -170 48q-117 0 -117 -139z" />
    <glyph glyph-name="fi" unicode="&#xfb01;" horiz-adv-x="1417" 
d="M495 992h308v-237h-308v-755h-268v755h-185v237h185v123q0 273 203 358q66 27 160 27q163 -1 298 -89l-107 -208q-92 50 -170 48q-117 0 -116 -139v-120zM1277 0h-267v992h267v-992zM1142 1489q73 0 121 -49t49 -104q2 -55 -12 -86t-37 -54q-49 -49 -120 -49
q-71 1 -121 49t-50 121q0 114 103 159q31 13 67 13z" />
    <glyph glyph-name="fl" unicode="&#xfb02;" horiz-adv-x="1417" 
d="M495 992h308v-237h-308v-755h-268v755h-185v237h185v123q0 273 203 358q66 27 160 27q163 -1 298 -89l-107 -208q-92 50 -170 48q-117 0 -116 -139v-120zM1277 0h-267v1475h267v-1475z" />
    <glyph glyph-name="uniFB03" unicode="&#xfb03;" horiz-adv-x="2263" 
d="M495 992h308v-237h-308v-755h-268v755h-185v237h185v123q0 273 203 358q66 27 160 27q163 -1 298 -89l-107 -208q-92 50 -170 48q-117 0 -116 -139v-120zM1340 1112v-120h309v-237h-309v-755h-267v755h-185v237h185v123q0 272 202 358q66 27 160 27q164 -1 299 -89
l-107 -208q-92 50 -170 48q-117 0 -117 -139zM2123 0h-268v992h268v-992zM1988 1489q73 0 121 -49t49 -104q2 -55 -12 -86t-37 -54q-49 -49 -120 -49t-123 49q-50 50 -48 121q0 114 103 159q31 13 67 13z" />
    <glyph glyph-name="uniFB04" unicode="&#xfb04;" horiz-adv-x="2263" 
d="M495 992h308v-237h-308v-755h-268v755h-185v237h185v123q0 273 203 358q66 27 160 27q163 -1 298 -89l-107 -208q-92 50 -170 48q-117 0 -116 -139v-120zM1340 1112v-120h309v-237h-309v-755h-267v755h-185v237h185v123q0 272 202 358q66 27 160 27q164 -1 299 -89
l-107 -208q-92 50 -170 48q-117 0 -117 -139zM2123 0h-268v1475h268v-1475z" />
    <glyph glyph-name="uniFB05" unicode="&#xfb05;" horiz-adv-x="1485" 
d="M765 371v384h-166v237h166v56q0 159 -71.5 184t-133 25t-111 -51.5t-49.5 -157.5v-1048h-267v1059q0 218 128.5 329.5t322 111.5t320.5 -111.5t127 -330.5v-66h361v-237h-361v-363q0 -127 59 -148t91 -21q79 0 186 65l97 -209q-152 -105 -332 -105t-273.5 101.5
t-93.5 295.5z" />
    <glyph glyph-name="uniFB06" unicode="&#xfb06;" horiz-adv-x="1986" 
d="M383 716q0 -31 13 -45q33 -35 149 -49l88 -14q335 -52 335 -297q0 -154 -121 -245q-121 -92 -335 -92q-271 0 -441 117l105 203q141 -97 331 -97t190 93q0 36 -39 58t-126 33l-80 11q-343 47 -343 301q0 153 111 239t324 86q214 0 398 -94l-90 -208q-174 81 -316 81
q-77 0 -115 -25t-38 -56zM1265 371v384h-192v237h192v295h267v-295h359v-237h-359v-363q0 -128 91 -160q27 -9 57 -9q80 0 187 65l98 -209q-154 -105 -334 -105t-273 102t-93 295z" />
    <glyph glyph-name="uniFEFF" unicode="&#xfeff;" horiz-adv-x="0" 
 />
    <glyph glyph-name="uni0327.case" horiz-adv-x="1" 
d="M-763 -329h-273l114 336h265z" />
    </font>
</defs>
</svg>
